<svg viewBox="0 0 330 200" xmlns="http://www.w3.org/2000/svg"><g><g><g><g><g><line x1="50" y1="178" x2="45" y2="178" style="visibility: inherit;" fill="rgb(0, 0, 0)" stroke="rgb(204, 204, 204)" stroke-width="1px"></line><line x1="50" y1="164.30769230769232" x2="45" y2="164.30769230769232" style="visibility: inherit;" fill="rgb(0, 0, 0)" stroke="rgb(204, 204, 204)" stroke-width="1px"></line><line x1="50" y1="150.6153846153846" x2="45" y2="150.6153846153846" style="visibility: inherit;" fill="rgb(0, 0, 0)" stroke="rgb(204, 204, 204)" stroke-width="1px"></line><line x1="50" y1="136.9230769230769" x2="45" y2="136.9230769230769" style="visibility: inherit;" fill="rgb(0, 0, 0)" stroke="rgb(204, 204, 204)" stroke-width="1px"></line><line x1="50" y1="123.23076923076923" x2="45" y2="123.23076923076923" style="visibility: inherit;" fill="rgb(0, 0, 0)" stroke="rgb(204, 204, 204)" stroke-width="1px"></line><line x1="50" y1="109.53846153846152" x2="45" y2="109.53846153846152" style="visibility: inherit;" fill="rgb(0, 0, 0)" stroke="rgb(204, 204, 204)" stroke-width="1px"></line><line x1="50" y1="95.84615384615384" x2="45" y2="95.84615384615384" style="visibility: inherit;" fill="rgb(0, 0, 0)" stroke="rgb(204, 204, 204)" stroke-width="1px"></line><line x1="50" y1="82.15384615384613" x2="45" y2="82.15384615384613" style="visibility: inherit;" fill="rgb(0, 0, 0)" stroke="rgb(204, 204, 204)" stroke-width="1px"></line><line x1="50" y1="68.46153846153844" x2="45" y2="68.46153846153844" style="visibility: inherit;" fill="rgb(0, 0, 0)" stroke="rgb(204, 204, 204)" stroke-width="1px"></line><line x1="50" y1="54.769230769230774" x2="45" y2="54.769230769230774" style="visibility: inherit;" fill="rgb(0, 0, 0)" stroke="rgb(204, 204, 204)" stroke-width="1px"></line><line x1="50" y1="41.07692307692304" x2="45" y2="41.07692307692304" style="visibility: inherit;" fill="rgb(0, 0, 0)" stroke="rgb(204, 204, 204)" stroke-width="1px"></line><line x1="50" y1="27.38461538461536" x2="45" y2="27.38461538461536" style="visibility: inherit;" fill="rgb(0, 0, 0)" stroke="rgb(204, 204, 204)" stroke-width="1px"></line><line x1="50" y1="13.69230769230768" x2="45" y2="13.69230769230768" style="visibility: inherit;" fill="rgb(0, 0, 0)" stroke="rgb(204, 204, 204)" stroke-width="1px"></line><line x1="50" y1="0" x2="45" y2="0" style="visibility: inherit;" fill="rgb(0, 0, 0)" stroke="rgb(204, 204, 204)" stroke-width="1px"></line></g><g transform="translate(40, 0)"><text x="0" y="178" dx="0em" dy="0.3em" style="text-anchor: end; visibility: hidden; font-family: &quot;Helvetica Neue&quot;, sans-serif; font-size: 12px; font-weight: 200;" fill="rgb(50, 49, 63)" stroke="none" stroke-width="1px">-1.2</text><text x="0" y="164.30769230769232" dx="0em" dy="0.3em" style="text-anchor: end; visibility: inherit; font-family: &quot;Helvetica Neue&quot;, sans-serif; font-size: 12px; font-weight: 200;" fill="rgb(50, 49, 63)" stroke="none" stroke-width="1px">-1</text><text x="0" y="150.6153846153846" dx="0em" dy="0.3em" style="text-anchor: end; visibility: hidden; font-family: &quot;Helvetica Neue&quot;, sans-serif; font-size: 12px; font-weight: 200;" fill="rgb(50, 49, 63)" stroke="none" stroke-width="1px">-0.8</text><text x="0" y="136.9230769230769" dx="0em" dy="0.3em" style="text-anchor: end; visibility: inherit; font-family: &quot;Helvetica Neue&quot;, sans-serif; font-size: 12px; font-weight: 200;" fill="rgb(50, 49, 63)" stroke="none" stroke-width="1px">-0.6</text><text x="0" y="123.23076923076923" dx="0em" dy="0.3em" style="text-anchor: end; visibility: hidden; font-family: &quot;Helvetica Neue&quot;, sans-serif; font-size: 12px; font-weight: 200;" fill="rgb(50, 49, 63)" stroke="none" stroke-width="1px">-0.4</text><text x="0" y="109.53846153846152" dx="0em" dy="0.3em" style="text-anchor: end; visibility: inherit; font-family: &quot;Helvetica Neue&quot;, sans-serif; font-size: 12px; font-weight: 200;" fill="rgb(50, 49, 63)" stroke="none" stroke-width="1px">-0.2</text><text x="0" y="95.84615384615384" dx="0em" dy="0.3em" style="text-anchor: end; visibility: hidden; font-family: &quot;Helvetica Neue&quot;, sans-serif; font-size: 12px; font-weight: 200;" fill="rgb(50, 49, 63)" stroke="none" stroke-width="1px">0</text><text x="0" y="82.15384615384613" dx="0em" dy="0.3em" style="text-anchor: end; visibility: inherit; font-family: &quot;Helvetica Neue&quot;, sans-serif; font-size: 12px; font-weight: 200;" fill="rgb(50, 49, 63)" stroke="none" stroke-width="1px">0.2</text><text x="0" y="68.46153846153844" dx="0em" dy="0.3em" style="text-anchor: end; visibility: hidden; font-family: &quot;Helvetica Neue&quot;, sans-serif; font-size: 12px; font-weight: 200;" fill="rgb(50, 49, 63)" stroke="none" stroke-width="1px">0.4</text><text x="0" y="54.769230769230774" dx="0em" dy="0.3em" style="text-anchor: end; visibility: inherit; font-family: &quot;Helvetica Neue&quot;, sans-serif; font-size: 12px; font-weight: 200;" fill="rgb(50, 49, 63)" stroke="none" stroke-width="1px">0.6</text><text x="0" y="41.07692307692304" dx="0em" dy="0.3em" style="text-anchor: end; visibility: hidden; font-family: &quot;Helvetica Neue&quot;, sans-serif; font-size: 12px; font-weight: 200;" fill="rgb(50, 49, 63)" stroke="none" stroke-width="1px">0.8</text><text x="0" y="27.38461538461536" dx="0em" dy="0.3em" style="text-anchor: end; visibility: inherit; font-family: &quot;Helvetica Neue&quot;, sans-serif; font-size: 12px; font-weight: 200;" fill="rgb(50, 49, 63)" stroke="none" stroke-width="1px">1</text><text x="0" y="13.69230769230768" dx="0em" dy="0.3em" style="text-anchor: end; visibility: hidden; font-family: &quot;Helvetica Neue&quot;, sans-serif; font-size: 12px; font-weight: 200;" fill="rgb(50, 49, 63)" stroke="none" stroke-width="1px">1.2</text><text x="0" y="0" dx="0em" dy="0.3em" style="text-anchor: end; visibility: hidden; font-family: &quot;Helvetica Neue&quot;, sans-serif; font-size: 12px; font-weight: 200;" fill="rgb(50, 49, 63)" stroke="none" stroke-width="1px">1.4</text></g><line x1="50" y1="0" x2="50" y2="178" fill="rgb(0, 0, 0)" stroke="rgb(204, 204, 204)" stroke-width="1px"></line></g></g><g transform="translate(50, 0)" clip-path="url(#clip_0)"><clipPath id="clip_0"><rect width="280" height="177"></rect></clipPath><g><g><g><line x1="0" y1="0" x2="0" y2="178" fill="rgb(0, 0, 0)" stroke="rgb(60, 60, 60)" stroke-width="1px" opacity="0.25"></line><line x1="20" y1="0" x2="20" y2="178" fill="rgb(0, 0, 0)" stroke="rgb(60, 60, 60)" stroke-width="1px" opacity="0.25"></line><line x1="40" y1="0" x2="40" y2="178" fill="rgb(0, 0, 0)" stroke="rgb(60, 60, 60)" stroke-width="1px" opacity="0.25"></line><line x1="60" y1="0" x2="60" y2="178" fill="rgb(0, 0, 0)" stroke="rgb(60, 60, 60)" stroke-width="1px" opacity="0.25"></line><line x1="80" y1="0" x2="80" y2="178" fill="rgb(0, 0, 0)" stroke="rgb(60, 60, 60)" stroke-width="1px" opacity="0.25"></line><line x1="100" y1="0" x2="100" y2="178" fill="rgb(0, 0, 0)" stroke="rgb(60, 60, 60)" stroke-width="1px" opacity="0.25"></line><line x1="120" y1="0" x2="120" y2="178" fill="rgb(0, 0, 0)" stroke="rgb(60, 60, 60)" stroke-width="1px" opacity="0.25"></line><line x1="140" y1="0" x2="140" y2="178" fill="rgb(0, 0, 0)" stroke="rgb(60, 60, 60)" stroke-width="1px" opacity="0.25"></line><line x1="160" y1="0" x2="160" y2="178" fill="rgb(0, 0, 0)" stroke="rgb(60, 60, 60)" stroke-width="1px" opacity="0.25"></line><line x1="180" y1="0" x2="180" y2="178" fill="rgb(0, 0, 0)" stroke="rgb(60, 60, 60)" stroke-width="1px" opacity="0.25"></line><line x1="200" y1="0" x2="200" y2="178" fill="rgb(0, 0, 0)" stroke="rgb(60, 60, 60)" stroke-width="1px" opacity="0.25"></line><line x1="220" y1="0" x2="220" y2="178" fill="rgb(0, 0, 0)" stroke="rgb(60, 60, 60)" stroke-width="1px" opacity="0.25"></line><line x1="240" y1="0" x2="240" y2="178" fill="rgb(0, 0, 0)" stroke="rgb(60, 60, 60)" stroke-width="1px" opacity="0.25"></line><line x1="260" y1="0" x2="260" y2="178" fill="rgb(0, 0, 0)" stroke="rgb(60, 60, 60)" stroke-width="1px" opacity="0.25"></line><line x1="280" y1="0" x2="280" y2="178" fill="rgb(0, 0, 0)" stroke="rgb(60, 60, 60)" stroke-width="1px" opacity="0.25"></line></g><g><line x1="0" y1="178" x2="280" y2="178" fill="rgb(0, 0, 0)" stroke="rgb(60, 60, 60)" stroke-width="1px" opacity="0.25"></line><line x1="0" y1="164.30769230769232" x2="280" y2="164.30769230769232" fill="rgb(0, 0, 0)" stroke="rgb(60, 60, 60)" stroke-width="1px" opacity="0.25"></line><line x1="0" y1="150.6153846153846" x2="280" y2="150.6153846153846" fill="rgb(0, 0, 0)" stroke="rgb(60, 60, 60)" stroke-width="1px" opacity="0.25"></line><line x1="0" y1="136.9230769230769" x2="280" y2="136.9230769230769" fill="rgb(0, 0, 0)" stroke="rgb(60, 60, 60)" stroke-width="1px" opacity="0.25"></line><line x1="0" y1="123.23076923076923" x2="280" y2="123.23076923076923" fill="rgb(0, 0, 0)" stroke="rgb(60, 60, 60)" stroke-width="1px" opacity="0.25"></line><line x1="0" y1="109.53846153846152" x2="280" y2="109.53846153846152" fill="rgb(0, 0, 0)" stroke="rgb(60, 60, 60)" stroke-width="1px" opacity="0.25"></line><line x1="0" y1="95.84615384615384" x2="280" y2="95.84615384615384" fill="rgb(0, 0, 0)" stroke="rgb(60, 60, 60)" stroke-width="1px" opacity="0.25"></line><line x1="0" y1="82.15384615384613" x2="280" y2="82.15384615384613" fill="rgb(0, 0, 0)" stroke="rgb(60, 60, 60)" stroke-width="1px" opacity="0.25"></line><line x1="0" y1="68.46153846153844" x2="280" y2="68.46153846153844" fill="rgb(0, 0, 0)" stroke="rgb(60, 60, 60)" stroke-width="1px" opacity="0.25"></line><line x1="0" y1="54.769230769230774" x2="280" y2="54.769230769230774" fill="rgb(0, 0, 0)" stroke="rgb(60, 60, 60)" stroke-width="1px" opacity="0.25"></line><line x1="0" y1="41.07692307692304" x2="280" y2="41.07692307692304" fill="rgb(0, 0, 0)" stroke="rgb(60, 60, 60)" stroke-width="1px" opacity="0.25"></line><line x1="0" y1="27.38461538461536" x2="280" y2="27.38461538461536" fill="rgb(0, 0, 0)" stroke="rgb(60, 60, 60)" stroke-width="1px" opacity="0.25"></line><line x1="0" y1="13.69230769230768" x2="280" y2="13.69230769230768" fill="rgb(0, 0, 0)" stroke="rgb(60, 60, 60)" stroke-width="1px" opacity="0.25"></line><line x1="0" y1="0" x2="280" y2="0" fill="rgb(0, 0, 0)" stroke="rgb(60, 60, 60)" stroke-width="1px" opacity="0.25"></line></g></g></g><g><g><line x1="0" y1="95.84615384615384" x2="280" y2="95.84615384615384" fill="rgb(0, 0, 0)" stroke="rgb(153, 153, 153)" stroke-width="1.5px"></line></g></g><g><g><line x1="20" y1="0" x2="20" y2="178" fill="rgb(0, 0, 0)" stroke="rgb(153, 153, 153)" stroke-width="1.5px"></line></g></g><g><g><g><g><g><path stroke="rgb(0, 119, 187)" stroke-width="2px" d="M20.5,88.99999989798434L20.599999999999998,88.99999989798434L21,88.99999989798434L21.1,88.99999989798434L21.4,88.99999989798434L21.5,88.99999989798434L21.8,88.99999989798434L21.9,88.99999989798434L22,88.99999989798434L22.400000000000002,88.99999989798434L23.3,88.99999989798434L23.599999999999998,88.99999989798434L24,88.99999989798434L24.2,88.99999989798434L24.400000000000002,88.99999989798434L24.5,88.99999989798434L24.7,88.99999989798434L24.9,88.99999989798434L25,88.99999989798434L25.3,88.99999989798434L25.400000000000002,88.99999989798434L25.5,88.99999989798434L25.6,88.99999989798434L25.700000000000003,88.99999989798434L26.3,88.99999989798434L26.5,88.99999989798434L26.6,88.99999989798434L26.700000000000003,88.99999989798434L26.799999999999997,88.99999989798434L27.099999999999998,88.99999989798434L27.2,88.99999989798434L27.3,88.99999989798434L27.4,88.99999989798434L27.9,88.99999989798434L28.4,88.99999989798434L28.7,88.99999989798434L28.8,88.99999989798434L29.4,88.99999989798434L30.2,88.99999989798434L30.5,88.99999989798434L30.6,88.99999989798434L31.299999999999997,88.99999989798434L31.599999999999998,88.99999989798434L31.8,88.99999989798434L32.5,88.99999989798434L32.6,88.99999989798434L32.9,88.99999989798434L33,88.99999989798434L33.7,88.99999989798434L33.9,88.99999989798434L34.1,88.99999989798434L34.199999999999996,88.99999989798434L34.3,88.99999989798434L35,88.99999989798434L35.5,88.99999989798434L35.7,88.99999989798434L35.800000000000004,88.99999989798434L35.900000000000006,88.99999989798434L36.199999999999996,88.99999989798434L36.5,88.99999989798434L36.699999999999996,88.99999989798434L36.8,88.99999989798434L37.1,88.99999989798434L37.7,88.99999989798434L37.800000000000004,88.99999989798434L38,88.99999989798434L38.3,88.99999989798434L38.5,88.99999989798434L38.599999999999994,88.99999989798434L38.8,88.99999989798434L39,88.99999989798434L39.1,88.99999989798434L39.800000000000004,88.99999989798434L40.599999999999994,88.99999989798434L40.699999999999996,88.99999989798434L40.8,88.99999989798434L41.199999999999996,88.99999989798434L42.2,88.99999989798434L42.300000000000004,88.99999989798434L42.5,88.99999989798434L42.699999999999996,88.99999989798434L42.9,88.99999989798434L43.199999999999996,88.99999989798434L43.3,88.99999989798434L43.4,88.99999989798434L43.7,88.99999989798434L44.7,88.99999989798434L44.900000000000006,88.99999989798434L45.5,88.99999989798434L45.8,88.99999989798434L45.9,88.99999989798434L46,88.99999989798434L46.1,88.99999989798434L46.300000000000004,88.99999989798434L46.7,88.99999989798434L46.900000000000006,88.99999989798434L47.099999999999994,88.99999989798434L47.3,88.99999989798434L47.8,88.99999989798434L48.4,88.99999989798434L49.1,88.99999989798434L49.2,88.99999989798434L49.699999999999996,88.99999989798434L49.8,88.99999989798434L49.9,88.99999989798434L50.1,88.99999989798434L50.2,88.99999989798434L50.3,88.99999989798434L50.7,88.99999989798434L50.800000000000004,88.99999989798434L51,88.99999989798434L51.300000000000004,88.99999989798434L51.699999999999996,88.99999989798434L51.8,88.99999989798434L51.9,88.99999989798434L52,88.99999989798434L52.199999999999996,88.99999989798434L52.5,88.99999989798434L52.6,88.99999989798434L52.7,88.99999989798434L53,88.99999989798434L53.300000000000004,88.99999989798434L53.9,88.99999989798434L54.1,88.99999989798434L54.4,88.99999989798434L54.5,88.99999989798434L54.7,88.99999989798434L54.8,88.99999989798434L55.300000000000004,88.99999989798434L55.400000000000006,88.99999989798434L55.8,88.99999989798434L56,88.99999989798434L56.3,88.99999989798434L56.7,88.99999989798434L57.1,88.99999989798434L57.300000000000004,88.99999989798434L57.7,88.99999989798434L57.800000000000004,88.99999989798434L57.900000000000006,88.99999989798434L58.099999999999994,88.99999989798434L58.199999999999996,88.99999989798434L58.6,88.99999989798434L58.699999999999996,88.99999989798434L59.1,88.99999989798434L59.2,88.99999989798434L59.300000000000004,88.99999989798434L60.3,88.99999989798434L60.8,88.99999989798434L61.5,88.99999989798434L61.6,88.99999989798434L62.1,88.99999989798434L62.2,88.99999989798434L62.400000000000006,88.99999989798434L62.599999999999994,88.99999989798434L63,88.99999989798434L63.9,88.99999989798434L64.1,88.99999989798434L64.2,88.99999989798434L64.5,88.99999989798434L65.10000000000001,88.99999989798434L65.8,88.99999989798434L65.89999999999999,88.99999989798434L66,88.99999989798434L66.1,88.99999989798434L66.3,88.99999989798434L66.4,88.99999989798434L66.7,88.99999989798434L66.8,88.99999989798434L67.3,88.99999989798434L67.4,88.99999989798434L68.5,88.99999989798434L68.8,88.99999989798434L68.9,88.99999989798434L69.1,88.99999989798434L69.3,88.99999989798434L69.60000000000001,88.99999989798434L70.7,88.99999989798434L71,88.99999989798434L71.10000000000001,88.99999989798434L71.2,88.99999989798434L71.4,88.99999989798434L71.60000000000001,88.99999989798434L71.7,88.99999989798434L71.9,88.99999989798434L72.39999999999999,88.99999989798434L72.5,88.99999989798434L73.1,88.99999989798434L73.3,88.99999989798434L73.39999999999999,88.99999989798434L73.5,88.99999989798434L73.6,88.99999989798434L73.7,88.99999989798434L73.8,88.99999989798434L74,88.99999989798434L74.1,88.99999989798434L74.2,88.99999989798434L74.7,88.99999989798434L74.8,88.99999989798434L74.9,88.99999989798434L75.10000000000001,88.99999989798434L75.5,88.99999989798434L75.7,88.99999989798434L75.9,88.99999989798434L76.30000000000001,88.99999989798434L76.4,88.99999989798434L76.49999999999999,88.99999989798434L76.89999999999999,88.99999989798434L77.3,88.99999989798434L77.39999999999999,88.99999989798434L77.7,88.99999989798434L77.89999999999999,88.99999989798434L78,88.99999989798434L78.1,88.99999989798434L78.2,88.99999989798434L78.3,88.99999989798434L78.4,88.99999989798434L78.6,88.99999989798434L78.7,88.99999989798434L79.2,88.99999989798434L79.3,88.99999989798434L79.60000000000001,88.99999989798434L79.7,88.99999989798434L80,88.99999989798434L80.2,88.99999989798434L80.60000000000001,88.99999989798434L80.80000000000001,88.99999989798434L81.00000000000001,88.99999989798434L81.19999999999999,88.99999989798434L81.5,88.99999989798434L81.89999999999999,88.99999989798434L82,88.99999989798434L82.2,88.99999989798434L82.5,88.99999989798434L82.9,88.99999989798434L83.4,88.99999989798434L84.10000000000001,88.99999989798434L84.2,88.99999989798434L84.4,88.99999989798434L84.5,88.99999989798434L84.60000000000001,88.99999989798434L84.7,88.99999989798434L84.80000000000001,88.99999989798434L84.9,88.99999989798434L85.19999999999999,88.99999989798434L85.6,88.99999989798434L85.69999999999999,88.99999989798434L86.1,88.99999989798434L86.39999999999999,88.99999989798434L86.6,88.99999989798434L86.8,88.99999989798434L87.1,88.99999989798434L87.2,88.99999989798434L87.3,88.99999989798434L87.4,88.99999989798434L87.5,88.99999989798434L87.7,88.99999989798434L87.8,88.99999989798434L87.9,88.99999989798434L88.10000000000001,88.99999989798434L88.2,88.99999989798434L88.3,88.99999989798434L88.4,88.99999989798434L88.60000000000001,88.99999989798434L88.8,88.99999989798434L88.9,88.99999989798434L89.60000000000001,88.99999989798434L89.89999999999999,88.99999989798434L90,88.99999989798434L90.1,88.99999989798434L90.3,88.99999989798434L90.6,88.99999989798434L90.8,88.99999989798434L91,88.99999989798434L91.39999999999999,88.99999989798434L91.8,88.99999989798434L92.1,88.99999989798434L92.2,88.99999989798434L92.3,88.99999989798434L92.4,88.99999989798434L92.5,88.99999989798434L93,88.99999989798434L93.60000000000001,88.99999989798434L93.80000000000001,88.99999989798434L93.9,88.99999989798434L93.99999999999999,88.99999989798434L94.1,88.99999989798434L94.3,88.99999989798434L94.6,88.99999989798434L94.69999999999999,88.99999989798434L95,88.99999989798434L95.1,88.99999989798434L95.2,88.99999989798434L95.39999999999999,88.99999989798434L95.6,88.99999989798434L96.2,88.99999989798434L96.5,88.99999989798434L96.6,88.99999989798434L96.9,88.99999989798434L97,88.99999989798434L97.10000000000001,88.99999989798434L97.3,88.99999989798434L97.4,88.99999989798434L97.5,88.99999989798434L98,88.99999989798434L98.4,88.99999989798434L98.50000000000001,88.99999989798434L98.69999999999999,88.99999989798434L98.89999999999999,88.99999989798434L99.1,88.99999989798434L99.19999999999999,88.99999989798434L99.3,88.99999989798434L99.39999999999999,88.99999989798434L99.5,88.99999989798434L99.8,88.99999989798434L100,88.99999989798434L100.2,88.99999989798434L100.5,88.99999989798434L100.7,88.99999989798434L100.8,88.99999989798434L100.9,88.99999989798434L101.3,88.99999989798434L101.5,88.99999989798434L101.60000000000001,88.99999989798434L101.8,88.99999989798434L102.10000000000001,88.99999989798434L102.5,88.99999989798434L102.80000000000001,88.99999989798434L103.1,88.99999989798434L103.19999999999999,88.99999989798434L103.39999999999999,88.99999989798434L103.6,88.99999989798434L103.8,88.99999989798434L104.3,88.99999989798434L104.5,88.99999989798434L104.6,88.99999989798434L104.7,88.99999989798434L104.8,88.99999989798434L105.1,88.99999989798434L105.7,88.99999989798434L105.9,88.99999989798434L106,88.99999989798434L106.10000000000001,88.99999989798434L106.3,88.99999989798434L106.7,88.99999989798434L106.9,88.99999989798434L107,88.99999989798434L107.39999999999999,88.99999989798434L107.5,88.99999989798434L107.6,88.99999989798434L107.69999999999999,88.99999989798434L108,88.99999989798434L108.1,88.99999989798434L108.2,88.99999989798434L108.39999999999999,88.99999989798434L108.7,88.99999989798434L108.89999999999999,88.99999989798434L109,88.99999989798434L109.2,88.99999989798434L109.3,88.99999989798434L109.6,88.99999989798434L109.9,88.99999989798434L110,88.99999989798434L110.7,88.99999989798434L110.80000000000001,88.99999989798434L110.9,88.99999989798434L111,88.99999989798434L111.2,88.99999989798434L111.30000000000001,88.99999989798434L111.49999999999999,88.99999989798434L111.6,88.99999989798434L111.69999999999999,88.99999989798434L112,88.99999989798434L112.1,88.99999989798434L112.19999999999999,88.99999989798434L112.3,88.99999989798434L112.5,88.99999989798434L113.1,88.99999989798434L113.2,88.99999989798434L113.5,88.99999989798434L114.2,88.99999989798434L114.5,88.99999989798434L115.2,88.99999989798434L115.30000000000001,88.99999989798434L115.4,88.99999989798434L115.60000000000001,88.99999989798434L115.7,88.99999989798434L115.80000000000001,88.99999989798434L116.1,88.99999989798434L116.19999999999999,88.99999989798434L116.39999999999999,88.99999989798434L116.6,88.99999989798434L116.69999999999999,88.99999989798434L117.1,88.99999989798434L117.2,88.99999989798434L117.6,88.99999989798434L117.7,88.99999989798434L117.8,88.99999989798434L117.9,88.99999989798434L118.2,88.99999989798434L118.3,88.99999989798434L118.4,88.99999989798434L118.7,88.99999989798434L118.8,88.99999989798434L119.60000000000001,88.99999989798434L120,88.99999989798434L120.19999999999999,88.99999989798434L120.39999999999999,88.99999989798434L120.5,88.99999989798434L120.8,88.99999989798434L120.89999999999999,88.99999989798434L121.1,88.99999989798434L121.2,88.99999989798434L121.3,88.99999989798434L121.39999999999999,88.99999989798434L121.7,88.99999989798434L122.5,88.99999989798434L122.7,88.99999989798434L122.9,88.99999989798434L123.10000000000001,88.99999989798434L123.2,88.99999989798434L123.3,88.99999989798434L123.5,88.99999989798434L123.7,88.99999989798434L123.8,88.99999989798434L123.9,88.99999989798434L124.2,88.99999989798434L124.4,88.99999989798434L125.1,88.99999989798434L125.19999999999999,88.99999989798434L125.5,88.99999989798434L125.7,88.99999989798434L126.3,88.99999989798434L126.39999999999999,88.99999989798434L126.6,88.99999989798434L126.8,88.99999989798434L127.2,88.99999989798434L127.60000000000001,88.99999989798434L127.8,88.99999989798434L128,88.99999989798434L128.3,88.99999989798434L128.4,88.99999989798434L128.5,88.99999989798434L128.6,88.99999989798434L129.2,88.99999989798434L129.3,88.99999989798434L129.9,88.99999989798434L130.1,88.99999989798434L130.3,88.99999989798434L130.4,88.99999989798434L130.5,88.99999989798434L131.4,88.99999989798434L131.6,88.99999989798434L131.9,88.99999989798434L132.29999999999998,88.99999989798434L132.5,88.99999989798434L132.6,88.99999989798434L132.7,88.99999989798434L133,88.99999989798434L133.1,88.99999989798434L133.3,88.99999989798434L133.4,88.99999989798434L133.5,88.99999989798434L133.8,88.99999989798434L133.9,88.99999989798434L134.9,88.99999989798434L135.1,88.99999989798434L135.20000000000002,88.99999989798434L135.5,88.99999989798434L135.6,88.99999989798434L135.7,88.99999989798434L136,88.99999989798434L136.1,88.99999989798434L136.2,88.99999989798434L137.7,88.99999989798434L138,88.99999989798434L138.2,88.99999989798434L138.3,88.99999989798434L138.5,88.99999989798434L138.6,88.99999989798434L138.9,88.99999989798434L139.20000000000002,88.99999989798434L139.3,88.99999989798434L139.4,88.99999989798434L139.5,88.99999989798434L139.70000000000002,88.99999989798434L139.9,88.99999989798434L140.1,88.99999989798434L140.3,88.99999989798434L140.4,88.99999989798434L140.6,88.99999989798434L140.8,88.99999989798434L141,88.99999989798434L141.1,88.99999989798434L141.20000000000002,88.99999989798434L141.3,88.99999989798434L141.4,88.99999989798434L142.4,88.99999989798434L142.8,88.99999989798434L143.20000000000002,88.99999989798434L143.3,88.99999989798434L143.4,88.99999989798434L143.60000000000002,88.99999989798434L143.9,88.99999989798434L144.20000000000002,88.99999989798434L144.39999999999998,88.99999989798434L144.60000000000002,88.99999989798434L144.7,88.99999989798434L144.89999999999998,88.99999989798434L145.29999999999998,88.99999989798434L145.39999999999998,88.99999989798434L145.5,88.99999989798434L145.7,88.99999989798434L145.79999999999998,88.99999989798434L146.1,88.99999989798434L146.2,88.99999989798434L146.29999999999998,88.99999989798434L146.4,88.99999989798434L146.6,88.99999989798434L147.1,88.99999989798434L147.2,88.99999989798434L147.4,88.99999989798434L147.79999999999998,88.99999989798434L147.9,88.99999989798434L148.1,88.99999989798434L148.5,88.99999989798434L148.7,88.99999989798434L149.1,88.99999989798434L149.2,88.99999989798434L149.3,88.99999989798434L149.4,88.99999989798434L149.6,88.99999989798434L149.9,88.99999989798434L150,88.99999989798434L150.20000000000002,88.99999989798434L150.3,88.99999989798434L150.4,88.99999989798434L151,88.99999989798434L151.20000000000002,88.99999989798434L151.3,88.99999989798434L151.5,88.99999989798434L151.60000000000002,88.99999989798434L151.9,88.99999989798434L152,88.99999989798434L152.5,88.99999989798434L152.60000000000002,88.99999989798434L152.70000000000002,88.99999989798434L152.99999999999997,88.99999989798434L153.2,88.99999989798434L153.29999999999998,88.99999989798434L153.39999999999998,88.99999989798434L153.5,88.99999989798434L153.6,88.99999989798434L153.7,88.99999989798434L154.29999999999998,88.99999989798434L154.79999999999998,88.99999989798434L154.9,88.99999989798434L155,88.99999989798434L155.1,88.99999989798434L155.5,88.99999989798434L155.9,88.99999989798434L156.1,88.99999989798434L156.2,88.99999989798434L156.6,88.99999989798434L157,88.99999989798434L157.7,88.99999989798434L157.9,88.99999989798434L158.2,88.99999989798434L158.4,88.99999989798434L158.5,88.99999989798434L158.70000000000002,88.99999989798434L158.8,88.99999989798434L158.9,88.99999989798434L159.1,88.99999989798434L159.20000000000002,88.99999989798434L159.5,88.99999989798434L161.20000000000002,88.99999989798434L161.3,88.99999989798434L161.4,88.99999989798434L161.5,88.99999989798434L161.89999999999998,88.99999989798434L162.2,88.99999989798434L162.29999999999998,88.99999989798434L162.6,88.99999989798434L162.7,88.99999989798434L162.79999999999998,88.99999989798434L163.2,88.99999989798434L163.29999999999998,88.99999989798434L163.39999999999998,88.99999989798434L163.6,88.99999989798434L163.7,88.99999989798434L163.79999999999998,88.99999989798434L164,88.99999989798434L164.2,88.99999989798434L164.79999999999998,88.99999989798434L165,88.99999989798434L165.5,88.99999989798434L165.6,88.99999989798434L166.5,88.99999989798434L166.6,88.99999989798434L167.70000000000002,88.99999989798434L168.1,88.99999989798434L168.20000000000002,88.99999989798434L168.5,88.99999989798434L168.6,88.99999989798434L168.9,88.99999989798434L169.10000000000002,88.99999989798434L169.20000000000002,88.99999989798434L169.3,88.99999989798434L170,88.99999989798434L170.10000000000002,88.99999989798434L170.20000000000002,88.99999989798434L170.3,88.99999989798434L170.49999999999997,88.99999989798434L170.60000000000002,88.99999989798434L170.79999999999998,88.99999989798434L170.89999999999998,88.99999989798434L171,88.99999989798434L171.1,88.99999989798434L171.6,88.99999989798434L171.79999999999998,88.99999989798434L172.29999999999998,88.99999989798434L172.4,88.99999989798434L172.7,88.99999989798434L173.4,88.99999989798434L173.6,88.99999989798434L174.6,88.99999989798434L174.8,88.99999989798434L174.9,88.99999989798434L175.1,88.99999989798434L175.2,88.99999989798434L175.4,88.99999989798434L175.5,88.99999989798434L176.1,88.99999989798434L176.20000000000002,88.99999989798434L176.8,88.99999989798434L176.9,88.99999989798434L177.8,88.99999989798434L178.20000000000002,88.99999989798434L178.4,88.99999989798434L178.8,88.99999989798434L179.39999999999998,88.99999989798434L179.60000000000002,88.99999989798434L179.7,88.99999989798434L179.89999999999998,88.99999989798434L180.2,88.99999989798434L180.39999999999998,88.99999989798434L180.5,88.99999989798434L180.89999999999998,88.99999989798434L181,88.99999989798434L181.2,88.99999989798434L181.29999999999998,88.99999989798434L181.4,88.99999989798434L181.5,88.99999989798434L181.79999999999998,88.99999989798434L181.9,88.99999989798434L182,88.99999989798434L182.4,88.99999989798434L182.6,88.99999989798434L182.7,88.99999989798434L182.79999999999998,88.99999989798434L183,88.99999989798434L183.2,88.99999989798434L183.4,88.99999989798434L183.7,88.99999989798434L184,88.99999989798434L184.1,88.99999989798434L184.2,88.99999989798434L184.5,88.99999989798434L184.70000000000002,88.99999989798434L184.8,88.99999989798434L185.1,88.99999989798434L185.20000000000002,88.99999989798434L185.5,88.99999989798434L185.8,88.99999989798434L185.9,88.99999989798434L186,88.99999989798434L186.1,88.99999989798434L186.4,88.99999989798434L186.8,88.99999989798434L187,88.99999989798434L187.10000000000002,88.99999989798434L187.20000000000002,88.99999989798434L187.5,88.99999989798434L187.60000000000002,88.99999989798434L187.8,88.99999989798434L188.2,88.99999989798434L188.29999999999998,88.99999989798434L188.39999999999998,88.99999989798434L188.7,88.99999989798434L189.1,88.99999989798434L189.2,88.99999989798434L189.39999999999998,88.99999989798434L189.5,88.99999989798434L189.6,88.99999989798434L189.7,88.99999989798434L189.9,88.99999989798434L190.2,88.99999989798434L190.29999999999998,88.99999989798434L190.4,88.99999989798434L190.5,88.99999989798434L190.9,88.99999989798434L191,88.99999989798434L191.5,88.99999989798434L191.7,88.99999989798434L191.8,88.99999989798434L191.9,88.99999989798434L192.3,88.99999989798434L192.6,88.99999989798434L192.8,88.99999989798434L193.1,88.99999989798434L193.2,88.99999989798434L193.3,88.99999989798434L193.4,88.99999989798434L193.5,88.99999989798434L193.70000000000002,88.99999989798434L193.9,88.99999989798434L194.20000000000002,88.99999989798434L194.3,88.99999989798434L194.5,88.99999989798434L194.6,88.99999989798434L194.70000000000002,88.99999989798434L195,88.99999989798434L195.20000000000002,88.99999989798434L195.3,88.99999989798434L195.4,88.99999989798434L195.5,88.99999989798434L196.20000000000002,88.99999989798434L196.3,88.99999989798434L196.60000000000002,88.99999989798434L197.10000000000002,88.99999989798434L197.5,88.99999989798434L197.7,88.99999989798434L198.1,88.99999989798434L198.2,88.99999989798434L198.39999999999998,88.99999989798434L198.79999999999998,88.99999989798434L198.9,88.99999989798434L199,88.99999989798434L199.2,88.99999989798434L199.29999999999998,88.99999989798434L199.4,88.99999989798434L199.79999999999998,88.99999989798434L200.2,88.99999989798434L200.4,88.99999989798434L200.5,88.99999989798434L200.7,88.99999989798434L201.3,88.99999989798434L201.4,88.99999989798434L201.7,88.99999989798434L202,88.99999989798434L202.4,88.99999989798434L202.6,88.99999989798434L203,88.99999989798434L203.4,88.99999989798434L203.5,88.99999989798434L203.6,88.99999989798434L204,88.99999989798434L204.10000000000002,88.99999989798434L204.4,88.99999989798434L204.5,88.99999989798434L204.60000000000002,88.99999989798434L204.9,88.99999989798434L205.20000000000002,88.99999989798434L205.3,88.99999989798434L205.49999999999997,88.99999989798434L205.7,88.99999989798434L205.79999999999998,88.99999989798434L205.89999999999998,88.99999989798434L206.6,88.99999989798434L206.79999999999998,88.99999989798434L206.89999999999998,88.99999989798434L207.5,88.99999989798434L207.6,88.99999989798434L207.7,88.99999989798434L207.79999999999998,88.99999989798434L207.9,88.99999989798434L208.1,88.99999989798434L208.4,88.99999989798434L209.1,88.99999989798434L209.2,88.99999989798434L209.3,88.99999989798434L210.2,88.99999989798434L210.5,88.99999989798434L210.6,88.99999989798434L210.9,88.99999989798434L211,88.99999989798434L211.1,88.99999989798434L211.20000000000002,88.99999989798434L211.3,88.99999989798434L211.6,88.99999989798434L211.70000000000002,88.99999989798434L211.8,88.99999989798434L211.9,88.99999989798434L212.3,88.99999989798434L212.4,88.99999989798434L212.5,88.99999989798434L212.8,88.99999989798434L213,88.99999989798434L213.20000000000002,88.99999989798434L213.4,88.99999989798434L213.5,88.99999989798434L213.60000000000002,88.99999989798434L213.8,88.99999989798434L213.9,88.99999989798434L214.39999999999998,88.99999989798434L214.7,88.99999989798434L214.89999999999998,88.99999989798434L215.2,88.99999989798434L215.5,88.99999989798434L215.6,88.99999989798434L215.79999999999998,88.99999989798434L216,88.99999989798434L216.6,88.99999989798434L216.7,88.99999989798434L216.9,88.99999989798434L217.1,88.99999989798434L217.6,88.99999989798434L218,88.99999989798434L218.1,88.99999989798434L218.2,88.99999989798434L218.3,88.99999989798434L219.5,88.99999989798434L219.70000000000002,88.99999989798434L219.9,88.99999989798434L220.1,88.99999989798434L220.5,88.99999989798434L220.6,88.99999989798434L220.70000000000002,88.99999989798434L220.8,88.99999989798434L220.9,88.99999989798434L221,88.99999989798434L221.1,88.99999989798434L221.3,88.99999989798434L221.4,88.99999989798434L221.5,88.99999989798434L221.70000000000002,88.99999989798434L222.20000000000002,88.99999989798434L222.5,88.99999989798434L222.70000000000002,88.99999989798434L222.8,88.99999989798434L222.99999999999997,88.99999989798434L223.29999999999998,88.99999989798434L223.6,88.99999989798434L223.79999999999998,88.99999989798434L224.1,88.99999989798434L224.2,88.99999989798434L224.39999999999998,88.99999989798434L224.5,88.99999989798434L224.79999999999998,88.99999989798434L225,88.99999989798434L225.1,88.99999989798434L225.9,88.99999989798434L226,88.99999989798434L226.2,88.99999989798434L226.7,88.99999989798434L227.2,88.99999989798434L227.3,88.99999989798434L227.4,88.99999989798434L227.6,88.99999989798434L227.7,88.99999989798434L227.9,88.99999989798434L228.1,88.99999989798434L228.4,88.99999989798434L228.5,88.99999989798434L228.9,88.99999989798434L229.4,88.99999989798434L229.6,88.99999989798434L230.20000000000002,88.99999989798434L230.3,88.99999989798434L230.4,88.99999989798434L230.5,88.99999989798434L230.60000000000002,88.99999989798434L230.9,88.99999989798434L231.10000000000002,88.99999989798434L231.4,88.99999989798434L231.5,88.99999989798434L231.8,88.99999989798434L232.00000000000003,88.99999989798434L232.2,88.99999989798434L232.29999999999998,88.99999989798434L232.39999999999998,88.99999989798434L232.79999999999998,88.99999989798434L233.2,88.99999989798434L233.29999999999998,88.99999989798434L233.39999999999998,88.99999989798434L233.79999999999998,88.99999989798434L233.9,88.99999989798434L234.1,88.99999989798434L234.2,88.99999989798434L234.4,88.99999989798434L234.5,88.99999989798434L234.6,88.99999989798434L234.79999999999998,88.99999989798434L234.9,88.99999989798434L235,88.99999989798434L235.1,88.99999989798434L235.4,88.99999989798434L235.6,88.99999989798434L235.7,88.99999989798434L236.3,88.99999989798434L236.4,88.99999989798434L236.5,88.99999989798434L236.9,88.99999989798434L237.1,88.99999989798434L237.3,88.99999989798434L237.70000000000002,88.99999989798434L238.4,88.99999989798434L238.70000000000002,88.99999989798434L238.9,88.99999989798434L239.10000000000002,88.99999989798434L239.20000000000002,88.99999989798434L239.4,88.99999989798434L239.60000000000002,88.99999989798434L239.8,88.99999989798434L239.9,88.99999989798434L240,88.99999989798434L240.3,88.99999989798434L240.39999999999998,88.99999989798434L240.7,88.99999989798434L240.79999999999998,88.99999989798434L241.1,88.99999989798434L241.39999999999998,88.99999989798434L241.79999999999998,88.99999989798434L242.4,88.99999989798434L242.5,88.99999989798434L242.79999999999998,88.99999989798434L242.9,88.99999989798434L243.1,88.99999989798434L243.29999999999998,88.99999989798434L243.4,88.99999989798434L243.6,88.99999989798434L243.7,88.99999989798434L243.9,88.99999989798434L244,88.99999989798434L244.1,88.99999989798434L244.2,88.99999989798434L244.4,88.99999989798434L244.6,88.99999989798434L244.7,88.99999989798434L245.1,88.99999989798434L245.2,88.99999989798434L245.4,88.99999989798434L245.7,88.99999989798434L245.9,88.99999989798434L246.20000000000002,88.99999989798434L246.8,88.99999989798434L247.4,88.99999989798434L247.8,88.99999989798434L248.10000000000002,88.99999989798434L248.60000000000002,88.99999989798434L248.8,88.99999989798434L249.10000000000002,88.99999989798434L249.7,88.99999989798434L249.79999999999998,88.99999989798434L250,88.99999989798434L250.29999999999998,88.99999989798434L250.6,88.99999989798434L250.7,88.99999989798434L250.79999999999998,88.99999989798434L251.7,88.99999989798434L251.79999999999998,88.99999989798434L251.9,88.99999989798434L252,88.99999989798434L252.2,88.99999989798434L252.4,88.99999989798434L252.7,88.99999989798434L252.79999999999998,88.99999989798434L253.2,88.99999989798434L253.4,88.99999989798434L253.5,88.99999989798434L253.6,88.99999989798434L253.7,88.99999989798434L254.5,88.99999989798434L255.4,88.99999989798434L255.6,88.99999989798434L255.9,88.99999989798434L256.4,88.99999989798434L256.7,88.99999989798434L256.8,88.99999989798434L257.1,88.99999989798434L257.2,88.99999989798434L257.5,88.99999989798434L257.8,88.99999989798434L258,88.99999989798434L258.2,88.99999989798434L258.5,88.99999989798434L258.8,88.99999989798434L258.9,88.99999989798434L259,88.99999989798434L259.2,88.99999989798434L260,88.99999989798434L260.2,88.99999989798434L260.40000000000003,88.99999989798434L260.6,88.99999989798434L261.1,88.99999989798434L261.6,88.99999989798434L262,88.99999989798434L262.40000000000003,88.99999989798434L262.5,88.99999989798434L262.59999999999997,88.99999989798434" style="fill: none;" fill="none"></path></g></g></g></g><g opacity="0.2"><g><g><g><path style="fill: none;" stroke="rgb(0, 119, 187)" stroke-width="2px" d="M20.5,88.99999989798434L20.599999999999998,88.99999989798434L21,88.99999989798434L21.1,88.99999989798434L21.4,88.99999989798434L21.5,88.99999989798434L21.8,88.99999989798434L21.9,88.99999989798434L22,88.99999989798434L22.400000000000002,88.99999989798434L23.3,88.99999989798434L23.599999999999998,88.99999989798434L24,88.99999989798434L24.2,88.99999989798434L24.400000000000002,88.99999989798434L24.5,88.99999989798434L24.7,88.99999989798434L24.9,88.99999989798434L25,88.99999989798434L25.3,88.99999989798434L25.400000000000002,88.99999989798434L25.5,88.99999989798434L25.6,88.99999989798434L25.700000000000003,88.99999989798434L26.3,88.99999989798434L26.5,88.99999989798434L26.6,88.99999989798434L26.700000000000003,88.99999989798434L26.799999999999997,88.99999989798434L27.099999999999998,88.99999989798434L27.2,88.99999989798434L27.3,88.99999989798434L27.4,88.99999989798434L27.9,88.99999989798434L28.4,88.99999989798434L28.7,88.99999989798434L28.8,88.99999989798434L29.4,88.99999989798434L30.2,88.99999989798434L30.5,88.99999989798434L30.6,88.99999989798434L31.299999999999997,88.99999989798434L31.599999999999998,88.99999989798434L31.8,88.99999989798434L32.5,88.99999989798434L32.6,88.99999989798434L32.9,88.99999989798434L33,88.99999989798434L33.7,88.99999989798434L33.9,88.99999989798434L34.1,88.99999989798434L34.199999999999996,88.99999989798434L34.3,88.99999989798434L35,88.99999989798434L35.5,88.99999989798434L35.7,88.99999989798434L35.800000000000004,88.99999989798434L35.900000000000006,88.99999989798434L36.199999999999996,88.99999989798434L36.5,88.99999989798434L36.699999999999996,88.99999989798434L36.8,88.99999989798434L37.1,88.99999989798434L37.7,88.99999989798434L37.800000000000004,88.99999989798434L38,88.99999989798434L38.3,88.99999989798434L38.5,88.99999989798434L38.599999999999994,88.99999989798434L38.8,88.99999989798434L39,88.99999989798434L39.1,88.99999989798434L39.800000000000004,88.99999989798434L40.599999999999994,88.99999989798434L40.699999999999996,88.99999989798434L40.8,88.99999989798434L41.199999999999996,88.99999989798434L42.2,88.99999989798434L42.300000000000004,88.99999989798434L42.5,88.99999989798434L42.699999999999996,88.99999989798434L42.9,88.99999989798434L43.199999999999996,88.99999989798434L43.3,88.99999989798434L43.4,88.99999989798434L43.7,88.99999989798434L44.7,88.99999989798434L44.900000000000006,88.99999989798434L45.5,88.99999989798434L45.8,88.99999989798434L45.9,88.99999989798434L46,88.99999989798434L46.1,88.99999989798434L46.300000000000004,88.99999989798434L46.7,88.99999989798434L46.900000000000006,88.99999989798434L47.099999999999994,88.99999989798434L47.3,88.99999989798434L47.8,88.99999989798434L48.4,88.99999989798434L49.1,88.99999989798434L49.2,88.99999989798434L49.699999999999996,88.99999989798434L49.8,88.99999989798434L49.9,88.99999989798434L50.1,88.99999989798434L50.2,88.99999989798434L50.3,88.99999989798434L50.7,88.99999989798434L50.800000000000004,88.99999989798434L51,88.99999989798434L51.300000000000004,88.99999989798434L51.699999999999996,88.99999989798434L51.8,88.99999989798434L51.9,88.99999989798434L52,88.99999989798434L52.199999999999996,88.99999989798434L52.5,88.99999989798434L52.6,88.99999989798434L52.7,88.99999989798434L53,88.99999989798434L53.300000000000004,88.99999989798434L53.9,88.99999989798434L54.1,88.99999989798434L54.4,88.99999989798434L54.5,88.99999989798434L54.7,88.99999989798434L54.8,88.99999989798434L55.300000000000004,88.99999989798434L55.400000000000006,88.99999989798434L55.8,88.99999989798434L56,88.99999989798434L56.3,88.99999989798434L56.7,88.99999989798434L57.1,88.99999989798434L57.300000000000004,88.99999989798434L57.7,88.99999989798434L57.800000000000004,88.99999989798434L57.900000000000006,88.99999989798434L58.099999999999994,88.99999989798434L58.199999999999996,88.99999989798434L58.6,88.99999989798434L58.699999999999996,88.99999989798434L59.1,88.99999989798434L59.2,88.99999989798434L59.300000000000004,88.99999989798434L60.3,88.99999989798434L60.8,88.99999989798434L61.5,88.99999989798434L61.6,88.99999989798434L62.1,88.99999989798434L62.2,88.99999989798434L62.400000000000006,88.99999989798434L62.599999999999994,88.99999989798434L63,88.99999989798434L63.9,88.99999989798434L64.1,88.99999989798434L64.2,88.99999989798434L64.5,88.99999989798434L65.10000000000001,88.99999989798434L65.8,88.99999989798434L65.89999999999999,88.99999989798434L66,88.99999989798434L66.1,88.99999989798434L66.3,88.99999989798434L66.4,88.99999989798434L66.7,88.99999989798434L66.8,88.99999989798434L67.3,88.99999989798434L67.4,88.99999989798434L68.5,88.99999989798434L68.8,88.99999989798434L68.9,88.99999989798434L69.1,88.99999989798434L69.3,88.99999989798434L69.60000000000001,88.99999989798434L70.7,88.99999989798434L71,88.99999989798434L71.10000000000001,88.99999989798434L71.2,88.99999989798434L71.4,88.99999989798434L71.60000000000001,88.99999989798434L71.7,88.99999989798434L71.9,88.99999989798434L72.39999999999999,88.99999989798434L72.5,88.99999989798434L73.1,88.99999989798434L73.3,88.99999989798434L73.39999999999999,88.99999989798434L73.5,88.99999989798434L73.6,88.99999989798434L73.7,88.99999989798434L73.8,88.99999989798434L74,88.99999989798434L74.1,88.99999989798434L74.2,88.99999989798434L74.7,88.99999989798434L74.8,88.99999989798434L74.9,88.99999989798434L75.10000000000001,88.99999989798434L75.5,88.99999989798434L75.7,88.99999989798434L75.9,88.99999989798434L76.30000000000001,88.99999989798434L76.4,88.99999989798434L76.49999999999999,88.99999989798434L76.89999999999999,88.99999989798434L77.3,88.99999989798434L77.39999999999999,88.99999989798434L77.7,88.99999989798434L77.89999999999999,88.99999989798434L78,88.99999989798434L78.1,88.99999989798434L78.2,88.99999989798434L78.3,88.99999989798434L78.4,88.99999989798434L78.6,88.99999989798434L78.7,88.99999989798434L79.2,88.99999989798434L79.3,88.99999989798434L79.60000000000001,88.99999989798434L79.7,88.99999989798434L80,88.99999989798434L80.2,88.99999989798434L80.60000000000001,88.99999989798434L80.80000000000001,88.99999989798434L81.00000000000001,88.99999989798434L81.19999999999999,88.99999989798434L81.5,88.99999989798434L81.89999999999999,88.99999989798434L82,88.99999989798434L82.2,88.99999989798434L82.5,88.99999989798434L82.9,88.99999989798434L83.4,88.99999989798434L84.10000000000001,88.99999989798434L84.2,88.99999989798434L84.4,88.99999989798434L84.5,88.99999989798434L84.60000000000001,88.99999989798434L84.7,88.99999989798434L84.80000000000001,88.99999989798434L84.9,88.99999989798434L85.19999999999999,88.99999989798434L85.6,88.99999989798434L85.69999999999999,88.99999989798434L86.1,88.99999989798434L86.39999999999999,88.99999989798434L86.6,88.99999989798434L86.8,88.99999989798434L87.1,88.99999989798434L87.2,88.99999989798434L87.3,88.99999989798434L87.4,88.99999989798434L87.5,88.99999989798434L87.7,88.99999989798434L87.8,88.99999989798434L87.9,88.99999989798434L88.10000000000001,88.99999989798434L88.2,88.99999989798434L88.3,88.99999989798434L88.4,88.99999989798434L88.60000000000001,88.99999989798434L88.8,88.99999989798434L88.9,88.99999989798434L89.60000000000001,88.99999989798434L89.89999999999999,88.99999989798434L90,88.99999989798434L90.1,88.99999989798434L90.3,88.99999989798434L90.6,88.99999989798434L90.8,88.99999989798434L91,88.99999989798434L91.39999999999999,88.99999989798434L91.8,88.99999989798434L92.1,88.99999989798434L92.2,88.99999989798434L92.3,88.99999989798434L92.4,88.99999989798434L92.5,88.99999989798434L93,88.99999989798434L93.60000000000001,88.99999989798434L93.80000000000001,88.99999989798434L93.9,88.99999989798434L93.99999999999999,88.99999989798434L94.1,88.99999989798434L94.3,88.99999989798434L94.6,88.99999989798434L94.69999999999999,88.99999989798434L95,88.99999989798434L95.1,88.99999989798434L95.2,88.99999989798434L95.39999999999999,88.99999989798434L95.6,88.99999989798434L96.2,88.99999989798434L96.5,88.99999989798434L96.6,88.99999989798434L96.9,88.99999989798434L97,88.99999989798434L97.10000000000001,88.99999989798434L97.3,88.99999989798434L97.4,88.99999989798434L97.5,88.99999989798434L98,88.99999989798434L98.4,88.99999989798434L98.50000000000001,88.99999989798434L98.69999999999999,88.99999989798434L98.89999999999999,88.99999989798434L99.1,88.99999989798434L99.19999999999999,88.99999989798434L99.3,88.99999989798434L99.39999999999999,88.99999989798434L99.5,88.99999989798434L99.8,88.99999989798434L100,88.99999989798434L100.2,88.99999989798434L100.5,88.99999989798434L100.7,88.99999989798434L100.8,88.99999989798434L100.9,88.99999989798434L101.3,88.99999989798434L101.5,88.99999989798434L101.60000000000001,88.99999989798434L101.8,88.99999989798434L102.10000000000001,88.99999989798434L102.5,88.99999989798434L102.80000000000001,88.99999989798434L103.1,88.99999989798434L103.19999999999999,88.99999989798434L103.39999999999999,88.99999989798434L103.6,88.99999989798434L103.8,88.99999989798434L104.3,88.99999989798434L104.5,88.99999989798434L104.6,88.99999989798434L104.7,88.99999989798434L104.8,88.99999989798434L105.1,88.99999989798434L105.7,88.99999989798434L105.9,88.99999989798434L106,88.99999989798434L106.10000000000001,88.99999989798434L106.3,88.99999989798434L106.7,88.99999989798434L106.9,88.99999989798434L107,88.99999989798434L107.39999999999999,88.99999989798434L107.5,88.99999989798434L107.6,88.99999989798434L107.69999999999999,88.99999989798434L108,88.99999989798434L108.1,88.99999989798434L108.2,88.99999989798434L108.39999999999999,88.99999989798434L108.7,88.99999989798434L108.89999999999999,88.99999989798434L109,88.99999989798434L109.2,88.99999989798434L109.3,88.99999989798434L109.6,88.99999989798434L109.9,88.99999989798434L110,88.99999989798434L110.7,88.99999989798434L110.80000000000001,88.99999989798434L110.9,88.99999989798434L111,88.99999989798434L111.2,88.99999989798434L111.30000000000001,88.99999989798434L111.49999999999999,88.99999989798434L111.6,88.99999989798434L111.69999999999999,88.99999989798434L112,88.99999989798434L112.1,88.99999989798434L112.19999999999999,88.99999989798434L112.3,88.99999989798434L112.5,88.99999989798434L113.1,88.99999989798434L113.2,88.99999989798434L113.5,88.99999989798434L114.2,88.99999989798434L114.5,88.99999989798434L115.2,88.99999989798434L115.30000000000001,88.99999989798434L115.4,88.99999989798434L115.60000000000001,88.99999989798434L115.7,88.99999989798434L115.80000000000001,88.99999989798434L116.1,88.99999989798434L116.19999999999999,88.99999989798434L116.39999999999999,88.99999989798434L116.6,88.99999989798434L116.69999999999999,88.99999989798434L117.1,88.99999989798434L117.2,88.99999989798434L117.6,88.99999989798434L117.7,88.99999989798434L117.8,88.99999989798434L117.9,88.99999989798434L118.2,88.99999989798434L118.3,88.99999989798434L118.4,88.99999989798434L118.7,88.99999989798434L118.8,88.99999989798434L119.60000000000001,88.99999989798434L120,88.99999989798434L120.19999999999999,88.99999989798434L120.39999999999999,88.99999989798434L120.5,88.99999989798434L120.8,88.99999989798434L120.89999999999999,88.99999989798434L121.1,88.99999989798434L121.2,88.99999989798434L121.3,88.99999989798434L121.39999999999999,88.99999989798434L121.7,88.99999989798434L122.5,88.99999989798434L122.7,88.99999989798434L122.9,88.99999989798434L123.10000000000001,88.99999989798434L123.2,88.99999989798434L123.3,88.99999989798434L123.5,88.99999989798434L123.7,88.99999989798434L123.8,88.99999989798434L123.9,88.99999989798434L124.2,88.99999989798434L124.4,88.99999989798434L125.1,88.99999989798434L125.19999999999999,88.99999989798434L125.5,88.99999989798434L125.7,88.99999989798434L126.3,88.99999989798434L126.39999999999999,88.99999989798434L126.6,88.99999989798434L126.8,88.99999989798434L127.2,88.99999989798434L127.60000000000001,88.99999989798434L127.8,88.99999989798434L128,88.99999989798434L128.3,88.99999989798434L128.4,88.99999989798434L128.5,88.99999989798434L128.6,88.99999989798434L129.2,88.99999989798434L129.3,88.99999989798434L129.9,88.99999989798434L130.1,88.99999989798434L130.3,88.99999989798434L130.4,88.99999989798434L130.5,88.99999989798434L131.4,88.99999989798434L131.6,88.99999989798434L131.9,88.99999989798434L132.29999999999998,88.99999989798434L132.5,88.99999989798434L132.6,88.99999989798434L132.7,88.99999989798434L133,88.99999989798434L133.1,88.99999989798434L133.3,88.99999989798434L133.4,88.99999989798434L133.5,88.99999989798434L133.8,88.99999989798434L133.9,88.99999989798434L134.9,88.99999989798434L135.1,88.99999989798434L135.20000000000002,88.99999989798434L135.5,88.99999989798434L135.6,88.99999989798434L135.7,88.99999989798434L136,88.99999989798434L136.1,88.99999989798434L136.2,88.99999989798434L137.7,88.99999989798434L138,88.99999989798434L138.2,88.99999989798434L138.3,88.99999989798434L138.5,88.99999989798434L138.6,88.99999989798434L138.9,88.99999989798434L139.20000000000002,88.99999989798434L139.3,88.99999989798434L139.4,88.99999989798434L139.5,88.99999989798434L139.70000000000002,88.99999989798434L139.9,88.99999989798434L140.1,88.99999989798434L140.3,88.99999989798434L140.4,88.99999989798434L140.6,88.99999989798434L140.8,88.99999989798434L141,88.99999989798434L141.1,88.99999989798434L141.20000000000002,88.99999989798434L141.3,88.99999989798434L141.4,88.99999989798434L142.4,88.99999989798434L142.8,88.99999989798434L143.20000000000002,88.99999989798434L143.3,88.99999989798434L143.4,88.99999989798434L143.60000000000002,88.99999989798434L143.9,88.99999989798434L144.20000000000002,88.99999989798434L144.39999999999998,88.99999989798434L144.60000000000002,88.99999989798434L144.7,88.99999989798434L144.89999999999998,88.99999989798434L145.29999999999998,88.99999989798434L145.39999999999998,88.99999989798434L145.5,88.99999989798434L145.7,88.99999989798434L145.79999999999998,88.99999989798434L146.1,88.99999989798434L146.2,88.99999989798434L146.29999999999998,88.99999989798434L146.4,88.99999989798434L146.6,88.99999989798434L147.1,88.99999989798434L147.2,88.99999989798434L147.4,88.99999989798434L147.79999999999998,88.99999989798434L147.9,88.99999989798434L148.1,88.99999989798434L148.5,88.99999989798434L148.7,88.99999989798434L149.1,88.99999989798434L149.2,88.99999989798434L149.3,88.99999989798434L149.4,88.99999989798434L149.6,88.99999989798434L149.9,88.99999989798434L150,88.99999989798434L150.20000000000002,88.99999989798434L150.3,88.99999989798434L150.4,88.99999989798434L151,88.99999989798434L151.20000000000002,88.99999989798434L151.3,88.99999989798434L151.5,88.99999989798434L151.60000000000002,88.99999989798434L151.9,88.99999989798434L152,88.99999989798434L152.5,88.99999989798434L152.60000000000002,88.99999989798434L152.70000000000002,88.99999989798434L152.99999999999997,88.99999989798434L153.2,88.99999989798434L153.29999999999998,88.99999989798434L153.39999999999998,88.99999989798434L153.5,88.99999989798434L153.6,88.99999989798434L153.7,88.99999989798434L154.29999999999998,88.99999989798434L154.79999999999998,88.99999989798434L154.9,88.99999989798434L155,88.99999989798434L155.1,88.99999989798434L155.5,88.99999989798434L155.9,88.99999989798434L156.1,88.99999989798434L156.2,88.99999989798434L156.6,88.99999989798434L157,88.99999989798434L157.7,88.99999989798434L157.9,88.99999989798434L158.2,88.99999989798434L158.4,88.99999989798434L158.5,88.99999989798434L158.70000000000002,88.99999989798434L158.8,88.99999989798434L158.9,88.99999989798434L159.1,88.99999989798434L159.20000000000002,88.99999989798434L159.5,88.99999989798434L161.20000000000002,88.99999989798434L161.3,88.99999989798434L161.4,88.99999989798434L161.5,88.99999989798434L161.89999999999998,88.99999989798434L162.2,88.99999989798434L162.29999999999998,88.99999989798434L162.6,88.99999989798434L162.7,88.99999989798434L162.79999999999998,88.99999989798434L163.2,88.99999989798434L163.29999999999998,88.99999989798434L163.39999999999998,88.99999989798434L163.6,88.99999989798434L163.7,88.99999989798434L163.79999999999998,88.99999989798434L164,88.99999989798434L164.2,88.99999989798434L164.79999999999998,88.99999989798434L165,88.99999989798434L165.5,88.99999989798434L165.6,88.99999989798434L166.5,88.99999989798434L166.6,88.99999989798434L167.70000000000002,88.99999989798434L168.1,88.99999989798434L168.20000000000002,88.99999989798434L168.5,88.99999989798434L168.6,88.99999989798434L168.9,88.99999989798434L169.10000000000002,88.99999989798434L169.20000000000002,88.99999989798434L169.3,88.99999989798434L170,88.99999989798434L170.10000000000002,88.99999989798434L170.20000000000002,88.99999989798434L170.3,88.99999989798434L170.49999999999997,88.99999989798434L170.60000000000002,88.99999989798434L170.79999999999998,88.99999989798434L170.89999999999998,88.99999989798434L171,88.99999989798434L171.1,88.99999989798434L171.6,88.99999989798434L171.79999999999998,88.99999989798434L172.29999999999998,88.99999989798434L172.4,88.99999989798434L172.7,88.99999989798434L173.4,88.99999989798434L173.6,88.99999989798434L174.6,88.99999989798434L174.8,88.99999989798434L174.9,88.99999989798434L175.1,88.99999989798434L175.2,88.99999989798434L175.4,88.99999989798434L175.5,88.99999989798434L176.1,88.99999989798434L176.20000000000002,88.99999989798434L176.8,88.99999989798434L176.9,88.99999989798434L177.8,88.99999989798434L178.20000000000002,88.99999989798434L178.4,88.99999989798434L178.8,88.99999989798434L179.39999999999998,88.99999989798434L179.60000000000002,88.99999989798434L179.7,88.99999989798434L179.89999999999998,88.99999989798434L180.2,88.99999989798434L180.39999999999998,88.99999989798434L180.5,88.99999989798434L180.89999999999998,88.99999989798434L181,88.99999989798434L181.2,88.99999989798434L181.29999999999998,88.99999989798434L181.4,88.99999989798434L181.5,88.99999989798434L181.79999999999998,88.99999989798434L181.9,88.99999989798434L182,88.99999989798434L182.4,88.99999989798434L182.6,88.99999989798434L182.7,88.99999989798434L182.79999999999998,88.99999989798434L183,88.99999989798434L183.2,88.99999989798434L183.4,88.99999989798434L183.7,88.99999989798434L184,88.99999989798434L184.1,88.99999989798434L184.2,88.99999989798434L184.5,88.99999989798434L184.70000000000002,88.99999989798434L184.8,88.99999989798434L185.1,88.99999989798434L185.20000000000002,88.99999989798434L185.5,88.99999989798434L185.8,88.99999989798434L185.9,88.99999989798434L186,88.99999989798434L186.1,88.99999989798434L186.4,88.99999989798434L186.8,88.99999989798434L187,88.99999989798434L187.10000000000002,88.99999989798434L187.20000000000002,88.99999989798434L187.5,88.99999989798434L187.60000000000002,88.99999989798434L187.8,88.99999989798434L188.2,88.99999989798434L188.29999999999998,88.99999989798434L188.39999999999998,88.99999989798434L188.7,88.99999989798434L189.1,88.99999989798434L189.2,88.99999989798434L189.39999999999998,88.99999989798434L189.5,88.99999989798434L189.6,88.99999989798434L189.7,88.99999989798434L189.9,88.99999989798434L190.2,88.99999989798434L190.29999999999998,88.99999989798434L190.4,88.99999989798434L190.5,88.99999989798434L190.9,88.99999989798434L191,88.99999989798434L191.5,88.99999989798434L191.7,88.99999989798434L191.8,88.99999989798434L191.9,88.99999989798434L192.3,88.99999989798434L192.6,88.99999989798434L192.8,88.99999989798434L193.1,88.99999989798434L193.2,88.99999989798434L193.3,88.99999989798434L193.4,88.99999989798434L193.5,88.99999989798434L193.70000000000002,88.99999989798434L193.9,88.99999989798434L194.20000000000002,88.99999989798434L194.3,88.99999989798434L194.5,88.99999989798434L194.6,88.99999989798434L194.70000000000002,88.99999989798434L195,88.99999989798434L195.20000000000002,88.99999989798434L195.3,88.99999989798434L195.4,88.99999989798434L195.5,88.99999989798434L196.20000000000002,88.99999989798434L196.3,88.99999989798434L196.60000000000002,88.99999989798434L197.10000000000002,88.99999989798434L197.5,88.99999989798434L197.7,88.99999989798434L198.1,88.99999989798434L198.2,88.99999989798434L198.39999999999998,88.99999989798434L198.79999999999998,88.99999989798434L198.9,88.99999989798434L199,88.99999989798434L199.2,88.99999989798434L199.29999999999998,88.99999989798434L199.4,88.99999989798434L199.79999999999998,88.99999989798434L200.2,88.99999989798434L200.4,88.99999989798434L200.5,88.99999989798434L200.7,88.99999989798434L201.3,88.99999989798434L201.4,88.99999989798434L201.7,88.99999989798434L202,88.99999989798434L202.4,88.99999989798434L202.6,88.99999989798434L203,88.99999989798434L203.4,88.99999989798434L203.5,88.99999989798434L203.6,88.99999989798434L204,88.99999989798434L204.10000000000002,88.99999989798434L204.4,88.99999989798434L204.5,88.99999989798434L204.60000000000002,88.99999989798434L204.9,88.99999989798434L205.20000000000002,88.99999989798434L205.3,88.99999989798434L205.49999999999997,88.99999989798434L205.7,88.99999989798434L205.79999999999998,88.99999989798434L205.89999999999998,88.99999989798434L206.6,88.99999989798434L206.79999999999998,88.99999989798434L206.89999999999998,88.99999989798434L207.5,88.99999989798434L207.6,88.99999989798434L207.7,88.99999989798434L207.79999999999998,88.99999989798434L207.9,88.99999989798434L208.1,88.99999989798434L208.4,88.99999989798434L209.1,88.99999989798434L209.2,88.99999989798434L209.3,88.99999989798434L210.2,88.99999989798434L210.5,88.99999989798434L210.6,88.99999989798434L210.9,88.99999989798434L211,88.99999989798434L211.1,88.99999989798434L211.20000000000002,88.99999989798434L211.3,88.99999989798434L211.6,88.99999989798434L211.70000000000002,88.99999989798434L211.8,88.99999989798434L211.9,88.99999989798434L212.3,88.99999989798434L212.4,88.99999989798434L212.5,88.99999989798434L212.8,88.99999989798434L213,88.99999989798434L213.20000000000002,88.99999989798434L213.4,88.99999989798434L213.5,88.99999989798434L213.60000000000002,88.99999989798434L213.8,88.99999989798434L213.9,88.99999989798434L214.39999999999998,88.99999989798434L214.7,88.99999989798434L214.89999999999998,88.99999989798434L215.2,88.99999989798434L215.5,88.99999989798434L215.6,88.99999989798434L215.79999999999998,88.99999989798434L216,88.99999989798434L216.6,88.99999989798434L216.7,88.99999989798434L216.9,88.99999989798434L217.1,88.99999989798434L217.6,88.99999989798434L218,88.99999989798434L218.1,88.99999989798434L218.2,88.99999989798434L218.3,88.99999989798434L219.5,88.99999989798434L219.70000000000002,88.99999989798434L219.9,88.99999989798434L220.1,88.99999989798434L220.5,88.99999989798434L220.6,88.99999989798434L220.70000000000002,88.99999989798434L220.8,88.99999989798434L220.9,88.99999989798434L221,88.99999989798434L221.1,88.99999989798434L221.3,88.99999989798434L221.4,88.99999989798434L221.5,88.99999989798434L221.70000000000002,88.99999989798434L222.20000000000002,88.99999989798434L222.5,88.99999989798434L222.70000000000002,88.99999989798434L222.8,88.99999989798434L222.99999999999997,88.99999989798434L223.29999999999998,88.99999989798434L223.6,88.99999989798434L223.79999999999998,88.99999989798434L224.1,88.99999989798434L224.2,88.99999989798434L224.39999999999998,88.99999989798434L224.5,88.99999989798434L224.79999999999998,88.99999989798434L225,88.99999989798434L225.1,88.99999989798434L225.9,88.99999989798434L226,88.99999989798434L226.2,88.99999989798434L226.7,88.99999989798434L227.2,88.99999989798434L227.3,88.99999989798434L227.4,88.99999989798434L227.6,88.99999989798434L227.7,88.99999989798434L227.9,88.99999989798434L228.1,88.99999989798434L228.4,88.99999989798434L228.5,88.99999989798434L228.9,88.99999989798434L229.4,88.99999989798434L229.6,88.99999989798434L230.20000000000002,88.99999989798434L230.3,88.99999989798434L230.4,88.99999989798434L230.5,88.99999989798434L230.60000000000002,88.99999989798434L230.9,88.99999989798434L231.10000000000002,88.99999989798434L231.4,88.99999989798434L231.5,88.99999989798434L231.8,88.99999989798434L232.00000000000003,88.99999989798434L232.2,88.99999989798434L232.29999999999998,88.99999989798434L232.39999999999998,88.99999989798434L232.79999999999998,88.99999989798434L233.2,88.99999989798434L233.29999999999998,88.99999989798434L233.39999999999998,88.99999989798434L233.79999999999998,88.99999989798434L233.9,88.99999989798434L234.1,88.99999989798434L234.2,88.99999989798434L234.4,88.99999989798434L234.5,88.99999989798434L234.6,88.99999989798434L234.79999999999998,88.99999989798434L234.9,88.99999989798434L235,88.99999989798434L235.1,88.99999989798434L235.4,88.99999989798434L235.6,88.99999989798434L235.7,88.99999989798434L236.3,88.99999989798434L236.4,88.99999989798434L236.5,88.99999989798434L236.9,88.99999989798434L237.1,88.99999989798434L237.3,88.99999989798434L237.70000000000002,88.99999989798434L238.4,88.99999989798434L238.70000000000002,88.99999989798434L238.9,88.99999989798434L239.10000000000002,88.99999989798434L239.20000000000002,88.99999989798434L239.4,88.99999989798434L239.60000000000002,88.99999989798434L239.8,88.99999989798434L239.9,88.99999989798434L240,88.99999989798434L240.3,88.99999989798434L240.39999999999998,88.99999989798434L240.7,88.99999989798434L240.79999999999998,88.99999989798434L241.1,88.99999989798434L241.39999999999998,88.99999989798434L241.79999999999998,88.99999989798434L242.4,88.99999989798434L242.5,88.99999989798434L242.79999999999998,88.99999989798434L242.9,88.99999989798434L243.1,88.99999989798434L243.29999999999998,88.99999989798434L243.4,88.99999989798434L243.6,88.99999989798434L243.7,88.99999989798434L243.9,88.99999989798434L244,88.99999989798434L244.1,88.99999989798434L244.2,88.99999989798434L244.4,88.99999989798434L244.6,88.99999989798434L244.7,88.99999989798434L245.1,88.99999989798434L245.2,88.99999989798434L245.4,88.99999989798434L245.7,88.99999989798434L245.9,88.99999989798434L246.20000000000002,88.99999989798434L246.8,88.99999989798434L247.4,88.99999989798434L247.8,88.99999989798434L248.10000000000002,88.99999989798434L248.60000000000002,88.99999989798434L248.8,88.99999989798434L249.10000000000002,88.99999989798434L249.7,88.99999989798434L249.79999999999998,88.99999989798434L250,88.99999989798434L250.29999999999998,88.99999989798434L250.6,88.99999989798434L250.7,88.99999989798434L250.79999999999998,88.99999989798434L251.7,88.99999989798434L251.79999999999998,88.99999989798434L251.9,88.99999989798434L252,88.99999989798434L252.2,88.99999989798434L252.4,88.99999989798434L252.7,88.99999989798434L252.79999999999998,88.99999989798434L253.2,88.99999989798434L253.4,88.99999989798434L253.5,88.99999989798434L253.6,88.99999989798434L253.7,88.99999989798434L254.5,88.99999989798434L255.4,88.99999989798434L255.6,88.99999989798434L255.9,88.99999989798434L256.4,88.99999989798434L256.7,88.99999989798434L256.8,88.99999989798434L257.1,88.99999989798434L257.2,88.99999989798434L257.5,88.99999989798434L257.8,88.99999989798434L258,88.99999989798434L258.2,88.99999989798434L258.5,88.99999989798434L258.8,88.99999989798434L258.9,88.99999989798434L259,88.99999989798434L259.2,88.99999989798434L260,88.99999989798434L260.2,88.99999989798434L260.40000000000003,88.99999989798434L260.6,88.99999989798434L261.1,88.99999989798434L261.6,88.99999989798434L262,88.99999989798434L262.40000000000003,88.99999989798434L262.5,88.99999989798434L262.59999999999997,88.99999989798434" fill="none"></path></g></g></g></g></g></g><g transform="translate(50, 178)" clip-path="url(#clip_1)"><clipPath id="clip_1"><rect width="280" height="21"></rect></clipPath><g><g><line x1="0" y1="0" x2="0" y2="5" style="visibility: inherit;" fill="rgb(0, 0, 0)" stroke="rgb(204, 204, 204)" stroke-width="1px"></line><line x1="20" y1="0" x2="20" y2="5" style="visibility: inherit;" fill="rgb(0, 0, 0)" stroke="rgb(204, 204, 204)" stroke-width="1px"></line><line x1="40" y1="0" x2="40" y2="5" style="visibility: inherit;" fill="rgb(0, 0, 0)" stroke="rgb(204, 204, 204)" stroke-width="1px"></line><line x1="60" y1="0" x2="60" y2="5" style="visibility: inherit;" fill="rgb(0, 0, 0)" stroke="rgb(204, 204, 204)" stroke-width="1px"></line><line x1="80" y1="0" x2="80" y2="5" style="visibility: inherit;" fill="rgb(0, 0, 0)" stroke="rgb(204, 204, 204)" stroke-width="1px"></line><line x1="100" y1="0" x2="100" y2="5" style="visibility: inherit;" fill="rgb(0, 0, 0)" stroke="rgb(204, 204, 204)" stroke-width="1px"></line><line x1="120" y1="0" x2="120" y2="5" style="visibility: inherit;" fill="rgb(0, 0, 0)" stroke="rgb(204, 204, 204)" stroke-width="1px"></line><line x1="140" y1="0" x2="140" y2="5" style="visibility: inherit;" fill="rgb(0, 0, 0)" stroke="rgb(204, 204, 204)" stroke-width="1px"></line><line x1="160" y1="0" x2="160" y2="5" style="visibility: inherit;" fill="rgb(0, 0, 0)" stroke="rgb(204, 204, 204)" stroke-width="1px"></line><line x1="180" y1="0" x2="180" y2="5" style="visibility: inherit;" fill="rgb(0, 0, 0)" stroke="rgb(204, 204, 204)" stroke-width="1px"></line><line x1="200" y1="0" x2="200" y2="5" style="visibility: inherit;" fill="rgb(0, 0, 0)" stroke="rgb(204, 204, 204)" stroke-width="1px"></line><line x1="220" y1="0" x2="220" y2="5" style="visibility: inherit;" fill="rgb(0, 0, 0)" stroke="rgb(204, 204, 204)" stroke-width="1px"></line><line x1="240" y1="0" x2="240" y2="5" style="visibility: inherit;" fill="rgb(0, 0, 0)" stroke="rgb(204, 204, 204)" stroke-width="1px"></line><line x1="260" y1="0" x2="260" y2="5" style="visibility: inherit;" fill="rgb(0, 0, 0)" stroke="rgb(204, 204, 204)" stroke-width="1px"></line><line x1="280" y1="0" x2="280" y2="5" style="visibility: inherit;" fill="rgb(0, 0, 0)" stroke="rgb(204, 204, 204)" stroke-width="1px"></line></g><g transform="translate(0, 8)"><text x="0" y="0" dx="0em" dy="0.95em" style="text-anchor: middle; visibility: hidden; font-family: &quot;Helvetica Neue&quot;, sans-serif; font-size: 12px; font-weight: 200;" fill="rgb(50, 49, 63)" stroke="none" stroke-width="1px">-200</text><text x="20" y="0" dx="0em" dy="0.95em" style="text-anchor: middle; visibility: inherit; font-family: &quot;Helvetica Neue&quot;, sans-serif; font-size: 12px; font-weight: 200;" fill="rgb(50, 49, 63)" stroke="none" stroke-width="1px">0</text><text x="40" y="0" dx="0em" dy="0.95em" style="text-anchor: middle; visibility: hidden; font-family: &quot;Helvetica Neue&quot;, sans-serif; font-size: 12px; font-weight: 200;" fill="rgb(50, 49, 63)" stroke="none" stroke-width="1px">200</text><text x="60" y="0" dx="0em" dy="0.95em" style="text-anchor: middle; visibility: inherit; font-family: &quot;Helvetica Neue&quot;, sans-serif; font-size: 12px; font-weight: 200;" fill="rgb(50, 49, 63)" stroke="none" stroke-width="1px">400</text><text x="80" y="0" dx="0em" dy="0.95em" style="text-anchor: middle; visibility: hidden; font-family: &quot;Helvetica Neue&quot;, sans-serif; font-size: 12px; font-weight: 200;" fill="rgb(50, 49, 63)" stroke="none" stroke-width="1px">600</text><text x="100" y="0" dx="0em" dy="0.95em" style="text-anchor: middle; visibility: inherit; font-family: &quot;Helvetica Neue&quot;, sans-serif; font-size: 12px; font-weight: 200;" fill="rgb(50, 49, 63)" stroke="none" stroke-width="1px">800</text><text x="120" y="0" dx="0em" dy="0.95em" style="text-anchor: middle; visibility: hidden; font-family: &quot;Helvetica Neue&quot;, sans-serif; font-size: 12px; font-weight: 200;" fill="rgb(50, 49, 63)" stroke="none" stroke-width="1px">1k</text><text x="140" y="0" dx="0em" dy="0.95em" style="text-anchor: middle; visibility: inherit; font-family: &quot;Helvetica Neue&quot;, sans-serif; font-size: 12px; font-weight: 200;" fill="rgb(50, 49, 63)" stroke="none" stroke-width="1px">1.2k</text><text x="160" y="0" dx="0em" dy="0.95em" style="text-anchor: middle; visibility: hidden; font-family: &quot;Helvetica Neue&quot;, sans-serif; font-size: 12px; font-weight: 200;" fill="rgb(50, 49, 63)" stroke="none" stroke-width="1px">1.4k</text><text x="180" y="0" dx="0em" dy="0.95em" style="text-anchor: middle; visibility: inherit; font-family: &quot;Helvetica Neue&quot;, sans-serif; font-size: 12px; font-weight: 200;" fill="rgb(50, 49, 63)" stroke="none" stroke-width="1px">1.6k</text><text x="200" y="0" dx="0em" dy="0.95em" style="text-anchor: middle; visibility: hidden; font-family: &quot;Helvetica Neue&quot;, sans-serif; font-size: 12px; font-weight: 200;" fill="rgb(50, 49, 63)" stroke="none" stroke-width="1px">1.8k</text><text x="220" y="0" dx="0em" dy="0.95em" style="text-anchor: middle; visibility: inherit; font-family: &quot;Helvetica Neue&quot;, sans-serif; font-size: 12px; font-weight: 200;" fill="rgb(50, 49, 63)" stroke="none" stroke-width="1px">2k</text><text x="240" y="0" dx="0em" dy="0.95em" style="text-anchor: middle; visibility: hidden; font-family: &quot;Helvetica Neue&quot;, sans-serif; font-size: 12px; font-weight: 200;" fill="rgb(50, 49, 63)" stroke="none" stroke-width="1px">2.2k</text><text x="260" y="0" dx="0em" dy="0.95em" style="text-anchor: middle; visibility: inherit; font-family: &quot;Helvetica Neue&quot;, sans-serif; font-size: 12px; font-weight: 200;" fill="rgb(50, 49, 63)" stroke="none" stroke-width="1px">2.4k</text><text x="280" y="0" dx="0em" dy="0.95em" style="text-anchor: middle; visibility: hidden; font-family: &quot;Helvetica Neue&quot;, sans-serif; font-size: 12px; font-weight: 200;" fill="rgb(50, 49, 63)" stroke="none" stroke-width="1px">2.6k</text></g><line x1="0" y1="0" x2="280" y2="0" fill="rgb(0, 0, 0)" stroke="rgb(204, 204, 204)" stroke-width="1px"></line></g></g></g></g></svg>