<svg viewBox="0 0 330 200" xmlns="http://www.w3.org/2000/svg"><g><g><g><g><g><line x1="40" y1="178" x2="35" y2="178" style="visibility: inherit;" fill="rgb(0, 0, 0)" stroke="rgb(204, 204, 204)" stroke-width="1px"></line><line x1="40" y1="161.8181818181818" x2="35" y2="161.8181818181818" style="visibility: inherit;" fill="rgb(0, 0, 0)" stroke="rgb(204, 204, 204)" stroke-width="1px"></line><line x1="40" y1="145.63636363636363" x2="35" y2="145.63636363636363" style="visibility: inherit;" fill="rgb(0, 0, 0)" stroke="rgb(204, 204, 204)" stroke-width="1px"></line><line x1="40" y1="129.45454545454547" x2="35" y2="129.45454545454547" style="visibility: inherit;" fill="rgb(0, 0, 0)" stroke="rgb(204, 204, 204)" stroke-width="1px"></line><line x1="40" y1="113.27272727272727" x2="35" y2="113.27272727272727" style="visibility: inherit;" fill="rgb(0, 0, 0)" stroke="rgb(204, 204, 204)" stroke-width="1px"></line><line x1="40" y1="97.0909090909091" x2="35" y2="97.0909090909091" style="visibility: inherit;" fill="rgb(0, 0, 0)" stroke="rgb(204, 204, 204)" stroke-width="1px"></line><line x1="40" y1="80.90909090909092" x2="35" y2="80.90909090909092" style="visibility: inherit;" fill="rgb(0, 0, 0)" stroke="rgb(204, 204, 204)" stroke-width="1px"></line><line x1="40" y1="64.72727272727273" x2="35" y2="64.72727272727273" style="visibility: inherit;" fill="rgb(0, 0, 0)" stroke="rgb(204, 204, 204)" stroke-width="1px"></line><line x1="40" y1="48.54545454545453" x2="35" y2="48.54545454545453" style="visibility: inherit;" fill="rgb(0, 0, 0)" stroke="rgb(204, 204, 204)" stroke-width="1px"></line><line x1="40" y1="32.363636363636346" x2="35" y2="32.363636363636346" style="visibility: inherit;" fill="rgb(0, 0, 0)" stroke="rgb(204, 204, 204)" stroke-width="1px"></line><line x1="40" y1="16.181818181818187" x2="35" y2="16.181818181818187" style="visibility: inherit;" fill="rgb(0, 0, 0)" stroke="rgb(204, 204, 204)" stroke-width="1px"></line><line x1="40" y1="0" x2="35" y2="0" style="visibility: inherit;" fill="rgb(0, 0, 0)" stroke="rgb(204, 204, 204)" stroke-width="1px"></line></g><g transform="translate(30, 0)"><text x="0" y="178" dx="0em" dy="0.3em" style="text-anchor: end; visibility: hidden; font-family: &quot;Helvetica Neue&quot;, sans-serif; font-size: 12px; font-weight: 200;" fill="rgb(50, 49, 63)" stroke="none" stroke-width="1px">-20</text><text x="0" y="161.8181818181818" dx="0em" dy="0.3em" style="text-anchor: end; visibility: inherit; font-family: &quot;Helvetica Neue&quot;, sans-serif; font-size: 12px; font-weight: 200;" fill="rgb(50, 49, 63)" stroke="none" stroke-width="1px">-10</text><text x="0" y="145.63636363636363" dx="0em" dy="0.3em" style="text-anchor: end; visibility: hidden; font-family: &quot;Helvetica Neue&quot;, sans-serif; font-size: 12px; font-weight: 200;" fill="rgb(50, 49, 63)" stroke="none" stroke-width="1px">0</text><text x="0" y="129.45454545454547" dx="0em" dy="0.3em" style="text-anchor: end; visibility: inherit; font-family: &quot;Helvetica Neue&quot;, sans-serif; font-size: 12px; font-weight: 200;" fill="rgb(50, 49, 63)" stroke="none" stroke-width="1px">10</text><text x="0" y="113.27272727272727" dx="0em" dy="0.3em" style="text-anchor: end; visibility: hidden; font-family: &quot;Helvetica Neue&quot;, sans-serif; font-size: 12px; font-weight: 200;" fill="rgb(50, 49, 63)" stroke="none" stroke-width="1px">20</text><text x="0" y="97.0909090909091" dx="0em" dy="0.3em" style="text-anchor: end; visibility: inherit; font-family: &quot;Helvetica Neue&quot;, sans-serif; font-size: 12px; font-weight: 200;" fill="rgb(50, 49, 63)" stroke="none" stroke-width="1px">30</text><text x="0" y="80.90909090909092" dx="0em" dy="0.3em" style="text-anchor: end; visibility: hidden; font-family: &quot;Helvetica Neue&quot;, sans-serif; font-size: 12px; font-weight: 200;" fill="rgb(50, 49, 63)" stroke="none" stroke-width="1px">40</text><text x="0" y="64.72727272727273" dx="0em" dy="0.3em" style="text-anchor: end; visibility: inherit; font-family: &quot;Helvetica Neue&quot;, sans-serif; font-size: 12px; font-weight: 200;" fill="rgb(50, 49, 63)" stroke="none" stroke-width="1px">50</text><text x="0" y="48.54545454545453" dx="0em" dy="0.3em" style="text-anchor: end; visibility: hidden; font-family: &quot;Helvetica Neue&quot;, sans-serif; font-size: 12px; font-weight: 200;" fill="rgb(50, 49, 63)" stroke="none" stroke-width="1px">60</text><text x="0" y="32.363636363636346" dx="0em" dy="0.3em" style="text-anchor: end; visibility: inherit; font-family: &quot;Helvetica Neue&quot;, sans-serif; font-size: 12px; font-weight: 200;" fill="rgb(50, 49, 63)" stroke="none" stroke-width="1px">70</text><text x="0" y="16.181818181818187" dx="0em" dy="0.3em" style="text-anchor: end; visibility: hidden; font-family: &quot;Helvetica Neue&quot;, sans-serif; font-size: 12px; font-weight: 200;" fill="rgb(50, 49, 63)" stroke="none" stroke-width="1px">80</text><text x="0" y="0" dx="0em" dy="0.3em" style="text-anchor: end; visibility: hidden; font-family: &quot;Helvetica Neue&quot;, sans-serif; font-size: 12px; font-weight: 200;" fill="rgb(50, 49, 63)" stroke="none" stroke-width="1px">90</text></g><line x1="40" y1="0" x2="40" y2="178" fill="rgb(0, 0, 0)" stroke="rgb(204, 204, 204)" stroke-width="1px"></line></g></g><g transform="translate(40, 0)" clip-path="url(#clip_0)"><clipPath id="clip_0"><rect width="290" height="177"></rect></clipPath><g><g><g><line x1="0" y1="0" x2="0" y2="178" fill="rgb(0, 0, 0)" stroke="rgb(60, 60, 60)" stroke-width="1px" opacity="0.25"></line><line x1="20.71428571428571" y1="0" x2="20.71428571428571" y2="178" fill="rgb(0, 0, 0)" stroke="rgb(60, 60, 60)" stroke-width="1px" opacity="0.25"></line><line x1="41.42857142857142" y1="0" x2="41.42857142857142" y2="178" fill="rgb(0, 0, 0)" stroke="rgb(60, 60, 60)" stroke-width="1px" opacity="0.25"></line><line x1="62.14285714285714" y1="0" x2="62.14285714285714" y2="178" fill="rgb(0, 0, 0)" stroke="rgb(60, 60, 60)" stroke-width="1px" opacity="0.25"></line><line x1="82.85714285714285" y1="0" x2="82.85714285714285" y2="178" fill="rgb(0, 0, 0)" stroke="rgb(60, 60, 60)" stroke-width="1px" opacity="0.25"></line><line x1="103.57142857142857" y1="0" x2="103.57142857142857" y2="178" fill="rgb(0, 0, 0)" stroke="rgb(60, 60, 60)" stroke-width="1px" opacity="0.25"></line><line x1="124.28571428571428" y1="0" x2="124.28571428571428" y2="178" fill="rgb(0, 0, 0)" stroke="rgb(60, 60, 60)" stroke-width="1px" opacity="0.25"></line><line x1="145" y1="0" x2="145" y2="178" fill="rgb(0, 0, 0)" stroke="rgb(60, 60, 60)" stroke-width="1px" opacity="0.25"></line><line x1="165.7142857142857" y1="0" x2="165.7142857142857" y2="178" fill="rgb(0, 0, 0)" stroke="rgb(60, 60, 60)" stroke-width="1px" opacity="0.25"></line><line x1="186.42857142857144" y1="0" x2="186.42857142857144" y2="178" fill="rgb(0, 0, 0)" stroke="rgb(60, 60, 60)" stroke-width="1px" opacity="0.25"></line><line x1="207.14285714285714" y1="0" x2="207.14285714285714" y2="178" fill="rgb(0, 0, 0)" stroke="rgb(60, 60, 60)" stroke-width="1px" opacity="0.25"></line><line x1="227.85714285714286" y1="0" x2="227.85714285714286" y2="178" fill="rgb(0, 0, 0)" stroke="rgb(60, 60, 60)" stroke-width="1px" opacity="0.25"></line><line x1="248.57142857142856" y1="0" x2="248.57142857142856" y2="178" fill="rgb(0, 0, 0)" stroke="rgb(60, 60, 60)" stroke-width="1px" opacity="0.25"></line><line x1="269.2857142857143" y1="0" x2="269.2857142857143" y2="178" fill="rgb(0, 0, 0)" stroke="rgb(60, 60, 60)" stroke-width="1px" opacity="0.25"></line><line x1="290" y1="0" x2="290" y2="178" fill="rgb(0, 0, 0)" stroke="rgb(60, 60, 60)" stroke-width="1px" opacity="0.25"></line></g><g><line x1="0" y1="178" x2="290" y2="178" fill="rgb(0, 0, 0)" stroke="rgb(60, 60, 60)" stroke-width="1px" opacity="0.25"></line><line x1="0" y1="161.8181818181818" x2="290" y2="161.8181818181818" fill="rgb(0, 0, 0)" stroke="rgb(60, 60, 60)" stroke-width="1px" opacity="0.25"></line><line x1="0" y1="145.63636363636363" x2="290" y2="145.63636363636363" fill="rgb(0, 0, 0)" stroke="rgb(60, 60, 60)" stroke-width="1px" opacity="0.25"></line><line x1="0" y1="129.45454545454547" x2="290" y2="129.45454545454547" fill="rgb(0, 0, 0)" stroke="rgb(60, 60, 60)" stroke-width="1px" opacity="0.25"></line><line x1="0" y1="113.27272727272727" x2="290" y2="113.27272727272727" fill="rgb(0, 0, 0)" stroke="rgb(60, 60, 60)" stroke-width="1px" opacity="0.25"></line><line x1="0" y1="97.0909090909091" x2="290" y2="97.0909090909091" fill="rgb(0, 0, 0)" stroke="rgb(60, 60, 60)" stroke-width="1px" opacity="0.25"></line><line x1="0" y1="80.90909090909092" x2="290" y2="80.90909090909092" fill="rgb(0, 0, 0)" stroke="rgb(60, 60, 60)" stroke-width="1px" opacity="0.25"></line><line x1="0" y1="64.72727272727273" x2="290" y2="64.72727272727273" fill="rgb(0, 0, 0)" stroke="rgb(60, 60, 60)" stroke-width="1px" opacity="0.25"></line><line x1="0" y1="48.54545454545453" x2="290" y2="48.54545454545453" fill="rgb(0, 0, 0)" stroke="rgb(60, 60, 60)" stroke-width="1px" opacity="0.25"></line><line x1="0" y1="32.363636363636346" x2="290" y2="32.363636363636346" fill="rgb(0, 0, 0)" stroke="rgb(60, 60, 60)" stroke-width="1px" opacity="0.25"></line><line x1="0" y1="16.181818181818187" x2="290" y2="16.181818181818187" fill="rgb(0, 0, 0)" stroke="rgb(60, 60, 60)" stroke-width="1px" opacity="0.25"></line><line x1="0" y1="0" x2="290" y2="0" fill="rgb(0, 0, 0)" stroke="rgb(60, 60, 60)" stroke-width="1px" opacity="0.25"></line></g></g></g><g><g><line x1="0" y1="145.63636363636363" x2="290" y2="145.63636363636363" fill="rgb(0, 0, 0)" stroke="rgb(153, 153, 153)" stroke-width="1.5px"></line></g></g><g><g><line x1="20.71428571428571" y1="0" x2="20.71428571428571" y2="178" fill="rgb(0, 0, 0)" stroke="rgb(153, 153, 153)" stroke-width="1.5px"></line></g></g><g><g><g><g><g><path stroke="rgb(0, 119, 187)" stroke-width="2px" d="M21.232142857142858,150.4909090909091L21.335714285714285,172.12213133909793L21.75,185.02664176672155L21.853571428571428,177.40482989794157L22.164285714285715,171.0352427008298L22.267857142857146,174.53071844671712L22.57857142857143,171.3037230437391L22.682142857142857,169.38147767436746L22.785714285714285,167.00047474646084L23.2,166.3407524991732L24.132142857142856,166.18805480765207L24.442857142857143,163.89432591796526L24.857142857142858,162.30761845623283L25.064285714285713,161.282275750542L25.271428571428572,162.2674282365382L25.375,162.52484074339537L25.58214285714286,165.487392196129L25.789285714285715,164.05684101908125L25.892857142857142,163.05914915062607L26.20357142857143,162.17011078983762L26.307142857142857,162.39832194977356L26.410714285714285,162.1034782848278L26.514285714285716,160.85900835181872L26.617857142857144,159.73177736573757L27.239285714285714,163.175788480429L27.44642857142857,160.42132325442597L27.55,159.26897658617625L27.65357142857143,158.32565113984907L27.757142857142856,157.90150980556027L28.067857142857143,156.96664889519678L28.17142857142857,156.42827087075358L28.275000000000002,155.7186054705219L28.378571428571426,155.694328621421L28.896428571428572,155.15071251466998L29.41428571428571,155.98919654065358L29.724999999999998,155.3343455451326L29.82857142857143,156.9593225946685L30.45,156.3551616860134L31.27857142857143,155.39264131500286L31.589285714285715,154.19770417063128L31.692857142857143,154.16900869773474L32.417857142857144,153.65163598501513L32.72857142857143,153.26592485637102L32.93571428571428,152.71127104529359L33.660714285714285,151.99931929745168L33.76428571428571,151.33297554984392L34.074999999999996,151.0917698354997L34.17857142857143,151.24699531806232L34.90357142857143,150.82288678256162L35.11071428571429,150.3305294966306L35.31785714285714,150.05707814977188L35.42142857142857,149.80039140371017L35.525,147.77958128921674L36.25,146.53504667084601L36.76785714285714,146.20386845134604L36.975,145.98546294917693L37.07857142857143,145.59472060663484L37.18214285714286,143.65510544454435L37.49285714285714,143.39897688003288L37.80357142857143,143.0658512262646L38.010714285714286,143.211860912206L38.114285714285714,144.08333167627356L38.425000000000004,143.80486010908294L39.04642857142857,142.71953961824258L39.150000000000006,142.7928186732287L39.357142857142854,143.31776274081625L39.667857142857144,142.44660567499415L39.875,142.4439864468421L39.97857142857143,142.6231823127273L40.18571428571428,142.5199389980242L40.392857142857146,142.87575269312111L40.496428571428574,142.30588421508443L41.221428571428575,142.49205585020343L42.05,143.8425251226729L42.153571428571425,144.48440859584917L42.25714285714286,145.0899883372457L42.67142857142857,146.65309467661743L43.707142857142856,146.59648811593547L43.81071428571429,146.45303759818233L44.01785714285714,146.31765461538245L44.225,146.45963642277093L44.43214285714286,146.32404530831624L44.74285714285714,146.1062324934868L44.84642857142857,146.43926550982994L44.95,148.09965510910166L45.260714285714286,148.14250450871168L46.29642857142857,149.5277615605216L46.50357142857143,149.13301625742633L47.125,148.2227767508027L47.43571428571428,147.90054234426188L47.53928571428571,148.13336558733283L47.642857142857146,147.7267976301231L47.746428571428574,147.2533667058299L47.95357142857143,147.25343185653742L48.36785714285714,145.55461961606485L48.575,145.55913531500937L48.78214285714285,145.11655105863048L48.989285714285714,144.78785513356155L49.50714285714285,144.12005481416466L50.128571428571426,145.00755169941667L50.85357142857143,143.9707140137412L50.957142857142856,143.97333291187593L51.474999999999994,143.88654377751777L51.57857142857143,143.98305269840023L51.68214285714286,143.89575500388074L51.88928571428572,143.72406138231392L51.99285714285715,144.54316349757457L52.09642857142857,142.90865854441034L52.510714285714286,143.14818515413688L52.614285714285714,142.83942244571733L52.82142857142857,142.99354314058107L53.13214285714286,142.6933664786936L53.54642857142857,142.5880550151811L53.65,140.61659299501838L53.753571428571426,140.98222702429405L53.85714285714286,141.14944078250602L54.06428571428571,142.19862232690525L54.375,142.83349911799473L54.47857142857143,142.2749907574949L54.58214285714286,142.54917519564674L54.89285714285714,141.0263491264202L55.20357142857143,140.38925888969516L55.825,141.12354785012056L56.03214285714286,141.55013603094488L56.34285714285714,141.86414518498935L56.44642857142857,139.8449969720465L56.65357142857143,139.98562877934572L56.75714285714285,139.31694001998065L57.275000000000006,139.21944229549814L57.37857142857143,139.66165595675145L57.792857142857144,139.90140986731546L58,141.1965724802014L58.31071428571428,141.8861333882101L58.725,142.18154681409436L59.13928571428571,142.1935675366051L59.346428571428575,142.9172511403474L59.760714285714286,142.7107133753166L59.864285714285714,143.13879836832666L59.96785714285715,143.36525155439122L60.175,142.42181982191113L60.278571428571425,142.33158874030832L60.69285714285714,142.06826589123472L60.79642857142857,142.62068070643318L61.21071428571429,143.6768494030954L61.31428571428572,144.14074975414184L61.417857142857144,143.68889155528072L62.45357142857143,141.74852788558718L62.97142857142857,142.14044944741957L63.69642857142857,142.51080562977583L63.8,142.68274681383124L64.31785714285714,142.2221058792362L64.42142857142858,141.6087769908451L64.62857142857143,141.02919328855484L64.83571428571429,140.6595268009573L65.25,139.86512924120507L66.18214285714285,139.82654145994988L66.38928571428572,139.8790889800443L66.49285714285715,140.37380403639867L66.80357142857143,140.48525864227582L67.425,140.67959220132806L68.14999999999999,140.95224483887412L68.25357142857142,139.8747585582868L68.35714285714286,140.19167819453986L68.46071428571429,140.40215557370098L68.66785714285714,138.90990516411853L68.77142857142857,139.2798912734866L69.08214285714286,137.40434926124772L69.18571428571428,135.98800443998576L69.70357142857142,136.07367023225692L69.80714285714286,136.06561783327547L70.94642857142857,135.16795236476065L71.25714285714285,135.65474393240194L71.3607142857143,136.11475886696843L71.56785714285714,138.9525978324692L71.775,139.23121893404388L72.08571428571429,139.67252282107256L73.225,138.57648494621782L73.53571428571428,138.16376079496595L73.63928571428572,138.48576683841839L73.74285714285715,138.8790645369616L73.95,139.42873563279997L74.15714285714286,139.1471456624307L74.26071428571429,138.61403563576764L74.46785714285714,136.33019479176184L74.98571428571428,137.28706135140578L75.08928571428572,138.3693021271937L75.71071428571429,138.76900068394121L75.91785714285714,137.6336783377402L76.02142857142857,138.42984412652845L76.125,136.15615385965214L76.22857142857143,132.8504982957482L76.33214285714287,133.55373437937118L76.43571428571428,131.45924102047874L76.64285714285714,131.7939884987548L76.74642857142857,132.19932569306476L76.85000000000001,132.9383740859036L77.36785714285715,133.99277875428936L77.47142857142856,134.6331846717028L77.575,135.06036502970392L77.78214285714286,132.7050162176909L78.19642857142857,132.7042403167725L78.40357142857142,133.23751290932927L78.61071428571428,133.2074493897903L79.025,133.89104632438392L79.12857142857143,135.60505453572378L79.23214285714285,133.30875658451828L79.64642857142857,132.74077030876003L80.06071428571428,129.08899960700964L80.16428571428571,129.19810542863502L80.47500000000001,130.6362195949648L80.68214285714285,131.46123291946537L80.78571428571429,132.06286883175864L80.8892857142857,133.61042009542174L80.99285714285715,134.36085113701864L81.09642857142858,133.91300198580376L81.2,135.18079313289593L81.40714285714284,136.2008542675373L81.51071428571429,136.09680682429496L82.02857142857142,136.71048500464033L82.13214285714285,137.6464120127085L82.44285714285715,135.23785039449666L82.54642857142858,133.1397612491L82.85714285714285,128.66505951907936L83.06428571428572,127.81847858851754L83.47857142857143,127.55246147716818L83.6857142857143,128.54707888361588L83.89285714285715,128.77499014866856L84.1,128.99036622956754L84.41071428571429,128.48189488425982L84.82499999999999,129.603393172396L84.92857142857143,130.30720803455557L85.13571428571429,130.70531238730612L85.44642857142857,131.34852141929122L85.8607142857143,132.40135461796436L86.37857142857143,132.0612795411146L87.10357142857143,132.54090992986113L87.20714285714286,127.565152398615L87.41428571428571,127.3130686583347L87.51785714285714,124.93884669261935L87.62142857142858,122.51720705024428L87.725,123.43276176085462L87.82857142857144,121.27195741430647L87.93214285714286,118.87399718747622L88.24285714285713,115.27292369636147L88.65714285714286,110.62390844517141L88.76071428571429,107.65459079607483L89.175,103.42458468821124L89.48571428571428,99.87222966218972L89.69285714285714,99.45225671033305L89.9,99.14438236927872L90.21071428571427,98.14144065559253L90.31428571428572,97.28266086657004L90.41785714285714,92.91111185890092L90.52142857142857,90.20399915003028L90.625,89.24777867717854L90.83214285714286,92.52715253390201L90.93571428571428,91.17615848895359L91.03928571428573,89.45446898254426L91.24642857142858,90.49747364048999L91.35,92.99611361349453L91.45357142857142,91.53032679750451L91.55714285714286,94.23915981428223L91.76428571428572,96.97700697067906L91.97142857142856,97.16127164746995L92.075,99.11540230995011L92.8,94.73205390450198L93.11071428571428,93.79379068116091L93.21428571428572,96.82313298268984L93.31785714285714,95.05786023416339L93.525,97.21667842340075L93.83571428571429,96.05276085428909L94.04285714285714,97.71185935191019L94.25,101.68270786696704L94.66428571428571,102.14215901950648L95.07857142857142,102.4873403339391L95.3892857142857,105.92853718559057L95.49285714285715,101.43746693737421L95.59642857142856,102.71140644426666L95.7,101.15627887244148L95.80357142857143,102.97968377533095L96.32142857142857,99.80780077172408L96.94285714285715,102.23937201613067L97.15,100.1762063252392L97.25357142857143,99.20551487508891L97.35714285714285,95.8852112264044L97.46071428571429,90.16652407093815L97.66785714285714,88.94536513846872L97.97857142857143,88.32537000376355L98.08214285714286,86.67147452224569L98.39285714285715,89.29154362010121L98.49642857142857,87.40650858734358L98.60000000000001,89.09615072824914L98.80714285714285,89.26886244913102L99.0142857142857,87.38507490171331L99.63571428571429,86.58389573681751L99.94642857142857,86.00478144034834L100.05,81.71951824474543L100.3607142857143,79.36094462873888L100.46428571428571,76.86509256161236L100.56785714285715,72.37051227919592L100.77499999999999,69.5471339901446L100.87857142857143,73.10904175623332L100.98214285714285,77.81004462869568L101.5,79.315492225278L101.91428571428571,82.78514026431382L102.01785714285715,86.24195765468488L102.225,84.16864992421665L102.43214285714285,87.28237426277205L102.63928571428572,89.60184373772387L102.74285714285713,88.23374229903754L102.84642857142858,85.07188640027445L102.94999999999999,85.10993264908166L103.05357142857143,84.78988634684532L103.36428571428571,87.69144265377281L103.57142857142857,89.09841333347813L103.77857142857144,91.40700063992904L104.08928571428571,94.74561565911425L104.29642857142858,97.2776068368372L104.39999999999999,96.91133845548336L104.50357142857143,95.85321482588671L104.91785714285713,98.32428804256229L105.125,99.50245221468403L105.22857142857143,100.61581735579193L105.43571428571428,99.7989473922685L105.74642857142858,97.95900526663289L106.16071428571428,99.78025999479762L106.47142857142858,96.16134566160422L106.78214285714286,94.87747163899176L106.88571428571429,90.28221066088294L107.09285714285714,93.504689099693L107.3,92.45593119147232L107.50714285714285,95.64785499819558L108.025,94.74822296736752L108.23214285714286,97.54707072158853L108.33571428571427,98.32298183646644L108.43928571428572,92.91521780539273L108.54285714285714,91.3648808179501L108.85357142857143,94.52781238866797L109.475,90.21878268707208L109.68214285714286,89.79574963740731L109.78571428571428,92.15498341723584L109.88928571428572,92.07045932895316L110.09642857142856,95.19458407755138L110.51071428571429,90.93788193823333L110.71785714285714,90.119298428895L110.82142857142857,88.45573701005232L111.23571428571428,87.41767147140158L111.33928571428572,87.5936995409709L111.44285714285714,85.26804606001957L111.54642857142856,87.07530353126997L111.85714285714286,86.29116183518391L111.96071428571429,86.79614793538455L112.06428571428572,87.80735980108757L112.27142857142857,88.49595501341075L112.58214285714287,85.23067748147575L112.78928571428571,84.45899021861048L112.89285714285714,85.15374575776448L113.10000000000001,87.76828974527521L113.20357142857142,85.25503380548093L113.5142857142857,82.70200694252767L113.825,82.60339656055537L113.92857142857143,79.9292097463089L114.65357142857142,82.83110321376483L114.75714285714287,82.8143925369887L114.86071428571428,81.81960094638194L114.96428571428571,83.72752289627454L115.17142857142856,81.88150913520234L115.275,79.1580261302886L115.48214285714285,76.67333469098669L115.58571428571429,74.59230128129181L115.6892857142857,75.65172471163409L116,75.05087985205833L116.10357142857143,75.37308146041602L116.20714285714286,71.04956197729199L116.31071428571428,74.97383607094358L116.51785714285715,75.21127508717906L117.1392857142857,70.89665495502516L117.24285714285715,69.13333893158769L117.55357142857143,67.3780052894933L118.27857142857142,65.986214997929L118.58928571428571,66.0059731730515L119.31428571428572,66.91464464890811L119.41785714285714,65.72633919275543L119.52142857142857,68.51939053818167L119.72857142857143,69.82382405903525L119.83214285714286,68.38651373531602L119.9357142857143,69.07525548008749L120.24642857142857,73.4641164299706L120.35,76.54359002717622L120.55714285714285,79.89869257656078L120.76428571428572,82.9802644856131L120.86785714285713,80.81934993839866L121.28214285714286,78.77728569133512L121.38571428571429,76.13553497775956L121.8,77.73308055429831L121.90357142857144,73.90276112309705L122.00714285714285,72.77510926112781L122.1107142857143,72.51047825172168L122.42142857142858,69.50140194740305L122.52499999999999,71.37482484057472L122.62857142857143,69.76320947411642L122.93928571428572,68.9522329529322L123.04285714285713,69.25386014055884L123.87142857142858,73.36589783331623L124.28571428571428,70.75477345219093L124.49285714285713,70.24526091226639L124.7,65.49177156161558L124.80357142857143,65.71672412574802L125.11428571428571,65.12830429877924L125.21785714285714,67.77624756257023L125.425,68.32055394667236L125.52857142857144,67.94492347957701L125.63214285714285,65.7209526880416L125.73571428571428,62.64030028999166L126.04642857142858,61.86508377399271L126.875,64.24750416656654L127.08214285714286,64.71889143743219L127.28928571428573,61.159352408182045L127.49642857142858,62.24558802578724L127.6,63.27208068441823L127.70357142857142,62.01711624671826L127.91071428571428,58.78417485301013L128.11785714285713,58.39904523607896L128.22142857142856,62.574097748254516L128.325,64.9175223721853L128.63571428571427,64.37305864169649L128.84285714285716,60.65454041628304L129.56785714285715,58.92054069333453L129.67142857142858,59.239910955210334L129.98214285714286,61.588715852737835L130.18928571428572,58.64633648076145L130.81071428571428,54.53078797421932L130.9142857142857,56.07059463567269L131.12142857142857,57.97071193075202L131.32857142857142,58.25332277456644L131.74285714285713,56.20639002192553L132.15714285714287,56.23003857072008L132.3642857142857,52.247386449261384L132.57142857142856,55.87078019461137L132.88214285714287,53.68788728387396L132.9857142857143,53.49405348325804L133.08928571428572,57.84988054173911L133.19285714285715,58.22813711194843L133.81428571428572,58.40758957079346L133.91785714285714,59.022172144406994L134.5392857142857,62.36195267650143L134.74642857142857,62.759045279298036L134.95357142857142,61.88829778892803L135.05714285714285,59.3744414105136L135.16071428571428,57.443847132918364L136.09285714285716,54.64043554058455L136.29999999999998,56.17421158586444L136.6107142857143,56.1996299486421L137.025,53.64265030144885L137.23214285714286,55.58730453488204L137.3357142857143,56.53500278546949L137.43928571428572,57.8755776322766L137.75,57.8964208625015L137.85357142857143,60.40811771507718L138.06071428571428,61.09067124075136L138.1642857142857,61.379684322511395L138.26785714285714,62.987801684780464L138.57857142857142,61.74847259211231L138.68214285714285,64.58230659955741L139.71785714285713,66.19227973658782L139.92499999999998,66.55670435107676L140.02857142857144,65.12108561176274L140.33928571428572,65.2774259031163L140.44285714285715,65.87016747844667L140.54642857142858,64.3833082671279L140.85714285714286,61.82122631242899L140.9607142857143,59.04405886523834L141.06428571428572,58.02163562764781L142.61785714285713,55.80944566812215L142.92857142857144,56.74492615637743L143.13571428571427,55.3149552177738L143.23928571428573,51.738632680789394L143.44642857142858,49.427007883341815L143.55,48.84452244975702L143.86071428571427,46.15807371501606L144.17142857142858,46.28937966069037L144.275,44.099463779349264L144.37857142857143,44.69999327148585L144.48214285714286,43.5764936415527L144.68928571428572,43.49378649126717L144.89642857142857,48.22162823425293L145.10357142857143,46.99343868136768L145.3107142857143,43.696799553889065L145.4142857142857,44.497475578425934L145.62142857142857,42.584114421610764L145.82857142857145,43.53498812842301L146.03571428571428,42.74256378135908L146.1392857142857,40.65872277338272L146.24285714285716,41.003493020846946L146.3464285714286,40.6173009047001L146.45,43.634349354943566L147.4857142857143,43.281460140421444L147.9,40.36697983269656L148.31428571428572,40.81679594189848L148.41785714285714,41.95387216509468L148.52142857142857,42.939409196014964L148.72857142857143,48.40974169023667L149.0392857142857,45.83620589727252L149.35,45.451214572922396L149.55714285714285,45.71039777141175L149.76428571428573,46.04432589398422L149.86785714285713,43.86788796981432L150.075,43.76915413147452L150.4892857142857,49.460850654245206L150.59285714285713,50.21150386826194L150.69642857142858,54.30287115550868L150.90357142857144,53.27421324195542L151.00714285714284,51.14513151364737L151.31785714285715,50.82414928039668L151.42142857142858,48.02882106997424L151.52499999999998,47.61223591112554L151.62857142857143,49.71056293601407L151.8357142857143,54.09648197453413L152.35357142857143,53.70217546593467L152.45714285714286,54.04155581530834L152.66428571428574,53.650270245466345L153.07857142857142,53.45850538196564L153.18214285714288,53.9002875859576L153.3892857142857,54.673771768730006L153.80357142857142,53.62471432144976L154.01071428571427,51.921355033769785L154.42499999999998,56.452680506912955L154.5285714285714,54.237783079032496L154.63214285714287,54.903705009685794L154.7357142857143,53.66400123415296L154.94285714285712,54.18348116627462L155.25357142857143,53.96238970212947L155.35714285714286,52.59645826851225L155.56428571428572,53.530653063744154L155.66785714285714,52.81146714523817L155.77142857142857,51.241836452249984L156.39285714285714,53.496535447376345L156.60000000000002,51.889225997770566L156.70357142857142,56.60031856789347L156.91071428571428,61.586301046659614L157.01428571428573,60.24605448909327L157.325,57.73352149219302L157.42857142857142,55.448177810122274L157.94642857142856,52.398528030565416L158.05,52.98760898888433L158.15357142857144,50.8742904944956L158.4642857142857,49.4112045172983L158.67142857142858,48.651588268846865L158.775,47.66675091406026L158.8785714285714,46.20207961378688L158.98214285714286,47.48796523502867L159.0857142857143,46.12212714710205L159.18928571428572,45.63241015401138L159.81071428571428,49.70862759554089L160.32857142857142,48.932653077786114L160.43214285714288,49.801357158507926L160.5357142857143,51.77928251479L160.6392857142857,50.711421976476544L161.05357142857144,51.21529376777033L161.46785714285716,48.66545261054293L161.675,47.14585271696302L161.7785714285714,45.976830817530015L162.19285714285715,48.610105122565955L162.60714285714286,49.14054934082483L163.33214285714286,45.547819127079435L163.5392857142857,42.95368907509001L163.85,46.554236175960085L164.05714285714285,50.312753186282336L164.16071428571428,51.37255176103683L164.36785714285716,49.34806141417977L164.4714285714286,48.32491803639988L164.575,47.53604754439786L164.78214285714284,44.20956492945598L164.8857142857143,43.55803885833586L165.19642857142856,43.83234672112738L166.95714285714286,42.84556765146539L167.06071428571428,42.26906143063479L167.1642857142857,40.211263051949885L167.26785714285714,40.75864358409265L167.68214285714285,39.49591818696754L167.99285714285713,40.97264268668434L168.09642857142856,40.499147338916686L168.40714285714287,45.925694235276296L168.51071428571427,44.556781052336106L168.6142857142857,44.77615809445763L169.02857142857144,43.55946939926244L169.13214285714284,42.587698582303005L169.23571428571427,41.13537516027634L169.44285714285715,42.877929526461145L169.54642857142858,43.723643402505786L169.64999999999998,44.344843015367985L169.85714285714286,41.63887664952273L170.06428571428572,42.90873843379899L170.68571428571428,41.26075781994004L170.89285714285714,39.436416139843345L171.41071428571428,39.31441325215195L171.5142857142857,36.707120523283606L172.44642857142858,34.332228894502975L172.54999999999998,34.57995630530533L173.68928571428572,37.92905870851354L174.10357142857143,36.37696047954529L174.20714285714286,41.763227653170304L174.51785714285714,39.37725013224593L174.62142857142857,40.1485013749724L174.93214285714285,40.343333799348926L175.13928571428573,41.32845044038473L175.24285714285716,41.369385666163566L175.34642857142856,44.16706945452461L176.07142857142856,42.53888063452575L176.175,44.6492421996268L176.27857142857144,43.350533878647326L176.38214285714287,43.81425451532172L176.5892857142857,42.47247051697903L176.69285714285715,44.58648463854519L176.9,41.77822798342518L177.0035714285714,43.84142544433681L177.10714285714286,43.29914704489832L177.2107142857143,45.18969395742889L177.72857142857143,50.26926078977027L177.93571428571428,48.572451446332934L178.45357142857142,45.98996661678461L178.55714285714288,44.88451845286147L178.86785714285713,48.11186993795408L179.59285714285716,47.423717091366626L179.8,46.59541265134146L180.8357142857143,44.47766495551767L181.04285714285714,46.57039338296417L181.14642857142857,45.43302174690115L181.35357142857143,47.8292055508216L181.45714285714286,44.575599245526405L181.6642857142857,42.83594128702245L181.76785714285714,43.95096451623621L182.3892857142857,45.449661467843214L182.49285714285716,47.39993008711184L183.11428571428573,45.77193393232068L183.21785714285716,45.03447756604305L184.15,42.37958129991071L184.56428571428572,41.11670432841561L184.77142857142857,41.79228559035275L185.18571428571428,43.05370988288337L185.80714285714285,43.62275583932478L186.01428571428573,42.2025042681619L186.11785714285713,41.661366533413L186.325,40.70499137407526L186.63571428571427,39.445216848501104L186.84285714285713,37.72072992183354L186.94642857142858,39.1170897761327L187.36071428571427,41.05964983844541L187.46428571428572,45.38736909733089L187.67142857142858,45.0270637969777L187.77499999999998,44.41957528814396L187.87857142857143,44.91349864729605L187.98214285714286,47.16025622169474L188.29285714285714,54.445442129501544L188.39642857142857,59.193942812378964L188.5,57.98527595769811L188.91428571428574,55.5970857800247L189.12142857142857,52.00524606212332L189.225,54.30695752870655L189.32857142857142,52.56607486462768L189.53571428571428,49.67494074707315L189.74285714285713,46.94281900598415L189.95000000000002,48.63296396065502L190.26071428571427,46.04715094281903L190.57142857142858,45.38355764096394L190.67499999999998,44.31146197071095L190.7785714285714,49.439331562321854L191.08928571428572,48.41116832639415L191.29642857142858,46.01555406844247L191.4,45.709698594678116L191.71071428571426,42.928665171970835L191.81428571428572,42.6145885875124L192.125,43.118786215199265L192.43571428571428,42.08225297336327L192.5392857142857,41.3697290598283L192.64285714285714,41.49739396153774L192.74642857142857,46.95803729365315L193.05714285714285,45.087345242502266L193.47142857142856,46.167541254164604L193.67857142857142,44.34032648518556L193.78214285714287,42.61360852850035L193.8857142857143,40.18086005943283L194.19642857142856,39.038912756164024L194.3,37.69277255457499L194.50714285714287,39.268670064073405L194.92142857142858,39.511893210549374L195.025,38.317739083969144L195.1285714285714,38.34626343435082L195.43928571428572,44.06921894546156L195.85357142857143,42.09041190346116L195.95714285714286,41.91143924877082L196.1642857142857,39.33931009008839L196.26785714285717,38.42164803513353L196.37142857142857,38.53345739320119L196.475,44.335117236575115L196.68214285714288,42.51968578856349L196.99285714285713,40.893103070192524L197.09642857142856,41.135982401331944L197.20000000000002,37.98350336925867L197.30357142857144,36.96241068394946L197.71785714285716,36.264478096332226L197.82142857142858,34.09193180103395L198.33928571428572,34.0858755519771L198.54642857142855,34.25815239661833L198.65,32.64095401480432L198.75357142857143,31.112701543990056L199.16785714285714,29.935502959070647L199.47857142857143,30.95905029632175L199.6857142857143,30.324302530024028L199.99642857142857,29.457465890872726L200.1,28.371305266874714L200.20357142857145,28.857883477196623L200.30714285714285,33.9456998859508L200.41071428571428,31.90068639222349L200.61785714285716,35.30814864065118L200.825,33.989200465415365L201.1357142857143,37.103794439817506L201.23928571428573,40.40308574562755L201.44642857142856,38.26991602961803L201.54999999999998,36.16507064798904L201.65357142857144,35.51099176234962L201.9642857142857,36.138887215420425L202.17142857142858,35.21924841857228L202.275,36.30818975555081L202.37857142857143,35.646239318995526L202.48214285714283,35.82169615645074L203.20714285714286,39.72550286784596L203.31071428571428,40.74460021011444L203.6214285714286,46.513647198558175L204.13928571428573,45.82439660263748L204.55357142857144,44.28305478949241L204.76071428571427,42.559486776070315L205.175,43.511715003386485L205.27857142857144,41.47457067820022L205.48571428571427,41.77446929089922L205.89999999999998,40.81187347989973L206.00357142857143,41.77122043850525L206.10714285714286,40.71980331438746L206.31428571428572,47.11321413209615L206.41785714285714,46.03498735483086L206.52142857142857,46.17306305031519L206.93571428571428,45.76954458254784L207.35,42.896219630507716L207.55714285714288,45.52092755082978L207.66071428571428,44.08527653553415L207.86785714285713,41.927586326079734L208.48928571428573,40.600569078145355L208.59285714285716,40.41453777884735L208.9035714285714,39.17073820101075L209.21428571428572,37.55034759995519L209.62857142857143,35.040078481957636L209.83571428571426,33.112874165449966L210.25,31.647666086350227L210.6642857142857,29.373044451600975L210.76785714285714,28.380527006762918L210.87142857142857,31.180598021390978L211.28571428571428,28.664665130214445L211.38928571428573,28.60110854805268L211.7,30.499047577909778L211.80357142857142,28.376599961124754L211.90714285714287,30.99888696326289L212.21785714285713,33.12094818028342L212.52857142857144,33.346296030367824L212.63214285714287,34.44924974869761L212.8392857142857,36.91554101251924L213.04642857142858,40.49218625683068L213.15,37.731116012705L213.2535714285714,35.477904632006215L213.97857142857143,41.180619877245874L214.18571428571428,41.58568578399738L214.2892857142857,41.701473065877536L214.9107142857143,40.20889204725427L215.0142857142857,38.976402984655294L215.11785714285713,37.45570082049926L215.22142857142856,39.845637275371786L215.32500000000002,39.79012722522634L215.53214285714284,38.49167022783891L215.84285714285716,38.68862836530775L216.56785714285715,37.53975380521581L216.67142857142855,38.23406734592896L216.775,39.42419364190286L217.70714285714286,37.7898629915982L218.01785714285714,38.73742052706032L218.12142857142857,39.72186239807198L218.43214285714285,38.87215996617803L218.53571428571428,36.11119116803823L218.6392857142857,34.65907565379612L218.74285714285716,34.35482649283733L218.8464285714286,33.80031103573128L219.15714285714284,31.674293928766048L219.2607142857143,31.623207762683904L219.36428571428573,30.59593133573631L219.46785714285716,29.447155112270792L219.88214285714287,31.921561581095943L219.9857142857143,30.432875694135646L220.0892857142857,31.25106753095818L220.4,30.42225881675546L220.60714285714283,30.61803458183394L220.81428571428572,30.714042679833057L221.02142857142857,31.338770332442238L221.125,29.615137964157924L221.22857142857143,30.389305376129244L221.43571428571428,28.361893580442143L221.5392857142857,30.00598943351784L222.05714285714285,29.601660014674337L222.36785714285713,31.17756871386726L222.575,31.776802434604576L222.88571428571427,37.23807830070132L223.19642857142858,37.948983994162745L223.3,36.66278987448379L223.50714285714284,34.913336431387165L223.71428571428572,33.616102927660904L224.3357142857143,31.678217266639535L224.43928571428572,30.113915316974357L224.64642857142857,28.190649974540776L224.85357142857143,27.619164225941034L225.37142857142857,29.393110193514275L225.78571428571428,30.71348913287099L225.8892857142857,29.825247230563093L225.99285714285713,29.51985863288212L226.0964285714286,32.6132664080736L227.33928571428572,34.290536755629574L227.54642857142858,36.854557234069944L227.75357142857143,34.6495565861961L227.96071428571426,35.5028309739553L228.375,34.351175270387785L228.47857142857143,32.817860630516435L228.58214285714286,30.567878295838028L228.68571428571428,30.310644989566924L228.7892857142857,30.86855951514073L228.89285714285714,37.269788741807986L228.99642857142857,35.842950361008576L229.20357142857142,34.85058809115307L229.30714285714285,35.15880574613965L229.41071428571428,34.560071430102L229.61785714285716,37.73226750144639L230.1357142857143,36.99199278886684L230.44642857142856,38.96243318547914L230.65357142857144,37.264499360277796L230.75714285714287,39.39795189546251L230.9642857142857,37.94306454121207L231.275,41.28519599144542L231.5857142857143,45.24451021191592L231.79285714285714,46.49406215026053L232.10357142857143,49.54388873199625L232.20714285714286,46.818974851736414L232.4142857142857,43.88793123489094L232.51785714285717,43.07609501697195L232.82857142857142,42.842909791038466L233.0357142857143,40.93154975253137L233.1392857142857,39.481314516142135L233.96785714285716,38.6448422177543L234.07142857142858,39.01137589577783L234.2785714285714,36.95475022151004L234.79642857142855,36.70223895932699L235.3142857142857,35.573615816564L235.41785714285714,34.062066946652976L235.52142857142857,32.455653264587056L235.72857142857143,30.75959233503474L235.83214285714286,30.847814756607818L236.0392857142857,29.596184944994405L236.24642857142857,29.214394773019706L236.55714285714285,35.172603060503604L236.66071428571428,33.772109892175905L237.075,39.39064384810624L237.59285714285716,38.381158436460396L237.79999999999998,36.18119472245505L238.42142857142858,38.10722901272001L238.525,44.73333141702045L238.62857142857143,44.23099818908429L238.73214285714283,42.06529328868464L238.8357142857143,41.53170215780699L239.14642857142857,39.24745853912759L239.35357142857143,38.868848319475546L239.6642857142857,36.1080616619044L239.76785714285714,34.74511827049969L240.07857142857142,34.2581367656222L240.2857142857143,33.53093924351299L240.49285714285713,31.508737585119746L240.59642857142856,31.73375701793816L240.7,29.899400381951523L241.1142857142857,29.144933360944208L241.52857142857144,29.232962026092252L241.63214285714284,27.803149114657174L241.73571428571427,34.46197591335101L242.14999999999998,36.5715672381167L242.25357142857143,42.6591310400203L242.4607142857143,40.84687883281916L242.56428571428572,42.07130049701411L242.77142857142857,40.202378969678335L242.875,37.63524812634603L242.97857142857143,35.29830947939698L243.18571428571428,33.71290245803013L243.28928571428574,31.591692822838468L243.39285714285714,32.52414971758239L243.49642857142857,35.007321483115334L243.80714285714288,34.238918801543974L244.0142857142857,34.93677826745906L244.11785714285713,35.15125546274882L244.73928571428573,33.48493641229763L244.84285714285716,33.69026490962125L244.94642857142858,39.6693003395921L245.3607142857143,41.314488820914505L245.56785714285712,43.40319193576423L245.775,42.61801637929722L246.18928571428572,39.65102547843583L246.9142857142857,38.00421907712186L247.22500000000002,36.09198702788015L247.43214285714285,36.687927741346755L247.63928571428573,36.18309171557269L247.74285714285716,34.81602167121619L247.95,33.79114047929929L248.15714285714287,32.82262775293785L248.36428571428573,33.86538322652626L248.46785714285713,33.515787149067336L248.57142857142856,34.075418855868634L248.88214285714287,34.693270818795895L248.98571428571427,34.387140923762075L249.29642857142858,34.09784817295517L249.4,36.761466523442635L249.7107142857143,43.10558586465328L250.02142857142857,47.40977864209739L250.43571428571428,46.849240816782014L251.05714285714288,46.319532571859014L251.1607142857143,44.48395828040677L251.47142857142856,43.9953405749844L251.57500000000002,42.64359684336026L251.78214285714284,41.633199016975425L251.9892857142857,40.67837307104176L252.09285714285716,37.90706255213448L252.3,36.53417411176707L252.4035714285714,35.32579453561988L252.6107142857143,34.62887583616077L252.71428571428572,33.08028766517194L252.81785714285715,31.527871843587462L252.92142857142855,30.327838892190186L253.12857142857143,29.460807753119695L253.3357142857143,30.243463326698134L253.4392857142857,29.20307284372973L253.85357142857143,27.952903837324612L253.95714285714286,28.284494126271767L254.1642857142857,29.22084694932684L254.475,36.33570036711387L254.68214285714285,34.960236846922584L254.99285714285716,33.21542382034187L255.61428571428573,39.57657551022308L256.23571428571427,45.587863857160784L256.65,44.23753134501692L256.9607142857143,41.893467121041L257.47857142857146,40.83532642938377L257.6857142857143,44.908383475767664L257.99642857142857,42.52742238460044L258.61785714285713,40.544414153447406L258.7214285714286,38.1364713750078L258.92857142857144,38.26396544938234L259.2392857142857,37.76144734966633L259.55,40.490567745434674L259.6535714285714,39.331586519435774L259.75714285714287,37.16834926086679L260.6892857142857,36.72609005151912L260.79285714285714,35.77415509868558L260.8964285714286,38.879576568257875L261,36.91919985700369L261.20714285714286,42.80964386486849L261.4142857142857,43.036113452300754L261.72499999999997,43.16112721242416L261.8285714285714,41.94426521574084L262.24285714285713,46.04533062887512L262.45,44.75883744428697L262.55357142857144,41.40710138485119L262.65714285714284,40.998710808684365L262.7607142857143,40.43478171420671L263.5892857142857,40.70286871992536L264.52142857142854,38.197210940329455L264.7285714285714,38.58836433861134L265.0392857142857,37.26700429998772L265.5571428571429,35.92931906348838L265.86785714285713,34.66520651499653L265.9714285714286,35.250620156671744L266.28214285714284,33.756836048054794L266.3857142857143,34.303210065411776L266.69642857142856,32.86153351181409L267.00714285714287,35.059149168664305L267.2142857142857,38.114895964387784L267.4214285714286,44.02857668634644L267.7321428571429,48.28200496859739L268.04285714285714,48.83049469532452L268.14642857142854,48.81481748708168L268.25,52.3600025252922L268.45714285714286,50.4592023864011L269.2857142857143,50.17594625514904L269.49285714285713,51.421269211115856L269.7,48.6820994045045L269.90714285714284,52.85758393725672L270.425,52.97641682070763L270.9428571428571,51.5757138955687L271.35714285714283,54.435049631312424L271.7714285714286,57.58212190159024L271.875,54.50410519700277L271.9785714285714,50.70537941116761" style="fill: none;" fill="none"></path></g></g></g></g><g opacity="0.2"><g><g><g><path stroke="rgb(0, 119, 187)" stroke-width="2px" d="M21.232142857142858,150.4909090909091L21.335714285714285,192.56363636363636L21.75,208.74545454545455L21.853571428571428,156.96363636363637L22.164285714285715,148.87272727272727L22.267857142857146,189.3272727272727L22.57857142857143,155.34545454545454L22.682142857142857,158.5818181818182L22.785714285714285,152.10909090909092L23.2,161.8181818181818L24.132142857142856,165.05454545454546L24.442857142857143,145.63636363636363L24.857142857142858,148.87272727272727L25.064285714285713,152.10909090909092L25.271428571428572,171.52727272727273L25.375,165.05454545454546L25.58214285714286,195.8L25.789285714285715,148.87272727272727L25.892857142857142,152.10909090909092L26.20357142857143,152.10909090909092L26.307142857142857,165.05454545454546L26.410714285714285,158.5818181818182L26.514285714285716,145.63636363636363L26.617857142857144,145.63636363636363L27.239285714285714,207.12727272727273L27.44642857142857,124.6L27.55,144.0181818181818L27.65357142857143,145.63636363636363L27.757142857142856,152.10909090909092L28.067857142857143,144.0181818181818L28.17142857142857,148.87272727272727L28.275000000000002,145.63636363636363L28.378571428571426,155.34545454545454L28.896428571428572,147.25454545454545L29.41428571428571,168.29090909090908L29.724999999999998,145.63636363636363L29.82857142857143,181.23636363636365L30.45,147.25454545454545L31.27857142857143,140.78181818181818L31.589285714285715,135.92727272727274L31.692857142857143,153.72727272727272L32.417857142857144,145.63636363636363L32.72857142857143,147.25454545454545L32.93571428571428,144.0181818181818L33.660714285714285,140.78181818181818L33.76428571428571,140.78181818181818L34.074999999999996,147.25454545454545L34.17857142857143,153.72727272727272L34.90357142857143,144.0181818181818L35.11071428571429,142.4L35.31785714285714,145.63636363636363L35.42142857142857,145.63636363636363L35.525,114.89090909090909L36.25,126.21818181818182L36.76785714285714,140.78181818181818L36.975,142.4L37.07857142857143,139.16363636363636L37.18214285714286,111.65454545454546L37.49285714285714,139.16363636363636L37.80357142857143,137.54545454545456L38.010714285714286,145.63636363636363L38.114285714285714,158.5818181818182L38.425000000000004,139.16363636363636L39.04642857142857,124.6L39.150000000000006,144.0181818181818L39.357142857142854,152.10909090909092L39.667857142857144,127.83636363636364L39.875,142.4L39.97857142857143,145.63636363636363L40.18571428571428,140.78181818181818L40.392857142857146,148.87272727272727L40.496428571428574,132.6909090909091L41.221428571428575,145.63636363636363L42.05,166.6727272727273L42.153571428571425,155.34545454545454L42.25714285714286,155.34545454545454L42.67142857142857,173.14545454545456L43.707142857142856,145.63636363636363L43.81071428571429,144.0181818181818L44.01785714285714,144.0181818181818L44.225,148.87272727272727L44.43214285714286,144.0181818181818L44.74285714285714,142.4L44.84642857142857,152.10909090909092L44.95,176.38181818181818L45.260714285714286,148.87272727272727L46.29642857142857,173.14545454545456L46.50357142857143,142.4L47.125,132.6909090909091L47.43571428571428,142.4L47.53928571428571,152.10909090909092L47.642857142857146,140.78181818181818L47.746428571428574,139.16363636363636L47.95357142857143,147.25454545454545L48.36785714285714,116.5090909090909L48.575,145.63636363636363L48.78214285714285,137.54545454545456L48.989285714285714,139.16363636363636L49.50714285714285,132.6909090909091L50.128571428571426,160.2L50.85357142857143,126.21818181818182L50.957142857142856,144.0181818181818L51.474999999999994,142.4L51.57857142857143,145.63636363636363L51.68214285714286,142.4L51.88928571428572,140.78181818181818L51.99285714285715,158.5818181818182L52.09642857142857,114.89090909090909L52.510714285714286,147.25454545454545L52.614285714285714,137.54545454545456L52.82142857142857,145.63636363636363L53.13214285714286,137.54545454545456L53.54642857142857,140.78181818181818L53.65,106.8L53.753571428571426,147.25454545454545L53.85714285714286,144.0181818181818L54.06428571428571,160.2L54.375,153.72727272727272L54.47857142857143,132.6909090909091L54.58214285714286,147.25454545454545L54.89285714285714,114.89090909090909L55.20357142857143,129.45454545454547L55.825,153.72727272727272L56.03214285714286,148.87272727272727L56.34285714285714,147.25454545454545L56.44642857142857,105.18181818181817L56.65357142857143,142.4L56.75714285714285,127.83636363636364L57.275000000000006,137.54545454545456L57.37857142857143,147.25454545454545L57.792857142857144,144.0181818181818L58,163.43636363636364L58.31071428571428,153.72727272727272L58.725,147.25454545454545L59.13928571428571,142.4L59.346428571428575,155.34545454545454L59.760714285714286,139.16363636363636L59.864285714285714,150.4909090909091L59.96785714285715,147.25454545454545L60.175,126.21818181818182L60.278571428571425,140.78181818181818L60.69285714285714,137.54545454545456L60.79642857142857,152.10909090909092L61.21071428571429,161.8181818181818L61.31428571428572,152.10909090909092L61.417857142857144,135.92727272727274L62.45357142857143,108.41818181818182L62.97142857142857,148.87272727272727L63.69642857142857,148.87272727272727L63.8,145.63636363636363L64.31785714285714,134.3090909090909L64.42142857142858,131.07272727272726L64.62857142857143,131.07272727272726L64.83571428571429,134.3090909090909L65.25,126.21818181818182L66.18214285714285,139.16363636363636L66.38928571428572,140.78181818181818L66.49285714285715,148.87272727272727L66.80357142857143,142.4L67.425,144.0181818181818L68.14999999999999,145.63636363636363L68.25357142857142,121.36363636363637L68.35714285714286,145.63636363636363L68.46071428571429,144.0181818181818L68.66785714285714,113.27272727272727L68.77142857142857,145.63636363636363L69.08214285714286,105.18181818181817L69.18571428571428,111.65454545454546L69.70357142857142,137.54545454545456L69.80714285714286,135.92727272727274L70.94642857142857,119.74545454545455L71.25714285714285,144.0181818181818L71.3607142857143,144.0181818181818L71.56785714285714,187.70909090909092L71.775,144.0181818181818L72.08571428571429,147.25454545454545L73.225,119.74545454545455L73.53571428571428,131.07272727272726L73.63928571428572,144.0181818181818L73.74285714285715,145.63636363636363L73.95,148.87272727272727L74.15714285714286,134.3090909090909L74.26071428571429,129.45454545454547L74.46785714285714,97.0909090909091L74.98571428571428,153.72727272727272L75.08928571428572,156.96363636363637L75.71071428571429,145.63636363636363L75.91785714285714,118.12727272727273L76.02142857142857,152.10909090909092L76.125,97.0909090909091L76.22857142857143,76.05454545454545L76.33214285714287,145.63636363636363L76.43571428571428,95.47272727272727L76.64285714285714,137.54545454545456L76.74642857142857,139.16363636363636L76.85000000000001,145.63636363636363L77.36785714285715,152.10909090909092L77.47142857142856,145.63636363636363L77.575,142.4L77.78214285714286,92.23636363636363L78.19642857142857,132.6909090909091L78.40357142857142,142.4L78.61071428571428,132.6909090909091L79.025,145.63636363636363L79.12857142857143,165.05454545454546L79.23214285714285,93.85454545454546L79.64642857142857,122.98181818181818L80.06071428571428,66.34545454545454L80.16428571428571,131.07272727272726L80.47500000000001,155.34545454545454L80.68214285714285,145.63636363636363L80.78571428571429,142.4L80.8892857142857,160.2L80.99285714285715,147.25454545454545L81.09642857142858,126.21818181818182L81.2,156.96363636363637L81.40714285714284,153.72727272727272L81.51071428571429,134.3090909090909L82.02857142857142,147.25454545454545L82.13214285714285,153.72727272727272L82.44285714285715,93.85454545454546L82.54642857142858,97.0909090909091L82.85714285714285,51.78181818181818L83.06428571428572,113.27272727272727L83.47857142857143,122.98181818181818L83.6857142857143,145.63636363636363L83.89285714285715,132.6909090909091L84.1,132.6909090909091L84.41071428571429,119.74545454545455L84.82499999999999,148.87272727272727L84.92857142857143,142.4L85.13571428571429,137.54545454545456L85.44642857142857,142.4L85.8607142857143,150.4909090909091L86.37857142857143,126.21818181818182L87.10357142857143,140.78181818181818L87.20714285714286,42.07272727272726L87.41428571428571,122.98181818181818L87.51785714285714,84.14545454545456L87.62142857142858,80.90909090909092L87.725,139.16363636363636L87.82857142857144,84.14545454545456L87.93214285714286,77.67272727272727L88.24285714285713,53.400000000000006L88.65714285714286,30.74545454545455L88.76071428571429,56.63636363636364L89.175,30.74545454545455L89.48571428571428,38.83636363636364L89.69285714285714,92.23636363636363L89.9,93.85454545454546L90.21071428571427,80.90909090909092L90.31428571428572,82.52727272727273L90.41785714285714,17.799999999999983L90.52142857142857,43.69090909090909L90.625,72.81818181818181L90.83214285714286,148.87272727272727L90.93571428571428,67.96363636363637L91.03928571428573,59.87272727272726L91.24642857142858,108.41818181818182L91.35,135.92727272727274L91.45357142857142,66.34545454545454L91.55714285714286,140.78181818181818L91.76428571428572,144.0181818181818L91.97142857142856,100.32727272727273L92.075,132.6909090909091L92.8,19.418181818181836L93.11071428571428,77.67272727272727L93.21428571428572,148.87272727272727L93.31785714285714,64.72727272727273L93.525,134.3090909090909L93.83571428571429,76.05454545454545L94.04285714285714,126.21818181818182L94.25,169.9090909090909L94.66428571428571,110.03636363636363L95.07857142857142,108.41818181818182L95.3892857142857,165.05454545454546L95.49285714285715,24.27272727272728L95.59642857142856,124.6L95.7,74.43636363636364L95.80357142857143,134.3090909090909L96.32142857142857,45.30909090909091L96.94285714285715,144.0181818181818L97.15,64.72727272727273L97.25357142857143,82.52727272727273L97.35714285714285,38.83636363636364L97.46071428571429,-8.090909090909093L97.66785714285714,67.96363636363637L97.97857142857143,77.67272727272727L98.08214285714286,58.25454545454545L98.39285714285715,134.3090909090909L98.49642857142857,55.018181818181816L98.60000000000001,118.12727272727273L98.80714285714285,92.23636363636363L99.0142857142857,55.018181818181816L99.63571428571429,72.81818181818181L99.94642857142857,76.05454545454545L100.05,8.090909090909093L100.3607142857143,38.83636363636364L100.46428571428571,33.98181818181817L100.56785714285715,-4.854545454545473L100.77499999999999,21.03636363636363L100.87857142857143,134.3090909090909L100.98214285714285,158.5818181818182L101.5,105.18181818181817L101.91428571428571,142.4L102.01785714285715,145.63636363636363L102.225,48.54545454545453L102.43214285714285,140.78181818181818L102.63928571428572,129.45454545454547L102.74285714285713,64.72727272727273L102.84642857142858,30.74545454545455L102.94999999999999,85.76363636363637L103.05357142857143,79.29090909090908L103.36428571428571,137.54545454545456L103.57142857142857,113.27272727272727L103.77857142857144,131.07272727272726L104.08928571428571,152.10909090909092L104.29642857142858,140.78181818181818L104.39999999999999,90.61818181818182L104.50357142857143,77.67272727272727L104.91785714285713,140.78181818181818L105.125,119.74545454545455L105.22857142857143,119.74545454545455L105.43571428571428,85.76363636363637L105.74642857142858,66.34545454545454L106.16071428571428,131.07272727272726L106.47142857142858,33.98181818181817L106.78214285714286,72.81818181818181L106.88571428571429,11.327272727272714L107.09285714285714,148.87272727272727L107.3,74.43636363636364L107.50714285714285,150.4909090909091L108.025,79.29090909090908L108.23214285714286,145.63636363636363L108.33571428571427,111.65454545454546L108.43928571428572,0L108.54285714285714,64.72727272727273L108.85357142857143,148.87272727272727L109.475,16.181818181818187L109.68214285714286,82.52727272727273L109.78571428571428,132.6909090909091L109.88928571428572,90.61818181818182L110.09642857142856,148.87272727272727L110.51071428571429,17.799999999999983L110.71785714285714,76.05454545454545L110.82142857142857,59.87272727272726L111.23571428571428,69.58181818181818L111.33928571428572,90.61818181818182L111.44285714285714,45.30909090909091L111.54642857142856,118.12727272727273L111.85714285714286,72.81818181818181L111.96071428571429,95.47272727272727L112.06428571428572,105.18181818181817L112.27142857142857,100.32727272727273L112.58214285714287,29.127272727272725L112.78928571428571,71.2L112.89285714285714,97.0909090909091L113.10000000000001,132.6909090909091L113.20357142857142,42.07272727272726L113.5142857142857,38.83636363636364L113.825,80.90909090909092L113.92857142857143,33.98181818181817L114.65357142857142,132.6909090909091L114.75714285714287,82.52727272727273L114.86071428571428,64.72727272727273L114.96428571428571,116.5090909090909L115.17142857142856,50.16363636363637L115.275,32.363636363636346L115.48214285714285,33.98181818181817L115.58571428571429,38.83636363636364L115.6892857142857,93.85454545454546L116,64.72727272727273L116.10357142857143,80.90909090909092L116.20714285714286,-3.2363636363636203L116.31071428571428,142.4L116.51785714285715,79.29090909090908L117.1392857142857,-3.2363636363636203L117.24285714285715,38.83636363636364L117.55357142857143,37.21818181818182L118.27857142857142,42.07272727272726L118.58928571428571,66.34545454545454L119.31428571428572,82.52727272727273L119.41785714285714,45.30909090909091L119.52142857142857,116.5090909090909L119.72857142857143,92.23636363636363L119.83214285714286,43.69090909090909L119.9357142857143,80.90909090909092L120.24642857142857,148.87272727272727L120.35,129.45454545454547L120.55714285714285,137.54545454545456L120.76428571428572,135.92727272727274L120.86785714285713,43.69090909090909L121.28214285714286,43.69090909090909L121.38571428571429,30.74545454545455L121.8,105.18181818181817L121.90357142857144,8.090909090909093L122.00714285714285,53.400000000000006L122.1107142857143,67.96363636363637L122.42142857142858,17.799999999999983L122.52499999999999,103.56363636363636L122.62857142857143,42.07272727272726L122.93928571428572,55.018181818181816L123.04285714285713,74.43636363636364L123.87142857142858,144.0181818181818L124.28571428571428,25.890909090909105L124.49285714285713,61.490909090909085L124.7,-16.18181818181816L124.80357142857143,69.58181818181818L125.11428571428571,55.018181818181816L125.21785714285714,113.27272727272727L125.425,77.67272727272727L125.52857142857144,61.490909090909085L125.63214285714285,27.5090909090909L125.73571428571428,9.709090909090918L126.04642857142858,48.54545454545453L126.875,105.18181818181817L127.08214285714286,72.81818181818181L127.28928571428573,0L127.49642857142858,80.90909090909092L127.6,80.90909090909092L127.70357142857142,40.45454545454547L127.91071428571428,3.2363636363636488L128.11785714285713,51.78181818181818L128.22142857142856,134.3090909090909L128.325,105.18181818181817L128.63571428571427,55.018181818181816L128.84285714285716,-3.2363636363636203L129.56785714285715,29.127272727272725L129.67142857142858,64.72727272727273L129.98214285714286,101.94545454545455L130.18928571428572,8.090909090909093L130.81071428571428,-16.18181818181816L130.9142857142857,82.52727272727273L131.12142857142857,90.61818181818182L131.32857142857142,63.109090909090895L131.74285714285713,21.03636363636363L132.15714285714287,56.63636363636364L132.3642857142857,-16.18181818181816L132.57142857142856,118.12727272727273L132.88214285714287,16.181818181818187L132.9857142857143,50.16363636363637L133.08928571428572,132.6909090909091L133.19285714285715,64.72727272727273L133.81428571428572,61.490909090909085L133.91785714285714,69.58181818181818L134.5392857142857,119.74545454545455L134.74642857142857,69.58181818181818L134.95357142857142,46.92727272727274L135.05714285714285,16.181818181818187L135.16071428571428,24.27272727272728L136.09285714285716,6.472727272727269L136.29999999999998,82.52727272727273L136.6107142857143,56.63636363636364L137.025,9.709090909090918L137.23214285714286,89L137.3357142857143,72.81818181818181L137.43928571428572,80.90909090909092L137.75,58.25454545454545L137.85357142857143,103.56363636363636L138.06071428571428,72.81818181818181L138.1642857142857,66.34545454545454L138.26785714285714,90.61818181818182L138.57857142857142,40.45454545454547L138.68214285714285,113.27272727272727L139.71785714285713,93.85454545454546L139.92499999999998,72.81818181818181L140.02857142857144,40.45454545454547L140.33928571428572,67.96363636363637L140.44285714285715,76.05454545454545L140.54642857142858,38.83636363636364L140.85714285714286,17.799999999999983L140.9607142857143,11.327272727272714L141.06428571428572,40.45454545454547L142.61785714285713,17.799999999999983L142.92857142857144,72.81818181818181L143.13571428571427,30.74545454545455L143.23928571428573,-9.70909090909089L143.44642857142858,9.709090909090918L143.55,38.83636363636364L143.86071428571427,0L144.17142857142858,48.54545454545453L144.275,6.472727272727269L144.37857142857143,55.018181818181816L144.48214285714286,24.27272727272728L144.68928571428572,42.07272727272726L144.89642857142857,129.45454545454547L145.10357142857143,25.890909090909105L145.3107142857143,-12.945454545454538L145.4142857142857,58.25454545454545L145.62142857142857,9.709090909090918L145.82857142857145,59.87272727272726L146.03571428571428,29.127272727272725L146.1392857142857,4.854545454545445L146.24285714285716,46.92727272727274L146.3464285714286,33.98181818181817L146.45,95.47272727272727L147.4857142857143,37.21818181818182L147.9,-9.70909090909089L148.31428571428572,48.54545454545453L148.41785714285714,61.490909090909085L148.52142857142857,59.87272727272726L148.72857142857143,142.4L149.0392857142857,1.618181818181796L149.35,38.83636363636364L149.55714285714285,50.16363636363637L149.76428571428573,51.78181818181818L149.86785714285713,6.472727272727269L150.075,42.07272727272726L150.4892857142857,147.25454545454545L150.59285714285713,63.109090909090895L150.69642857142858,124.6L150.90357142857144,35.599999999999994L151.00714285714284,14.563636363636363L151.31785714285715,45.30909090909091L151.42142857142858,0L151.52499999999998,40.45454545454547L151.62857142857143,85.76363636363637L151.8357142857143,129.45454545454547L152.35357142857143,46.92727272727274L152.45714285714286,59.87272727272726L152.66428571428574,46.92727272727274L153.07857142857142,50.16363636363637L153.18214285714288,61.490909090909085L153.3892857142857,67.96363636363637L153.80357142857142,35.599999999999994L154.01071428571427,22.654545454545456L154.42499999999998,134.3090909090909L154.5285714285714,16.181818181818187L154.63214285714287,66.34545454545454L154.7357142857143,32.363636363636346L154.94285714285712,63.109090909090895L155.25357142857143,50.16363636363637L155.35714285714286,29.127272727272725L155.56428571428572,69.58181818181818L155.66785714285714,40.45454545454547L155.77142857142857,24.27272727272728L156.39285714285714,92.23636363636363L156.60000000000002,24.27272727272728L156.70357142857142,137.54545454545456L156.91071428571428,147.25454545454545L157.01428571428573,37.21818181818182L157.325,14.563636363636363L157.42857142857142,16.181818181818187L157.94642857142856,0L158.05,63.109090909090895L158.15357142857144,14.563636363636363L158.4642857142857,24.27272727272728L158.67142857142858,35.599999999999994L158.775,30.74545454545455L158.8785714285714,21.03636363636363L158.98214285714286,69.58181818181818L159.0857142857143,22.654545454545456L159.18928571428572,37.21818181818182L159.81071428571428,119.74545454545455L160.32857142857142,35.599999999999994L160.43214285714288,64.72727272727273L160.5357142857143,85.76363636363637L160.6392857142857,32.363636363636346L161.05357142857144,59.87272727272726L161.46785714285716,4.854545454545445L161.675,21.03636363636363L161.7785714285714,25.890909090909105L162.19285714285715,93.85454545454546L162.60714285714286,58.25454545454545L163.33214285714286,-16.18181818181816L163.5392857142857,-1.618181818181796L163.85,108.41818181818182L164.05714285714285,114.89090909090909L164.16071428571428,69.58181818181818L164.36785714285716,14.563636363636363L164.4714285714286,30.74545454545455L164.575,33.98181818181817L164.78214285714284,-12.945454545454538L164.8857142857143,32.363636363636346L165.19642857142856,48.54545454545453L166.95714285714286,25.890909090909105L167.06071428571428,32.363636363636346L167.1642857142857,4.854545454545445L167.26785714285714,50.16363636363637L167.68214285714285,17.799999999999983L167.99285714285713,66.34545454545454L168.09642857142856,32.363636363636346L168.40714285714287,139.16363636363636L168.51071428571427,21.03636363636363L168.6142857142857,48.54545454545453L169.02857142857144,22.654545454545456L169.13214285714284,25.890909090909105L169.23571428571427,16.181818181818187L169.44285714285715,72.81818181818181L169.54642857142858,58.25454545454545L169.64999999999998,55.018181818181816L169.85714285714286,-4.854545454545473L170.06428571428572,64.72727272727273L170.68571428571428,12.945454545454538L170.89285714285714,8.090909090909093L171.41071428571428,37.21818181818182L171.5142857142857,-8.090909090909093L172.44642857142858,-6.472727272727269L172.54999999999998,38.83636363636364L173.68928571428572,95.47272727272727L174.10357142857143,9.709090909090918L174.20714285714286,134.3090909090909L174.51785714285714,-1.618181818181796L174.62142857142857,53.400000000000006L174.93214285714285,43.69090909090909L175.13928571428573,58.25454545454545L175.24285714285716,42.07272727272726L175.34642857142856,92.23636363636363L176.07142857142856,14.563636363636363L176.175,80.90909090909092L176.27857142857144,21.03636363636363L176.38214285714287,51.78181818181818L176.5892857142857,19.418181818181836L176.69285714285715,80.90909090909092L176.9,-6.472727272727269L177.0035714285714,79.29090909090908L177.10714285714286,33.98181818181817L177.2107142857143,77.67272727272727L177.72857142857143,137.54545454545456L177.93571428571428,19.418181818181836L178.45357142857142,1.618181818181796L178.55714285714288,25.890909090909105L178.86785714285713,103.56363636363636L179.59285714285716,35.599999999999994L179.8,32.363636363636346L180.8357142857143,8.090909090909093L181.04285714285714,82.52727272727273L181.14642857142857,25.890909090909105L181.35357142857143,89L181.45714285714286,-11.327272727272742L181.6642857142857,12.945454545454538L181.76785714285714,63.109090909090895L182.3892857142857,71.2L182.49285714285716,80.90909090909092L183.11428571428573,17.799999999999983L183.21785714285716,32.363636363636346L184.15,-3.2363636363636203L184.56428571428572,19.418181818181836L184.77142857142857,53.400000000000006L185.18571428571428,64.72727272727273L185.80714285714285,53.400000000000006L186.01428571428573,17.799999999999983L186.11785714285713,32.363636363636346L186.325,24.27272727272728L186.63571428571427,17.799999999999983L186.84285714285713,8.090909090909093L186.94642857142858,63.109090909090895L187.36071428571427,74.43636363636364L187.46428571428572,119.74545454545455L187.67142857142858,38.83636363636364L187.77499999999998,33.98181818181817L187.87857142857143,53.400000000000006L187.98214285714286,85.76363636363637L188.29285714285714,179.61818181818182L188.39642857142857,140.78181818181818L188.5,37.21818181818182L188.91428571428574,14.563636363636363L189.12142857142857,-9.70909090909089L189.225,93.85454545454546L189.32857142857142,22.654545454545456L189.53571428571428,0L189.74285714285713,0L189.95000000000002,77.67272727272727L190.26071428571427,1.618181818181796L190.57142857142858,33.98181818181817L190.67499999999998,25.890909090909105L190.7785714285714,137.54545454545456L191.08928571428572,30.74545454545455L191.29642857142858,4.854545454545445L191.4,40.45454545454547L191.71071428571426,-4.854545454545473L191.81428571428572,37.21818181818182L192.125,51.78181818181818L192.43571428571428,24.27272727272728L192.5392857142857,29.127272727272725L192.64285714285714,43.69090909090909L192.74642857142857,140.78181818181818L193.05714285714285,12.945454545454538L193.47142857142856,64.72727272727273L193.67857142857142,12.945454545454538L193.78214285714287,12.945454545454538L193.8857142857143,-1.618181818181796L194.19642857142856,19.418181818181836L194.3,14.563636363636363L194.50714285714287,66.34545454545454L194.92142857142858,43.69090909090909L195.025,17.799999999999983L195.1285714285714,38.83636363636364L195.43928571428572,142.4L195.85357142857143,8.090909090909093L195.95714285714286,38.83636363636364L196.1642857142857,-4.854545454545473L196.26785714285717,22.654545454545456L196.37142857142857,40.45454545454547L196.475,144.0181818181818L196.68214285714288,11.327272727272714L196.99285714285713,12.945454545454538L197.09642857142856,45.30909090909091L197.20000000000002,-16.18181818181816L197.30357142857144,19.418181818181836L197.71785714285716,24.27272727272728L197.82142857142858,-3.2363636363636203L198.33928571428572,33.98181818181817L198.54642857142855,37.21818181818182L198.65,4.854545454545445L198.75357142857143,4.854545454545445L199.16785714285714,9.709090909090918L199.47857142857143,48.54545454545453L199.6857142857143,19.418181818181836L199.99642857142857,14.563636363636363L200.1,9.709090909090918L200.20357142857145,37.21818181818182L200.30714285714285,121.36363636363637L200.41071428571428,-3.2363636363636203L200.61785714285716,93.85454545454546L200.825,11.327272727272714L201.1357142857143,90.61818181818182L201.23928571428573,97.0909090909091L201.44642857142856,1.618181818181796L201.54999999999998,0L201.65357142857144,24.27272727272728L201.9642857142857,46.92727272727274L202.17142857142858,19.418181818181836L202.275,55.018181818181816L202.37857142857143,24.27272727272728L202.48214285714283,38.83636363636364L203.20714285714286,106.8L203.31071428571428,58.25454545454545L203.6214285714286,145.63636363636363L204.13928571428573,33.98181818181817L204.55357142857144,17.799999999999983L204.76071428571427,12.945454545454538L205.175,59.87272727272726L205.27857142857144,6.472727272727269L205.48571428571427,46.92727272727274L205.89999999999998,24.27272727272728L206.00357142857143,58.25454545454545L206.10714285714286,22.654545454545456L206.31428571428572,156.96363636363637L206.41785714285714,27.5090909090909L206.52142857142857,48.54545454545453L206.93571428571428,38.83636363636364L207.35,-6.472727272727269L207.55714285714288,90.61818181818182L207.66071428571428,19.418181818181836L207.86785714285713,4.854545454545445L208.48928571428573,17.799999999999983L208.59285714285716,37.21818181818182L208.9035714285714,17.799999999999983L209.21428571428572,9.709090909090918L209.62857142857143,-8.090909090909093L209.83571428571426,0L210.25,6.472727272727269L210.6642857142857,-9.70909090909089L210.76785714285714,11.327272727272714L210.87142857142857,79.29090909090908L211.28571428571428,-14.563636363636363L211.38928571428573,27.5090909090909L211.7,63.109090909090895L211.80357142857142,-8.090909090909093L211.90714285714287,76.05454545454545L212.21785714285713,69.58181818181818L212.52857142857144,37.21818181818182L212.63214285714287,53.400000000000006L212.8392857142857,79.29090909090908L213.04642857142858,101.94545454545455L213.15,-9.70909090909089L213.2535714285714,-3.2363636363636203L213.97857142857143,139.16363636363636L214.18571428571428,48.54545454545453L214.2892857142857,43.69090909090909L214.9107142857143,14.563636363636363L215.0142857142857,17.799999999999983L215.11785714285713,11.327272727272714L215.22142857142856,80.90909090909092L215.32500000000002,38.83636363636364L215.53214285714284,16.181818181818187L215.84285714285716,42.07272727272726L216.56785714285715,17.799999999999983L216.67142857142855,50.16363636363637L216.775,59.87272727272726L217.70714285714286,9.709090909090918L218.01785714285714,55.018181818181816L218.12142857142857,56.63636363636364L218.43214285714285,24.27272727272728L218.53571428571428,-11.327272727272742L218.6392857142857,9.709090909090918L218.74285714285716,29.127272727272725L218.8464285714286,24.27272727272728L219.15714285714284,-4.854545454545473L219.2607142857143,30.74545454545455L219.36428571428573,12.945454545454538L219.46785714285716,9.709090909090918L219.88214285714287,74.43636363636364L219.9857142857143,4.854545454545445L220.0892857142857,45.30909090909091L220.4,16.181818181818187L220.60714285714283,33.98181818181817L220.81428571428572,32.363636363636346L221.02142857142857,42.07272727272726L221.125,0L221.22857142857143,43.69090909090909L221.43571428571428,-6.472727272727269L221.5392857142857,58.25454545454545L222.05714285714285,22.654545454545456L222.36785714285713,58.25454545454545L222.575,42.07272727272726L222.88571428571427,131.07272727272726L223.19642857142858,50.16363636363637L223.3,14.563636363636363L223.50714285714284,4.854545454545445L223.71428571428572,11.327272727272714L224.3357142857143,-1.618181818181796L224.43928571428572,3.2363636363636488L224.64642857142857,-4.854545454545473L224.85357142857143,17.799999999999983L225.37142857142857,59.87272727272726L225.78571428571428,53.400000000000006L225.8892857142857,14.563636363636363L225.99285714285713,24.27272727272728L226.0964285714286,85.76363636363637L227.33928571428572,63.109090909090895L227.54642857142858,80.90909090909092L227.75357142857143,-3.2363636363636203L227.96071428571426,50.16363636363637L228.375,14.563636363636363L228.47857142857143,6.472727272727269L228.58214285714286,-8.090909090909093L228.68571428571428,25.890909090909105L228.7892857142857,40.45454545454547L228.89285714285714,147.25454545454545L228.99642857142857,11.327272727272714L229.20357142857142,17.799999999999983L229.30714285714285,40.45454545454547L229.41071428571428,24.27272727272728L229.61785714285716,92.23636363636363L230.1357142857143,24.27272727272728L230.44642857142856,72.81818181818181L230.65357142857144,8.090909090909093L230.75714285714287,76.05454545454545L230.9642857142857,12.945454545454538L231.275,98.70909090909092L231.5857142857143,113.27272727272727L231.79285714285714,67.96363636363637L232.10357142857143,101.94545454545455L232.20714285714286,0L232.4142857142857,-6.472727272727269L232.51785714285717,29.127272727272725L232.82857142857142,38.83636363636364L233.0357142857143,8.090909090909093L233.1392857142857,14.563636363636363L233.96785714285716,24.27272727272728L234.07142857142858,45.30909090909091L234.2785714285714,1.618181818181796L234.79642857142855,32.363636363636346L235.3142857142857,16.181818181818187L235.41785714285714,8.090909090909093L235.52142857142857,4.854545454545445L235.72857142857143,1.618181818181796L235.83214285714286,32.363636363636346L236.0392857142857,8.090909090909093L236.24642857142857,22.654545454545456L236.55714285714285,137.54545454545456L236.66071428571428,9.709090909090918L237.075,135.92727272727274L237.59285714285716,21.03636363636363L237.79999999999998,-1.618181818181796L238.42142857142858,71.2L238.525,158.5818181818182L238.62857142857143,35.599999999999994L238.73214285714283,4.854545454545445L238.8357142857143,32.363636363636346L239.14642857142857,0L239.35357142857143,32.363636363636346L239.6642857142857,-11.327272727272742L239.76785714285714,11.327272727272714L240.07857142857142,25.890909090909105L240.2857142857143,21.03636363636363L240.49285714285713,-3.2363636363636203L240.59642857142856,35.599999999999994L240.7,-1.618181818181796L241.1142857142857,16.181818181818187L241.52857142857144,30.74545454545455L241.63214285714284,3.2363636363636488L241.73571428571427,148.87272727272727L242.14999999999998,72.81818181818181L242.25357142857143,147.25454545454545L242.4607142857143,9.709090909090918L242.56428571428572,63.109090909090895L242.77142857142857,8.090909090909093L242.875,-6.472727272727269L242.97857142857143,-4.854545454545473L243.18571428571428,6.472727272727269L243.28928571428574,-4.854545454545473L243.39285714285714,48.54545454545453L243.49642857142857,77.67272727272727L243.80714285714288,21.03636363636363L244.0142857142857,46.92727272727274L244.11785714285713,38.83636363636364L244.73928571428573,4.854545454545445L244.84285714285716,37.21818181818182L244.94642857142858,142.4L245.3607142857143,69.58181818181818L245.56785714285712,79.29090909090908L245.775,29.127272727272725L246.18928571428572,-11.327272727272742L246.9142857142857,9.709090909090918L247.22500000000002,3.2363636363636488L247.43214285714285,46.92727272727274L247.63928571428573,27.5090909090909L247.74285714285716,11.327272727272714L247.95,16.181818181818187L248.15714285714287,16.181818181818187L248.36428571428573,51.78181818181818L248.46785714285713,27.5090909090909L248.57142857142856,43.69090909090909L248.88214285714287,45.30909090909091L248.98571428571427,29.127272727272725L249.29642857142858,29.127272727272725L249.4,82.52727272727273L249.7107142857143,152.10909090909092L250.02142857142857,121.36363636363637L250.43571428571428,37.21818181818182L251.05714285714288,37.21818181818182L251.1607142857143,12.945454545454538L251.47142857142856,35.599999999999994L251.57500000000002,19.418181818181836L251.78214285714284,24.27272727272728L251.9892857142857,24.27272727272728L252.09285714285716,-9.70909090909089L252.3,12.945454545454538L252.4035714285714,14.563636363636363L252.6107142857143,22.654545454545456L252.71428571428572,6.472727272727269L252.81785714285715,4.854545454545445L252.92142857142855,9.709090909090918L253.12857142857143,14.563636363636363L253.3357142857143,43.69090909090909L253.4392857142857,11.327272727272714L253.85357142857143,6.472727272727269L253.95714285714286,33.98181818181817L254.1642857142857,45.30909090909091L254.475,158.5818181818182L254.68214285714285,11.327272727272714L254.99285714285716,3.2363636363636488L255.61428571428573,148.87272727272727L256.23571428571427,148.87272727272727L256.65,21.03636363636363L256.9607142857143,1.618181818181796L257.47857142857146,22.654545454545456L257.6857142857143,114.89090909090909L257.99642857142857,1.618181818181796L258.61785714285713,6.472727272727269L258.7214285714286,-3.2363636363636203L258.92857142857144,40.45454545454547L259.2392857142857,29.127272727272725L259.55,87.38181818181819L259.6535714285714,19.418181818181836L259.75714285714287,0L260.6892857142857,29.127272727272725L260.79285714285714,19.418181818181836L260.8964285714286,92.23636363636363L261,3.2363636363636488L261.20714285714286,144.0181818181818L261.4142857142857,46.92727272727274L261.72499999999997,45.30909090909091L261.8285714285714,21.03636363636363L262.24285714285713,116.5090909090909L262.45,22.654545454545456L262.55357142857144,-16.18181818181816L262.65714285714284,33.98181818181817L262.7607142857143,30.74545454545455L263.5892857142857,45.30909090909091L264.52142857142854,-4.854545454545473L264.7285714285714,45.30909090909091L265.0392857142857,14.563636363636363L265.5571428571429,12.945454545454538L265.86785714285713,12.945454545454538L265.9714285714286,45.30909090909091L266.28214285714284,8.090909090909093L266.3857142857143,43.69090909090909L266.69642857142856,8.090909090909093L267.00714285714287,72.81818181818181L267.2142857142857,90.61818181818182L267.4214285714286,145.63636363636363L267.7321428571429,121.36363636363637L268.04285714285714,58.25454545454545L268.14642857142854,48.54545454545453L268.25,113.27272727272727L268.45714285714286,17.799999999999983L269.2857142857143,45.30909090909091L269.49285714285713,72.81818181818181L269.7,1.618181818181796L269.90714285714284,124.6L270.425,55.018181818181816L270.9428571428571,27.5090909090909L271.35714285714283,103.56363636363636L271.7714285714286,111.65454545454546L271.875,1.618181818181796L271.9785714285714,-14.563636363636363" style="fill: none;" fill="none"></path></g></g></g></g></g></g><g transform="translate(40, 178)" clip-path="url(#clip_1)"><clipPath id="clip_1"><rect width="290" height="21"></rect></clipPath><g><g><line x1="0" y1="0" x2="0" y2="5" style="visibility: inherit;" fill="rgb(0, 0, 0)" stroke="rgb(204, 204, 204)" stroke-width="1px"></line><line x1="20.71428571428571" y1="0" x2="20.71428571428571" y2="5" style="visibility: inherit;" fill="rgb(0, 0, 0)" stroke="rgb(204, 204, 204)" stroke-width="1px"></line><line x1="41.42857142857142" y1="0" x2="41.42857142857142" y2="5" style="visibility: inherit;" fill="rgb(0, 0, 0)" stroke="rgb(204, 204, 204)" stroke-width="1px"></line><line x1="62.14285714285714" y1="0" x2="62.14285714285714" y2="5" style="visibility: inherit;" fill="rgb(0, 0, 0)" stroke="rgb(204, 204, 204)" stroke-width="1px"></line><line x1="82.85714285714285" y1="0" x2="82.85714285714285" y2="5" style="visibility: inherit;" fill="rgb(0, 0, 0)" stroke="rgb(204, 204, 204)" stroke-width="1px"></line><line x1="103.57142857142857" y1="0" x2="103.57142857142857" y2="5" style="visibility: inherit;" fill="rgb(0, 0, 0)" stroke="rgb(204, 204, 204)" stroke-width="1px"></line><line x1="124.28571428571428" y1="0" x2="124.28571428571428" y2="5" style="visibility: inherit;" fill="rgb(0, 0, 0)" stroke="rgb(204, 204, 204)" stroke-width="1px"></line><line x1="145" y1="0" x2="145" y2="5" style="visibility: inherit;" fill="rgb(0, 0, 0)" stroke="rgb(204, 204, 204)" stroke-width="1px"></line><line x1="165.7142857142857" y1="0" x2="165.7142857142857" y2="5" style="visibility: inherit;" fill="rgb(0, 0, 0)" stroke="rgb(204, 204, 204)" stroke-width="1px"></line><line x1="186.42857142857144" y1="0" x2="186.42857142857144" y2="5" style="visibility: inherit;" fill="rgb(0, 0, 0)" stroke="rgb(204, 204, 204)" stroke-width="1px"></line><line x1="207.14285714285714" y1="0" x2="207.14285714285714" y2="5" style="visibility: inherit;" fill="rgb(0, 0, 0)" stroke="rgb(204, 204, 204)" stroke-width="1px"></line><line x1="227.85714285714286" y1="0" x2="227.85714285714286" y2="5" style="visibility: inherit;" fill="rgb(0, 0, 0)" stroke="rgb(204, 204, 204)" stroke-width="1px"></line><line x1="248.57142857142856" y1="0" x2="248.57142857142856" y2="5" style="visibility: inherit;" fill="rgb(0, 0, 0)" stroke="rgb(204, 204, 204)" stroke-width="1px"></line><line x1="269.2857142857143" y1="0" x2="269.2857142857143" y2="5" style="visibility: inherit;" fill="rgb(0, 0, 0)" stroke="rgb(204, 204, 204)" stroke-width="1px"></line><line x1="290" y1="0" x2="290" y2="5" style="visibility: inherit;" fill="rgb(0, 0, 0)" stroke="rgb(204, 204, 204)" stroke-width="1px"></line></g><g transform="translate(0, 8)"><text x="0" y="0" dx="0em" dy="0.95em" style="text-anchor: middle; visibility: hidden; font-family: &quot;Helvetica Neue&quot;, sans-serif; font-size: 12px; font-weight: 200;" fill="rgb(50, 49, 63)" stroke="none" stroke-width="1px">-200</text><text x="20.71428571428571" y="0" dx="0em" dy="0.95em" style="text-anchor: middle; visibility: inherit; font-family: &quot;Helvetica Neue&quot;, sans-serif; font-size: 12px; font-weight: 200;" fill="rgb(50, 49, 63)" stroke="none" stroke-width="1px">0</text><text x="41.42857142857142" y="0" dx="0em" dy="0.95em" style="text-anchor: middle; visibility: hidden; font-family: &quot;Helvetica Neue&quot;, sans-serif; font-size: 12px; font-weight: 200;" fill="rgb(50, 49, 63)" stroke="none" stroke-width="1px">200</text><text x="62.14285714285714" y="0" dx="0em" dy="0.95em" style="text-anchor: middle; visibility: inherit; font-family: &quot;Helvetica Neue&quot;, sans-serif; font-size: 12px; font-weight: 200;" fill="rgb(50, 49, 63)" stroke="none" stroke-width="1px">400</text><text x="82.85714285714285" y="0" dx="0em" dy="0.95em" style="text-anchor: middle; visibility: hidden; font-family: &quot;Helvetica Neue&quot;, sans-serif; font-size: 12px; font-weight: 200;" fill="rgb(50, 49, 63)" stroke="none" stroke-width="1px">600</text><text x="103.57142857142857" y="0" dx="0em" dy="0.95em" style="text-anchor: middle; visibility: inherit; font-family: &quot;Helvetica Neue&quot;, sans-serif; font-size: 12px; font-weight: 200;" fill="rgb(50, 49, 63)" stroke="none" stroke-width="1px">800</text><text x="124.28571428571428" y="0" dx="0em" dy="0.95em" style="text-anchor: middle; visibility: hidden; font-family: &quot;Helvetica Neue&quot;, sans-serif; font-size: 12px; font-weight: 200;" fill="rgb(50, 49, 63)" stroke="none" stroke-width="1px">1k</text><text x="145" y="0" dx="0em" dy="0.95em" style="text-anchor: middle; visibility: inherit; font-family: &quot;Helvetica Neue&quot;, sans-serif; font-size: 12px; font-weight: 200;" fill="rgb(50, 49, 63)" stroke="none" stroke-width="1px">1.2k</text><text x="165.7142857142857" y="0" dx="0em" dy="0.95em" style="text-anchor: middle; visibility: hidden; font-family: &quot;Helvetica Neue&quot;, sans-serif; font-size: 12px; font-weight: 200;" fill="rgb(50, 49, 63)" stroke="none" stroke-width="1px">1.4k</text><text x="186.42857142857144" y="0" dx="0em" dy="0.95em" style="text-anchor: middle; visibility: inherit; font-family: &quot;Helvetica Neue&quot;, sans-serif; font-size: 12px; font-weight: 200;" fill="rgb(50, 49, 63)" stroke="none" stroke-width="1px">1.6k</text><text x="207.14285714285714" y="0" dx="0em" dy="0.95em" style="text-anchor: middle; visibility: hidden; font-family: &quot;Helvetica Neue&quot;, sans-serif; font-size: 12px; font-weight: 200;" fill="rgb(50, 49, 63)" stroke="none" stroke-width="1px">1.8k</text><text x="227.85714285714286" y="0" dx="0em" dy="0.95em" style="text-anchor: middle; visibility: inherit; font-family: &quot;Helvetica Neue&quot;, sans-serif; font-size: 12px; font-weight: 200;" fill="rgb(50, 49, 63)" stroke="none" stroke-width="1px">2k</text><text x="248.57142857142856" y="0" dx="0em" dy="0.95em" style="text-anchor: middle; visibility: hidden; font-family: &quot;Helvetica Neue&quot;, sans-serif; font-size: 12px; font-weight: 200;" fill="rgb(50, 49, 63)" stroke="none" stroke-width="1px">2.2k</text><text x="269.2857142857143" y="0" dx="0em" dy="0.95em" style="text-anchor: middle; visibility: inherit; font-family: &quot;Helvetica Neue&quot;, sans-serif; font-size: 12px; font-weight: 200;" fill="rgb(50, 49, 63)" stroke="none" stroke-width="1px">2.4k</text><text x="290" y="0" dx="0em" dy="0.95em" style="text-anchor: middle; visibility: hidden; font-family: &quot;Helvetica Neue&quot;, sans-serif; font-size: 12px; font-weight: 200;" fill="rgb(50, 49, 63)" stroke="none" stroke-width="1px">2.6k</text></g><line x1="0" y1="0" x2="290" y2="0" fill="rgb(0, 0, 0)" stroke="rgb(204, 204, 204)" stroke-width="1px"></line></g></g></g></g></svg>