<svg viewBox="0 0 330 200" xmlns="http://www.w3.org/2000/svg"><g><g><g><g><g><line x1="70" y1="178" x2="65" y2="178" style="visibility: inherit;" fill="rgb(0, 0, 0)" stroke="rgb(204, 204, 204)" stroke-width="1px"></line><line x1="70" y1="161.8181818181818" x2="65" y2="161.8181818181818" style="visibility: inherit;" fill="rgb(0, 0, 0)" stroke="rgb(204, 204, 204)" stroke-width="1px"></line><line x1="70" y1="145.63636363636363" x2="65" y2="145.63636363636363" style="visibility: inherit;" fill="rgb(0, 0, 0)" stroke="rgb(204, 204, 204)" stroke-width="1px"></line><line x1="70" y1="129.45454545454547" x2="65" y2="129.45454545454547" style="visibility: inherit;" fill="rgb(0, 0, 0)" stroke="rgb(204, 204, 204)" stroke-width="1px"></line><line x1="70" y1="113.27272727272727" x2="65" y2="113.27272727272727" style="visibility: inherit;" fill="rgb(0, 0, 0)" stroke="rgb(204, 204, 204)" stroke-width="1px"></line><line x1="70" y1="97.0909090909091" x2="65" y2="97.0909090909091" style="visibility: inherit;" fill="rgb(0, 0, 0)" stroke="rgb(204, 204, 204)" stroke-width="1px"></line><line x1="70" y1="80.90909090909092" x2="65" y2="80.90909090909092" style="visibility: inherit;" fill="rgb(0, 0, 0)" stroke="rgb(204, 204, 204)" stroke-width="1px"></line><line x1="70" y1="64.72727272727273" x2="65" y2="64.72727272727273" style="visibility: inherit;" fill="rgb(0, 0, 0)" stroke="rgb(204, 204, 204)" stroke-width="1px"></line><line x1="70" y1="48.54545454545453" x2="65" y2="48.54545454545453" style="visibility: inherit;" fill="rgb(0, 0, 0)" stroke="rgb(204, 204, 204)" stroke-width="1px"></line><line x1="70" y1="32.363636363636346" x2="65" y2="32.363636363636346" style="visibility: inherit;" fill="rgb(0, 0, 0)" stroke="rgb(204, 204, 204)" stroke-width="1px"></line><line x1="70" y1="16.181818181818187" x2="65" y2="16.181818181818187" style="visibility: inherit;" fill="rgb(0, 0, 0)" stroke="rgb(204, 204, 204)" stroke-width="1px"></line><line x1="70" y1="0" x2="65" y2="0" style="visibility: inherit;" fill="rgb(0, 0, 0)" stroke="rgb(204, 204, 204)" stroke-width="1px"></line></g><g transform="translate(60, 0)"><text x="0" y="178" dx="0em" dy="0.3em" style="text-anchor: end; visibility: hidden; font-family: &quot;Helvetica Neue&quot;, sans-serif; font-size: 12px; font-weight: 200;" fill="rgb(50, 49, 63)" stroke="none" stroke-width="1px">-200</text><text x="0" y="161.8181818181818" dx="0em" dy="0.3em" style="text-anchor: end; visibility: inherit; font-family: &quot;Helvetica Neue&quot;, sans-serif; font-size: 12px; font-weight: 200;" fill="rgb(50, 49, 63)" stroke="none" stroke-width="1px">0</text><text x="0" y="145.63636363636363" dx="0em" dy="0.3em" style="text-anchor: end; visibility: hidden; font-family: &quot;Helvetica Neue&quot;, sans-serif; font-size: 12px; font-weight: 200;" fill="rgb(50, 49, 63)" stroke="none" stroke-width="1px">200</text><text x="0" y="129.45454545454547" dx="0em" dy="0.3em" style="text-anchor: end; visibility: inherit; font-family: &quot;Helvetica Neue&quot;, sans-serif; font-size: 12px; font-weight: 200;" fill="rgb(50, 49, 63)" stroke="none" stroke-width="1px">400</text><text x="0" y="113.27272727272727" dx="0em" dy="0.3em" style="text-anchor: end; visibility: hidden; font-family: &quot;Helvetica Neue&quot;, sans-serif; font-size: 12px; font-weight: 200;" fill="rgb(50, 49, 63)" stroke="none" stroke-width="1px">600</text><text x="0" y="97.0909090909091" dx="0em" dy="0.3em" style="text-anchor: end; visibility: inherit; font-family: &quot;Helvetica Neue&quot;, sans-serif; font-size: 12px; font-weight: 200;" fill="rgb(50, 49, 63)" stroke="none" stroke-width="1px">800</text><text x="0" y="80.90909090909092" dx="0em" dy="0.3em" style="text-anchor: end; visibility: hidden; font-family: &quot;Helvetica Neue&quot;, sans-serif; font-size: 12px; font-weight: 200;" fill="rgb(50, 49, 63)" stroke="none" stroke-width="1px">1e+3</text><text x="0" y="64.72727272727273" dx="0em" dy="0.3em" style="text-anchor: end; visibility: inherit; font-family: &quot;Helvetica Neue&quot;, sans-serif; font-size: 12px; font-weight: 200;" fill="rgb(50, 49, 63)" stroke="none" stroke-width="1px">1.2e+3</text><text x="0" y="48.54545454545453" dx="0em" dy="0.3em" style="text-anchor: end; visibility: hidden; font-family: &quot;Helvetica Neue&quot;, sans-serif; font-size: 12px; font-weight: 200;" fill="rgb(50, 49, 63)" stroke="none" stroke-width="1px">1.4e+3</text><text x="0" y="32.363636363636346" dx="0em" dy="0.3em" style="text-anchor: end; visibility: inherit; font-family: &quot;Helvetica Neue&quot;, sans-serif; font-size: 12px; font-weight: 200;" fill="rgb(50, 49, 63)" stroke="none" stroke-width="1px">1.6e+3</text><text x="0" y="16.181818181818187" dx="0em" dy="0.3em" style="text-anchor: end; visibility: hidden; font-family: &quot;Helvetica Neue&quot;, sans-serif; font-size: 12px; font-weight: 200;" fill="rgb(50, 49, 63)" stroke="none" stroke-width="1px">1.8e+3</text><text x="0" y="0" dx="0em" dy="0.3em" style="text-anchor: end; visibility: hidden; font-family: &quot;Helvetica Neue&quot;, sans-serif; font-size: 12px; font-weight: 200;" fill="rgb(50, 49, 63)" stroke="none" stroke-width="1px">2e+3</text></g><line x1="70" y1="0" x2="70" y2="178" fill="rgb(0, 0, 0)" stroke="rgb(204, 204, 204)" stroke-width="1px"></line></g></g><g transform="translate(70, 0)" clip-path="url(#clip_0)"><clipPath id="clip_0"><rect width="260" height="177"></rect></clipPath><g><g><g><line x1="0" y1="0" x2="0" y2="178" fill="rgb(0, 0, 0)" stroke="rgb(60, 60, 60)" stroke-width="1px" opacity="0.25"></line><line x1="18.57142857142857" y1="0" x2="18.57142857142857" y2="178" fill="rgb(0, 0, 0)" stroke="rgb(60, 60, 60)" stroke-width="1px" opacity="0.25"></line><line x1="37.14285714285714" y1="0" x2="37.14285714285714" y2="178" fill="rgb(0, 0, 0)" stroke="rgb(60, 60, 60)" stroke-width="1px" opacity="0.25"></line><line x1="55.71428571428571" y1="0" x2="55.71428571428571" y2="178" fill="rgb(0, 0, 0)" stroke="rgb(60, 60, 60)" stroke-width="1px" opacity="0.25"></line><line x1="74.28571428571428" y1="0" x2="74.28571428571428" y2="178" fill="rgb(0, 0, 0)" stroke="rgb(60, 60, 60)" stroke-width="1px" opacity="0.25"></line><line x1="92.85714285714286" y1="0" x2="92.85714285714286" y2="178" fill="rgb(0, 0, 0)" stroke="rgb(60, 60, 60)" stroke-width="1px" opacity="0.25"></line><line x1="111.42857142857142" y1="0" x2="111.42857142857142" y2="178" fill="rgb(0, 0, 0)" stroke="rgb(60, 60, 60)" stroke-width="1px" opacity="0.25"></line><line x1="130" y1="0" x2="130" y2="178" fill="rgb(0, 0, 0)" stroke="rgb(60, 60, 60)" stroke-width="1px" opacity="0.25"></line><line x1="148.57142857142856" y1="0" x2="148.57142857142856" y2="178" fill="rgb(0, 0, 0)" stroke="rgb(60, 60, 60)" stroke-width="1px" opacity="0.25"></line><line x1="167.14285714285717" y1="0" x2="167.14285714285717" y2="178" fill="rgb(0, 0, 0)" stroke="rgb(60, 60, 60)" stroke-width="1px" opacity="0.25"></line><line x1="185.71428571428572" y1="0" x2="185.71428571428572" y2="178" fill="rgb(0, 0, 0)" stroke="rgb(60, 60, 60)" stroke-width="1px" opacity="0.25"></line><line x1="204.28571428571428" y1="0" x2="204.28571428571428" y2="178" fill="rgb(0, 0, 0)" stroke="rgb(60, 60, 60)" stroke-width="1px" opacity="0.25"></line><line x1="222.85714285714283" y1="0" x2="222.85714285714283" y2="178" fill="rgb(0, 0, 0)" stroke="rgb(60, 60, 60)" stroke-width="1px" opacity="0.25"></line><line x1="241.42857142857144" y1="0" x2="241.42857142857144" y2="178" fill="rgb(0, 0, 0)" stroke="rgb(60, 60, 60)" stroke-width="1px" opacity="0.25"></line><line x1="260" y1="0" x2="260" y2="178" fill="rgb(0, 0, 0)" stroke="rgb(60, 60, 60)" stroke-width="1px" opacity="0.25"></line></g><g><line x1="0" y1="178" x2="260" y2="178" fill="rgb(0, 0, 0)" stroke="rgb(60, 60, 60)" stroke-width="1px" opacity="0.25"></line><line x1="0" y1="161.8181818181818" x2="260" y2="161.8181818181818" fill="rgb(0, 0, 0)" stroke="rgb(60, 60, 60)" stroke-width="1px" opacity="0.25"></line><line x1="0" y1="145.63636363636363" x2="260" y2="145.63636363636363" fill="rgb(0, 0, 0)" stroke="rgb(60, 60, 60)" stroke-width="1px" opacity="0.25"></line><line x1="0" y1="129.45454545454547" x2="260" y2="129.45454545454547" fill="rgb(0, 0, 0)" stroke="rgb(60, 60, 60)" stroke-width="1px" opacity="0.25"></line><line x1="0" y1="113.27272727272727" x2="260" y2="113.27272727272727" fill="rgb(0, 0, 0)" stroke="rgb(60, 60, 60)" stroke-width="1px" opacity="0.25"></line><line x1="0" y1="97.0909090909091" x2="260" y2="97.0909090909091" fill="rgb(0, 0, 0)" stroke="rgb(60, 60, 60)" stroke-width="1px" opacity="0.25"></line><line x1="0" y1="80.90909090909092" x2="260" y2="80.90909090909092" fill="rgb(0, 0, 0)" stroke="rgb(60, 60, 60)" stroke-width="1px" opacity="0.25"></line><line x1="0" y1="64.72727272727273" x2="260" y2="64.72727272727273" fill="rgb(0, 0, 0)" stroke="rgb(60, 60, 60)" stroke-width="1px" opacity="0.25"></line><line x1="0" y1="48.54545454545453" x2="260" y2="48.54545454545453" fill="rgb(0, 0, 0)" stroke="rgb(60, 60, 60)" stroke-width="1px" opacity="0.25"></line><line x1="0" y1="32.363636363636346" x2="260" y2="32.363636363636346" fill="rgb(0, 0, 0)" stroke="rgb(60, 60, 60)" stroke-width="1px" opacity="0.25"></line><line x1="0" y1="16.181818181818187" x2="260" y2="16.181818181818187" fill="rgb(0, 0, 0)" stroke="rgb(60, 60, 60)" stroke-width="1px" opacity="0.25"></line><line x1="0" y1="0" x2="260" y2="0" fill="rgb(0, 0, 0)" stroke="rgb(60, 60, 60)" stroke-width="1px" opacity="0.25"></line></g></g></g><g><g><line x1="0" y1="161.8181818181818" x2="260" y2="161.8181818181818" fill="rgb(0, 0, 0)" stroke="rgb(153, 153, 153)" stroke-width="1.5px"></line></g></g><g><g><line x1="18.57142857142857" y1="0" x2="18.57142857142857" y2="178" fill="rgb(0, 0, 0)" stroke="rgb(153, 153, 153)" stroke-width="1.5px"></line></g></g><g><g><g><g><g><path stroke="rgb(0, 119, 187)" stroke-width="2px" d="M19.03571428571429,17.880909090909086L19.128571428571426,17.83931058658561L19.5,17.796950255899844L19.59285714285714,17.75382931622829L19.87142857142857,17.67382471994344L19.964285714285715,17.651552470066008L20.242857142857144,17.690130660332898L20.335714285714285,17.71895676449978L20.428571428571427,17.674361900964243L20.8,17.680056044882548L21.635714285714286,17.64626833383892L21.914285714285715,17.627305645569407L22.285714285714285,17.645547074277886L22.47142857142857,17.62040319453726L22.65714285714286,17.614332608385865L22.75,17.594117473367135L22.935714285714287,17.619651082887316L23.12142857142857,17.614280199366192L23.214285714285715,17.596007254794443L23.492857142857144,17.59943141965948L23.585714285714285,17.615300036455125L23.678571428571427,17.604566517012188L23.771428571428572,17.594877835436904L23.864285714285714,17.586101904579778L24.42142857142857,17.578127732929858L24.607142857142858,17.570861370367L24.7,17.558538763074836L24.792857142857144,17.569648366593754L24.885714285714286,17.57984448100777L25.164285714285715,17.578324568039903L25.257142857142856,17.60383315878275L25.35,17.590130382358183L25.44285714285714,17.60378430278581L25.90714285714286,17.611211333452673L26.37142857142857,17.628420913245407L26.65,17.629038322835015L26.742857142857144,17.61946019418548L27.3,17.620625689611245L28.042857142857144,17.631712032613905L28.321428571428573,17.642042869262298L28.414285714285715,17.641807352082907L29.064285714285713,17.63177575421514L29.34285714285714,17.62728361103339L29.52857142857143,17.61823185226669L30.17857142857143,17.638737142044704L30.27142857142857,17.643510329024224L30.549999999999997,17.657550520128865L30.642857142857142,17.661175117393952L31.292857142857144,17.664572989202327L31.478571428571428,17.677218850251506L31.664285714285715,17.689084509094414L31.757142857142856,17.681430918873673L31.849999999999998,17.669560160237523L32.5,17.677089212162798L32.964285714285715,17.67019210904789L33.15,17.663708652904035L33.24285714285715,17.662246520281343L33.33571428571429,17.67011886438965L33.614285714285714,17.654455976264586L33.892857142857146,17.658134369037924L34.07857142857143,17.643213686922593L34.17142857142857,17.642928381868103L34.45,17.65181917222864L35.00714285714286,17.66933808542754L35.1,17.681276495672392L35.285714285714285,17.692525195142906L35.56428571428572,17.69402008002109L35.75,17.681787838244333L35.84285714285714,17.68842337327868L36.028571428571425,17.690142869166465L36.214285714285715,17.700827505789448L36.30714285714286,17.69279524271863L36.95714285714286,17.694265153378865L37.699999999999996,17.70468905344859L37.792857142857144,17.714522438104893L37.885714285714286,17.7147771625109L38.25714285714285,17.728541018028324L39.18571428571428,17.71450102741855L39.27857142857143,17.710254817381752L39.46428571428571,17.706247410581256L39.65,17.697969096173864L39.83571428571429,17.69464868888963L40.114285714285714,17.691514370326246L40.207142857142856,17.679578007190685L40.3,17.663822649057266L40.57857142857143,17.675855191599197L41.50714285714286,17.673767945649644L41.69285714285714,17.662835421709303L42.25,17.67042888991901L42.528571428571425,17.677599398346302L42.62142857142857,17.693322809372745L42.714285714285715,17.694747881277408L42.80714285714286,17.696093732628242L42.99285714285715,17.683949014212175L43.364285714285714,17.685890818112796L43.550000000000004,17.669846552549444L43.73571428571428,17.672566248722433L43.92142857142857,17.65726525881749L44.385714285714286,17.65621177575602L44.94285714285714,17.668613445352406L45.59285714285714,17.658004689003292L45.68571428571428,17.665838867547933L46.15,17.682165856120747L46.24285714285714,17.68420240691063L46.33571428571429,17.690588083722133L46.52142857142857,17.69662074566162L46.61428571428572,17.702320002086736L46.707142857142856,17.68540482585962L47.07857142857143,17.68280209662069L47.17142857142857,17.689260794101585L47.357142857142854,17.67752945774214L47.635714285714286,17.67536149683437L48.00714285714285,17.668855722867136L48.1,17.680537138947585L48.19285714285714,17.67374744532117L48.285714285714285,17.67624486425592L48.47142857142857,17.669692648701755L48.75,17.66350174200474L48.84285714285714,17.671018107950744L48.93571428571429,17.673665094433062L49.214285714285715,17.66725669087299L49.49285714285715,17.66120148017356L50.050000000000004,17.65993419376352L50.23571428571429,17.66764474145117L50.51428571428571,17.661569121657976L50.60714285714286,17.66918893434317L50.792857142857144,17.654122117823505L50.88571428571428,17.662151154880746L51.35,17.6741909944854L51.44285714285714,17.69002061970224L51.81428571428572,17.68716776038758L52,17.69337708205049L52.278571428571425,17.699244511217728L52.650000000000006,17.70033662045131L53.02142857142857,17.692464309713074L53.20714285714286,17.69392944041107L53.57857142857143,17.69976583482449L53.67142857142857,17.68747371107048L53.76428571428572,17.693665038212373L53.949999999999996,17.690612351590005L54.042857142857144,17.70108226832329L54.41428571428572,17.697621620321172L54.50714285714285,17.68544869746853L54.87857142857143,17.673945684904908L54.971428571428575,17.680880571789004L55.06428571428572,17.665178075788134L55.99285714285714,17.672595095903944L56.457142857142856,17.679603985785462L57.107142857142854,17.677325268795954L57.2,17.68407377210079L57.66428571428571,17.686000090413046L57.75714285714286,17.692271241505097L57.94285714285714,17.698197355595482L58.128571428571426,17.681543759422254L58.5,17.67025709676986L59.33571428571428,17.681844659994994L59.52142857142857,17.69724534330186L59.614285714285714,17.6939964228753L59.89285714285714,17.68647568653921L60.45,17.68826973412024L61.099999999999994,17.698866072767714L61.19285714285714,17.70442902121465L61.285714285714285,17.71413638552295L61.378571428571426,17.723309742037884L61.56428571428572,17.7052761128011L61.65714285714286,17.69713524684454L61.93571428571428,17.684991850076813L62.02857142857143,17.691317770024398L62.49285714285714,17.70174602750393L62.58571428571429,17.71160065220829L63.607142857142854,17.707562362218056L63.885714285714286,17.699295940722408L63.97857142857143,17.695934475082822L64.16428571428571,17.69720814659152L64.35,17.680610865608713L64.62857142857143,17.664926524185802L65.65,17.672355898308126L65.92857142857143,17.67492643276546L66.02142857142857,17.677355576181384L66.11428571428571,17.68410127461607L66.3,17.677125455194783L66.4857142857143,17.692784084021724L66.57857142857142,17.69868114761664L66.76428571428572,17.69535358413347L67.22857142857143,17.70555942789926L67.32142857142858,18.663079450131136L67.87857142857143,18.593358305723967L68.06428571428572,18.554172656353416L68.15714285714286,18.517142318530404L68.25,19.821627511955796L68.34285714285714,21.23236663544327L68.4357142857143,21.02133242231119L68.52857142857142,20.853056088646895L68.71428571428572,20.689585203428095L68.80714285714285,20.521755300349867L68.9,20.35425619643047L69.36428571428571,20.195969817343325L69.45714285714286,20.04638943389844L69.55,19.909486247599062L69.7357142857143,22.04519055968595L70.10714285714285,21.789452130482175L70.29285714285714,21.561129775744604L70.47857142857143,21.345365416627146L70.85000000000001,21.154818464792868L70.94285714285714,20.9480515481431L71.03571428571428,22.238969929339703L71.40714285714286,22.613379657421547L71.77857142857142,25.014212404771484L71.87142857142857,24.59517764996565L72.15,24.19919013536176L72.33571428571427,23.842782344142904L72.42857142857143,23.514877286170815L72.52142857142857,23.178307067314478L72.61428571428571,22.86914847021697L72.70714285714286,22.572543755478222L72.80000000000001,22.28780244378197L72.98571428571428,22.018722054545094L73.07857142857144,21.782241299395537L73.54285714285714,21.54096702313467L73.63571428571429,21.326312992095296L73.91428571428573,21.123465023132383L74.00714285714285,21.77282672903101L74.28571428571428,24.464630198916325L74.47142857142858,24.084724345633248L74.84285714285714,23.721263428633677L75.02857142857144,23.400043039749335L75.21428571428572,23.069789797846028L75.39999999999999,22.757700577820458L75.67857142857143,22.471676369510533L76.05,22.21918360481618L76.14285714285715,21.95832795555586L76.32857142857144,21.73406947036071L76.60714285714286,21.517695241343574L76.97857142857144,21.313221638584025L77.44285714285715,21.111094107974964L78.09285714285714,20.92898364214068L78.18571428571428,25.171295923594442L78.37142857142857,24.748074046154187L78.46428571428571,26.479682299841585L78.55714285714286,26.90565031411836L78.64999999999999,26.40928895136645L78.74285714285715,25.962477552491777L78.83571428571429,27.382542808485L79.11428571428571,29.196204790208355L79.48571428571428,33.1618173207996L79.57857142857142,35.040319066542025L79.95,37.51415363150437L80.22857142857143,40.21237736031631L80.41428571428571,38.97079565818129L80.6,40.058102680960104L80.87857142857142,41.5172580277341L80.97142857142858,40.19500798481718L81.06428571428572,44.641485251252476L81.15714285714286,44.39785342234157L81.25,45.876422287551435L81.43571428571428,44.314418259642366L81.52857142857142,45.761975957804395L81.62142857142858,47.833018229845095L81.80714285714286,48.2371024023133L81.9,46.54526107735106L81.99285714285713,47.838972218752616L82.08571428571429,46.16457813438279L82.27142857142857,44.595625794771934L82.45714285714286,44.91076647897998L82.55,43.4196738624496L83.2,47.26604292180605L83.47857142857143,47.47881061974735L83.57142857142858,45.84647561051926L83.66428571428571,47.71706991234154L83.85000000000001,46.06273068238241L84.12857142857143,44.49938015123294L84.31428571428572,43.02201393605529L84.5,41.63925289815913L84.87142857142857,40.3325437463817L85.24285714285713,39.09325362310042L85.52142857142856,37.899874476152235L85.61428571428571,41.33783191812387L85.70714285714286,40.052150972442206L85.8,38.814932496007714L85.89285714285714,37.645761054278466L86.35714285714285,41.306844653326436L86.91428571428571,40.013968044873394L87.10000000000001,41.79150000056683L87.19285714285714,40.4808673624608L87.28571428571428,43.425319950662015L87.37857142857143,48.6019278403908L87.56428571428572,49.996121933120946L87.84285714285714,48.22978507839912L87.93571428571428,49.57769700610453L88.21428571428572,47.83882354030425L88.30714285714285,49.817888385906485L88.4,48.06135440699023L88.58571428571427,50.068230041674994L88.77142857142857,48.27567728212637L89.32857142857144,47.9434150128221L89.60714285714286,49.40052726497581L89.69999999999999,53.349598464809915L89.97857142857143,56.45847069759341L90.07142857142857,59.5832549501322L90.16428571428573,63.60862609940823L90.35,66.15325176641115L90.44285714285715,63.498272818224606L90.53571428571428,60.967067722196276L91,58.57062891603577L91.37142857142857,56.32824425364066L91.46428571428572,54.19139075484068L91.64999999999999,55.74541430789242L91.83571428571429,53.65396646427648L92.02142857142857,51.67754825812294L92.11428571428571,53.58788315016112L92.20714285714286,56.510099643737405L92.3,54.36324411693086L92.39285714285715,54.581715694961886L92.67142857142858,52.53647129226296L92.85714285714286,50.62151533626013L93.04285714285714,48.8029819614205L93.32142857142857,47.09336792569516L93.50714285714287,45.482232664982206L93.6,43.95525984619664L93.69285714285715,44.203270558065014L94.0642857142857,42.7288406582185L94.25,41.335504404912484L94.34285714285714,40.01880164736795L94.52857142857142,39.25956754843969L94.80714285714286,40.5178913463111L95.17857142857142,39.25950730994478L95.45714285714286,38.648834402248326L95.73571428571428,38.14294850570198L95.82857142857142,42.38633637294561L96.0142857142857,41.02518786180681L96.2,40.66450252674636L96.38571428571429,39.40250487897657L96.85,41.56521712488208L97.03571428571429,40.262580174903064L97.12857142857142,39.009338257909604L97.22142857142858,44.041674681705246L97.31428571428572,46.616732587741694L97.59285714285714,45.04071228759037L98.15,49.21177313134467L98.33571428571429,47.671025602288694L98.42857142857143,46.023669187259884L98.52142857142857,44.46691737579607L98.70714285714286,42.995786914622244L99.07857142857142,45.8419686443828L99.26428571428572,44.28186036372824L99.35714285714285,44.16480804335356L99.72857142857143,46.617393608288296L99.82142857142858,45.0101869552999L99.91428571428571,48.80912668288269L100.00714285714285,49.328624716632476L100.28571428571429,51.68855036283415L100.37857142857143,53.43808009681304L100.47142857142858,54.87778569454815L100.65714285714286,55.73100748306169L100.9357142857143,59.011502077719626L101.12142857142857,60.184719465549335L101.21428571428572,57.85355989099291L101.4,55.64616409345267L101.49285714285713,53.5423750651284L101.77142857142856,56.19564444034151L102.05,57.2211339975089L102.14285714285714,58.653021629474964L102.79285714285714,56.39720543713082L102.88571428571429,58.05240913997676L102.97857142857143,55.825176634877124L103.07142857142857,53.729341917823845L103.25714285714285,56.51472811502495L103.35000000000001,55.97851806821076L103.53571428571428,59.32994957734036L103.62857142857143,61.84290235262813L103.72142857142856,59.398292721356825L104,61.720586623366984L104.09285714285714,61.574454358981626L104.18571428571428,65.66385937188709L104.27857142857142,63.01354710481064L104.46428571428572,63.04550201406457L105.02142857142857,67.12519940552158L105.11428571428571,69.02696343920051L105.39285714285714,71.10448045105886L106.04285714285714,73.54388402737618L106.32142857142857,70.47797040453366L106.97142857142858,71.65688203277007L107.06428571428572,73.19815352156787L107.15714285714286,70.54285507690456L107.34285714285714,68.59429804699721L107.43571428571428,70.07261165489815L107.52857142857144,70.4817180140058L107.80714285714286,67.56642352237998L107.89999999999999,64.80702022788384L108.08571428571429,62.21718411467151L108.27142857142857,59.76978898775849L108.36428571428571,61.53765059384553L108.73571428571428,63.38627981159286L108.82857142857144,65.79183442245798L109.2,63.15673352870236L109.29285714285714,66.42486318523369L109.38571428571429,68.31174571037864L109.47857142857144,66.30789969597382L109.75714285714287,68.87761521310001L109.85,66.18849637597926L109.94285714285715,68.60012907563961L110.22142857142858,69.7087719766268L110.3142857142857,69.101039517836L111.05714285714286,66.2794823440201L111.42857142857142,68.85966081538841L111.61428571428571,70.56812947072316L111.8,74.59453235023669L111.89285714285715,75.80068307108786L112.17142857142858,75.47644550214902L112.2642857142857,72.29979099926229L112.45,73.04920249436273L112.54285714285714,73.8018963572296L112.63571428571429,75.74584205772065L112.72857142857143,78.42392074472657L113.00714285714287,78.44490510376794L113.75,75.11388532286016L113.93571428571428,72.62912162996147L114.12142857142858,76.12831994050173L114.30714285714286,73.21396234362606L114.4,71.22529441463115L114.49285714285713,70.29830322178438L114.67857142857143,73.39614654471907L114.86428571428571,75.13990848483016L114.95714285714286,71.97286351804325L115.05,68.9755560244424L115.32857142857142,68.46155044308048L115.51428571428572,72.06536516882751L116.16428571428571,74.15822008460593L116.25714285714285,75.33941797998666L116.53571428571429,72.17919999100123L116.72142857142858,75.3115439915769L117.27857142857142,79.03255907213078L117.37142857142857,79.41166832317232L117.55714285714285,77.19782656534969L117.74285714285713,76.19154610423476L118.11428571428571,78.85846106855364L118.4857142857143,75.851795709728L118.67142857142856,79.54754694575708L118.85714285714285,76.13363186368449L119.13571428571429,78.34983211121616L119.22857142857143,79.18034134511144L119.32142857142857,75.7955225710835L119.41428571428571,74.08316882965153L119.97142857142856,71.97549454399466L120.06428571428572,69.82354234404983L120.62142857142857,66.95779751509546L120.80714285714285,65.18416865174673L120.99285714285715,66.26263937591128L121.08571428571427,68.13619421025362L121.17857142857143,70.40955352870964L122.01428571428572,73.51907808465648L122.19999999999999,71.30002878998292L122.47857142857143,72.9988772065465L122.85,76.13953896020847L123.03571428571428,72.93531431737576L123.12857142857143,73.03567202992072L123.22142857142858,72.56091006827226L123.5,71.84971001451328L123.59285714285714,70.58132596370838L123.77857142857144,71.11375303570708L123.87142857142857,70.83369661874187L123.96428571428572,69.60784330470558L124.24285714285715,68.7386619229431L124.33571428571429,67.34768551717568L125.2642857142857,64.60476281372065L125.45,62.030500858956884L125.54285714285714,64.47502331172245L125.82142857142857,62.83794702957253L125.91428571428571,63.956459942949394L126.00714285714287,66.73115464609506L126.28571428571428,69.7359411405679L126.37857142857143,72.20611437784291L126.47142857142858,74.00197808706588L127.86428571428571,76.17076929228216L128.14285714285714,76.65387698120766L128.32857142857142,79.01946374724602L128.42142857142858,82.24284324115366L128.60714285714286,84.68818686289461L128.7,85.89988658543747L128.97857142857143,88.33989282324237L129.25714285714287,89.13714871796525L129.35,91.44360553848048L129.44285714285715,90.78855723386317L129.53571428571428,91.9005865860021L129.7214285714286,91.36725432377136L129.90714285714287,87.29880533595927L130.09285714285713,88.36692104248263L130.27857142857144,91.34764038514915L130.37142857142857,91.9082701639665L130.55714285714285,93.68851530495L130.74285714285716,93.54189696317762L130.92857142857142,94.92969263020397L131.02142857142857,96.34795953554385L131.11428571428573,96.64247176108917L131.20714285714286,97.11658581422958L131.3,96.67462359444666L132.22857142857143,96.22581929675182L132.6,98.4894992354318L132.9714285714286,98.29242677748294L133.06428571428572,96.98034330472069L133.15714285714284,94.06722442295961L133.34285714285716,89.8769770796949L133.62142857142857,91.90244334031259L133.9,92.4058589565956L134.0857142857143,92.60568671398292L134.27142857142857,92.83012394471395L134.36428571428573,94.61751712775529L134.54999999999998,94.0949536857286L134.92142857142858,89.8942812330122L135.0142857142857,90.1387957651966L135.10714285714286,86.14236199810966L135.29285714285714,87.05158208821388L135.38571428571427,88.5560450733625L135.6642857142857,89.06996259432768L135.75714285714287,91.11756465164011L135.85,91.73979859580005L135.94285714285715,90.67685967303083L136.12857142857143,86.6641823910134L136.59285714285716,87.5580523595078L136.68571428571428,87.98445947973494L136.8714285714286,88.21831420834954L137.24285714285713,88.47935692689035L137.3357142857143,88.70824229591142L137.52142857142857,88.25258896963624L137.89285714285714,89.36614657630638L138.07857142857142,90.74330851460971L138.45,86.7314265463057L138.54285714285712,87.46584808625897L138.6357142857143,86.69582644151465L138.72857142857143,87.68140598723144L138.9142857142857,88.20337865793377L139.19285714285715,89.2128428317475L139.28571428571428,87.25203647600121L139.4714285714286,84.84727446982096L139.56428571428572,86.1837243739809L139.65714285714284,87.94951953341207L140.2142857142857,86.26289595907429L140.4,87.5882366813253L140.49285714285713,83.7543336638522L140.67857142857142,80.10459531234012L140.77142857142857,81.39039257016147L141.04999999999998,83.47322097880269L141.14285714285714,85.57944382496864L141.60714285714283,88.01037441459547L141.70000000000002,86.06675382179266L141.79285714285714,87.96803236159411L142.07142857142856,89.60899058170651L142.25714285714287,91.12409609971269L142.35,92.07082081422853L142.44285714285712,93.86882566944603L142.5357142857143,93.28064025762647L142.62857142857143,94.72730504345708L142.72142857142856,95.52480326606694L143.2785714285714,91.25438908643316L143.74285714285713,92.32299768667936L143.8357142857143,92.438382813912L143.92857142857144,88.33772175914675L144.02142857142857,89.8515470623937L144.39285714285714,89.70681197396206L144.76428571428573,91.73273731539417L144.95,93.20223676304752L145.04285714285714,92.2769137410799L145.4142857142857,88.16733348532046L145.78571428571428,86.2106301436278L146.43571428571428,88.98954548572829L146.62142857142857,91.43762048401327L146.89999999999998,88.49560135739249L147.0857142857143,84.58954328273587L147.17857142857142,81.15196840218536L147.36428571428573,83.11886014006518L147.45714285714286,84.8396228323616L147.55,86.26104357658173L147.73571428571427,89.24633617986976L147.82857142857145,90.43873768997693L148.10714285714286,91.04045711702821L149.68571428571428,92.51243197559165L149.77857142857144,93.66314821693415L149.87142857142857,95.19557506500277L149.9642857142857,94.39201843642762L150.3357142857143,96.07125742242411L150.61428571428573,95.83808826419079L150.70714285714286,96.5789434096603L150.9857142857143,92.24165152212895L151.07857142857142,93.91456068841188L151.17142857142858,89.7060098505492L151.54285714285714,91.29587930876899L151.63571428571427,92.65590594678673L151.72857142857143,94.04793111971345L151.9142857142857,93.44989490812921L152.00714285714287,92.76460068818209L152.1,92.52639765033209L152.2857142857143,94.77104577956383L152.47142857142856,94.3067882616878L153.0285714285714,96.08861490729498L153.21428571428572,97.75464108739376L153.67857142857144,98.77278582758711L153.77142857142857,100.78513260706983L154.60714285714286,102.76690031368099L154.7,103.30467079642854L155.7214285714286,98.86891390262495L156.09285714285713,100.2796736379806L156.18571428571428,95.72104158789163L156.4642857142857,97.7098843005576L156.55714285714285,95.34849066402693L156.8357142857143,95.20847367750544L157.02142857142857,93.50975762524264L157.11428571428573,93.1860709558543L157.20714285714286,92.3328370532823L157.85714285714283,93.4355810153518L157.95000000000002,92.71102405950744L158.04285714285714,94.43821773623453L158.13571428571427,94.57521576074166L158.32142857142856,96.01297889390085L158.4142857142857,95.75631505473629L158.6,97.76101772672581L158.69285714285712,96.90981175175588L158.7857142857143,97.7341221054093L158.87857142857143,97.83669538961178L159.34285714285716,93.43022714318313L159.5285714285714,94.62836465030807L159.99285714285713,96.82860459454112L160.0857142857143,97.91103134184135L160.3642857142857,96.51312461804008L161.01428571428573,97.25245276404787L161.2,98.20031786202524L162.12857142857143,99.96380037961386L162.31428571428572,98.02579135873508L162.40714285714287,98.90442283400466L162.59285714285713,96.39277957813441L162.68571428571428,98.48262670133703L162.87142857142857,99.67433223276348L162.96428571428572,96.87114395996149L163.52142857142857,96.0110310421636L163.61428571428573,94.70872433484459L164.17142857142858,96.39279449642812L164.2642857142857,96.88954079912459L165.1,99.16566605517274L165.4714285714286,99.67455442213823L165.65714285714284,98.54010392892063L166.02857142857144,97.04529821282999L166.5857142857143,97.64410681112435L166.77142857142857,99.01988093651251L166.86428571428573,98.62898748500433L167.04999999999998,98.54884317332909L167.32857142857142,99.27410679879598L167.5142857142857,100.38668092486222L167.60714285714286,99.15076347399479L167.97857142857143,97.31532148292507L168.07142857142858,92.9330788013642L168.25714285714287,93.74470946728917L168.35,94.76535044658824L168.44285714285715,94.8888061720259L168.5357142857143,92.75377183256445L168.81428571428572,88.62686438177342L168.90714285714287,85.36328684077586L169,86.1551560645332L169.3714285714286,88.02932248098385L169.55714285714285,90.89065974452976L169.65,90.13252345858064L169.74285714285713,91.7078346683587L169.92857142857144,93.85510376159897L170.1142857142857,95.96882305471102L170.3,93.98798778670192L170.57857142857142,95.47584845843332L170.85714285714286,95.31102679321948L170.95,96.02302031959242L171.04285714285712,91.71185420201483L171.32142857142856,93.08905222090402L171.50714285714287,94.87110434875429L171.6,95.2023436095728L171.8785714285714,97.1529647110463L171.9714285714286,96.87810165193875L172.25,96.6717560610821L172.52857142857144,97.9452594777226L172.62142857142857,98.48567020644785L172.7142857142857,96.66455834509321L172.80714285714285,92.32255763611309L173.0857142857143,94.12896696612687L173.45714285714286,92.78332378298988L173.64285714285714,94.57329097492546L173.7357142857143,96.29150997130455L173.82857142857142,98.37357692288279L174.10714285714283,99.25533019212423L174.20000000000002,100.88958703155741L174.38571428571427,101.14345974482175L174.75714285714287,101.37001945885655L174.85,102.65656838861945L174.94285714285712,102.87555712724537L175.22142857142856,98.19640148524687L175.59285714285716,99.6663994035583L175.68571428571428,100.45924743636259L175.87142857142857,101.51998882736265L175.96428571428572,102.2464894418577L176.05714285714285,102.38123252255554L176.15,97.72036473381498L176.3357142857143,99.07414467345515L176.6142857142857,100.62491671641511L176.70714285714286,100.95119629701229L176.8,103.0973805006766L176.89285714285714,104.0486245731394L177.26428571428573,104.64050022161673L177.35714285714286,106.14767270942782L177.82142857142858,106.11235071040929L178.00714285714284,105.90097142133678L178.10000000000002,106.76031799316326L178.19285714285715,107.71035050353929L178.56428571428572,108.13198122584463L178.84285714285713,108.00087225842316L179.02857142857144,108.77587428420989L179.30714285714285,109.35250119857834L179.39999999999998,110.29346363265654L179.49285714285716,110.32382313286043L179.5857142857143,105.23946286055309L179.67857142857142,106.75819240322267L179.86428571428573,105.62129182104543L180.05,106.76302077088793L180.32857142857145,105.71040462848909L180.42142857142858,103.68773237392219L180.60714285714286,105.37190709335646L180.7,106.90115220322186L180.79285714285714,107.34948883204466L181.07142857142856,107.35041694628221L181.25714285714287,107.84969401423668L181.35,107.80976084345366L181.44285714285715,108.0835239970637L181.53571428571428,108.3021801772252L182.18571428571428,103.3245602674778L182.27857142857144,100.58315945276652L182.55714285714288,96.03008568286435L183.02142857142857,97.2053809703068L183.39285714285717,98.80553501693994L183.57857142857142,100.39778059100826L183.95000000000002,99.27695265850281L184.04285714285714,100.82992026228516L184.22857142857143,100.62872464785947L184.6,101.46209479222719L184.69285714285715,99.5840795786547L184.7857142857143,100.31025520182868L184.97142857142856,95.77664116572811L185.06428571428572,96.59207590161306L185.15714285714287,96.48601172702433L185.5285714285714,97.008781082038L185.9,99.00689812252591L186.0857142857143,96.02236872578699L186.17857142857144,96.91328844586872L186.3642857142857,98.42270758134593L186.92142857142858,99.44415866437191L187.01428571428573,100.13352993783145L187.29285714285712,101.32343579125073L187.57142857142856,102.38559682273194L187.94285714285715,104.1146889974817L188.1285714285714,105.5439811026202L188.5,106.66326214197608L188.87142857142857,108.4240827241674L188.9642857142857,109.26925817433819L189.05714285714285,107.3756989747496L189.42857142857142,109.19968553113837L189.52142857142857,109.43705282692575L189.79999999999998,108.15281492144484L189.89285714285714,109.90291010076537L189.9857142857143,108.94460004522328L190.2642857142857,107.44714704273599L190.54285714285714,107.19350395538552L190.63571428571427,106.41536123783932L190.82142857142856,104.25601636975816L191.00714285714287,99.90588546942146L191.1,101.96271176860328L191.19285714285712,103.75066262133011L191.84285714285716,99.01002617715694L192.0285714285714,99.40287473741331L192.12142857142857,99.41811662685558L192.67857142857144,100.56282021237854L192.77142857142857,101.17731510069771L192.8642857142857,101.43316277015934L192.95714285714286,98.00813881780057L193.05,98.08674118282154L193.2357142857143,99.67847041776636L193.51428571428573,99.88325454478922L194.1642857142857,100.8421755448258L194.25714285714284,100.69370588986038L194.35000000000002,100.04165206591807L195.18571428571428,101.25886120229258L195.46428571428572,98.72007383616648L195.55714285714285,97.37556977517731L195.8357142857143,97.95176343754255L195.92857142857142,100.16056644847772L196.02142857142857,101.54033529381145L196.11428571428573,100.97521685265183L196.20714285714286,101.67827992575597L196.48571428571427,103.45072452983939L196.57857142857145,102.74048468069823L196.67142857142858,103.07945802325982L196.7642857142857,104.09398783198053L197.1357142857143,102.76096850122161L197.22857142857143,104.14011523365443L197.32142857142856,102.41295889580343L197.6,102.96129615653423L197.78571428571428,103.28367486792486L197.9714285714286,102.48472275018898L198.15714285714284,101.00436299892858L198.25,102.66702303398752L198.34285714285716,102.5294367671182L198.52857142857144,103.68101774492669L198.62142857142857,102.33956176895573L199.0857142857143,102.77178587166317L199.36428571428573,101.1599376487217L199.54999999999998,100.815991078042L199.82857142857142,96.25011156874969L200.10714285714286,96.03380543246845L200.20000000000002,96.96414613368269L200.38571428571427,97.88336809633014L200.57142857142858,99.125832851032L201.12857142857143,100.90516204422524L201.22142857142856,102.47537813179285L201.40714285714287,104.28408233454425L201.59285714285716,104.56485780614432L202.05714285714285,102.56069062680638L202.42857142857144,99.42520264233202L202.52142857142857,100.53391649700376L202.6142857142857,99.67705108966855L202.70714285714288,98.59586327973678L203.82142857142856,98.05474079935125L204.00714285714287,93.61848005538693L204.19285714285715,95.51381365234066L204.3785714285714,94.99535390146191L204.75,95.54670943688151L204.84285714285713,97.28704041785304L204.93571428571428,99.53240319487112L205.02857142857144,100.19912101915321L205.12142857142857,99.68106936309978L205.2142857142857,95.16871054812928L205.30714285714285,96.84528146798218L205.49285714285713,98.25609098724316L205.5857142857143,98.54800598294479L205.67857142857142,98.65476565388282L205.86428571428573,94.20775354291926L206.32857142857142,94.0904270980587L206.60714285714283,92.72910360766548L206.79285714285714,93.50745290924385L206.88571428571427,91.74209299923545L207.07142857142856,93.3401278842775L207.35,89.17652085064223L207.62857142857143,85.22856220385691L207.81428571428572,84.7907412826448L208.09285714285716,81.08400051209931L208.18571428571428,83.67318048393386L208.37142857142857,86.57830555731749L208.46428571428572,87.80174875166504L208.74285714285713,89.39845257032346L208.92857142857144,91.54368767895566L209.02142857142857,93.3350848566131L209.76428571428573,94.16020518949938L209.85714285714286,94.49049390407691L210.04285714285714,96.2310667393527L210.50714285714284,96.9414080686883L210.97142857142856,97.84408062491043L211.06428571428572,98.88400619054038L211.15714285714287,100.03583585006064L211.34285714285713,101.81406487830732L211.43571428571428,101.09149131000041L211.62142857142857,102.3800092879504L211.80714285714285,102.44065877711313L212.0857142857143,97.76762254437189L212.17857142857142,99.17220330443143L212.55,94.6833821226877L213.0142857142857,95.70579610593988L213.2,97.64207732011319L213.75714285714287,95.44461306750696L213.85,91.16525934879408L213.94285714285715,92.15867008461039L214.03571428571428,94.39239322995684L214.12857142857143,94.26491160230921L214.40714285714284,96.3738914641822L214.59285714285716,96.90727743365218L214.87142857142857,99.1601771748013L214.9642857142857,100.43031743018724L215.24285714285713,100.57594997152694L215.42857142857144,101.35882272309296L215.61428571428573,103.13993747332286L215.70714285714286,101.9216909122901L215.79999999999998,103.81869791211415L216.17142857142858,103.22616952694787L216.54285714285714,103.23583020296574L216.63571428571427,104.20615954180262L216.72857142857143,99.43157076700348L217.1,97.59848437481828L217.19285714285715,93.20066773420328L217.37857142857143,94.09103100882209L217.47142857142856,89.87277430333687L217.65714285714287,92.10762171665336L217.75,92.04795252223742L217.84285714285716,94.50136513351435L218.0285714285714,96.21464005117109L218.1214285714286,98.24308484835667L218.21428571428572,97.43656518169706L218.30714285714285,94.5295040967037L218.5857142857143,95.38683137138501L218.77142857142857,93.37125564595883L218.8642857142857,93.37113658543109L219.42142857142858,95.08427407323238L219.51428571428573,93.4724889992046L219.60714285714286,89.30160210424835L219.97857142857143,85.36011398851468L220.1642857142857,81.63985771914636L220.35,83.07706554459332L220.7214285714286,86.11732693964069L221.37142857142857,87.51297395796044L221.65,89.79751039027263L221.8357142857143,90.14079731880764L222.02142857142857,90.23380346627322L222.11428571428573,92.07499427562821L222.29999999999998,92.81366959046863L222.4857142857143,93.76536776299287L222.67142857142858,93.77917253602827L222.7642857142857,92.7954180465467L222.85714285714283,92.09272005398665L223.13571428571427,92.34982045101738L223.22857142857143,91.90303032621141L223.50714285714287,92.5443636582698L223.6,91.81097365706496L223.87857142857143,87.7225701059264L224.15714285714284,83.88127875010042L224.5285714285714,84.3764084188449L225.0857142857143,84.79090595580844L225.17857142857144,86.69115612823899L225.45714285714286,86.35089254118581L225.55,87.0661934514206L225.7357142857143,87.94240281159247L225.92142857142855,89.0418706569549L226.01428571428573,91.76296777082237L226.2,92.53660454342715L226.29285714285714,94.21999129353865L226.47857142857143,95.50819177239404L226.57142857142858,96.56089122491237L226.6642857142857,97.64469220754218L226.75714285714284,99.11388413612735L226.94285714285715,99.57222050864036L227.12857142857143,99.21324838066514L227.22142857142856,100.17341971972854L227.59285714285713,101.04518163514348L227.68571428571428,101.58864664521059L227.87142857142857,100.89627107972402L228.14999999999998,96.3304261703392L228.3357142857143,97.54260273097054L228.61428571428573,98.71035958076718L229.17142857142858,94.23803980382498L229.72857142857143,90.0339476146146L230.1,91.99293049581081L230.37857142857143,93.32796931854122L230.84285714285716,93.60168100602145L231.02857142857144,89.43703855069025L231.30714285714288,90.44095143040228L231.86428571428573,92.59559910173016L231.95714285714286,94.23569115113499L232.14285714285717,94.11682813782257L232.42142857142858,94.91675259024233L232.70000000000002,94.11518119777901L232.79285714285714,95.19109623190116L232.88571428571427,97.0889359391466L233.72142857142856,97.81884446249353L233.81428571428572,98.66880801705639L233.90714285714287,97.91897357611829L234,99.60893002943179L234.18571428571428,95.08718887781303L234.3714285714286,93.61319348953332L234.65,93.79556784760898L234.74285714285713,94.5909116159905L235.1142857142857,90.36741147711102L235.3,89.5223538458699L235.39285714285714,92.43507438434706L235.48571428571427,93.13614529320797L235.57857142857142,93.39370730208154L236.32142857142856,93.50805340046706L237.15714285714284,95.71206046344138L237.34285714285713,95.4452471379521L237.62142857142857,94.98840854536473L238.0857142857143,96.26994607536966L238.36428571428573,96.78234904122434L238.45714285714286,96.532319843957L238.7357142857143,96.68764225253936L238.82857142857142,96.9901719286497L239.10714285714283,98.67336247257397L239.38571428571427,96.7440275365824L239.57142857142856,92.38430602207035L239.75714285714287,88.28661919085647L240.0357142857143,84.40095513535938L240.31428571428572,84.1021026029146L240.40714285714284,85.3638369597543L240.5,81.64337592696782L240.68571428571428,81.46949025098456L241.42857142857144,82.03941828718041L241.6142857142857,81.82595028138549L241.8,84.4811230159093L241.9857142857143,80.81366125003429L242.45,80.8144598812824L242.9142857142857,81.90991458781187L243.28571428571428,79.6120692854822L243.65714285714287,78.49970547478068L243.75,80.38997167366776L243.84285714285713,82.79037323161603" style="fill: none;" fill="none"></path></g></g></g></g><g opacity="0.2"><g><g><g><path stroke="rgb(0, 119, 187)" stroke-width="2px" d="M19.03571428571429,17.880909090909086L19.128571428571426,17.799999999999983L19.5,17.71909090909091L19.59285714285714,17.638181818181835L19.87142857142857,17.395454545454555L19.964285714285715,17.557272727272732L20.242857142857144,17.880909090909086L20.335714285714285,17.880909090909086L20.428571428571427,17.395454545454555L20.8,17.71909090909091L21.635714285714286,17.395454545454555L21.914285714285715,17.47636363636363L22.285714285714285,17.799999999999983L22.47142857142857,17.395454545454555L22.65714285714286,17.557272727272732L22.75,17.395454545454555L22.935714285714287,17.880909090909086L23.12142857142857,17.557272727272732L23.214285714285715,17.395454545454555L23.492857142857144,17.638181818181835L23.585714285714285,17.799999999999983L23.678571428571427,17.47636363636363L23.771428571428572,17.47636363636363L23.864285714285714,17.47636363636363L24.42142857142857,17.47636363636363L24.607142857142858,17.47636363636363L24.7,17.395454545454555L24.792857142857144,17.71909090909091L24.885714285714286,17.71909090909091L25.164285714285715,17.557272727272732L25.257142857142856,17.961818181818188L25.35,17.395454545454555L25.44285714285714,17.799999999999983L25.90714285714286,17.71909090909091L26.37142857142857,17.880909090909086L26.65,17.638181818181835L26.742857142857144,17.47636363636363L27.3,17.638181818181835L28.042857142857144,17.799999999999983L28.321428571428573,17.799999999999983L28.414285714285715,17.638181818181835L29.064285714285713,17.47636363636363L29.34285714285714,17.557272727272732L29.52857142857143,17.47636363636363L30.17857142857143,17.961818181818188L30.27142857142857,17.71909090909091L30.549999999999997,17.880909090909086L30.642857142857142,17.71909090909091L31.292857142857144,17.71909090909091L31.478571428571428,17.880909090909086L31.664285714285715,17.880909090909086L31.757142857142856,17.557272727272732L31.849999999999998,17.47636363636363L32.5,17.799999999999983L32.964285714285715,17.557272727272732L33.15,17.557272727272732L33.24285714285715,17.638181818181835L33.33571428571429,17.799999999999983L33.614285714285714,17.395454545454555L33.892857142857146,17.71909090909091L34.07857142857143,17.395454545454555L34.17142857142857,17.638181818181835L34.45,17.799999999999983L35.00714285714286,17.961818181818188L35.1,17.880909090909086L35.285714285714285,17.880909090909086L35.56428571428572,17.71909090909091L35.75,17.47636363636363L35.84285714285714,17.799999999999983L36.028571428571425,17.71909090909091L36.214285714285715,17.880909090909086L36.30714285714286,17.557272727272732L36.95714285714286,17.71909090909091L37.699999999999996,17.880909090909086L37.792857142857144,17.880909090909086L37.885714285714286,17.71909090909091L38.25714285714285,17.961818181818188L39.18571428571428,17.47636363636363L39.27857142857143,17.638181818181835L39.46428571428571,17.638181818181835L39.65,17.557272727272732L39.83571428571429,17.638181818181835L40.114285714285714,17.638181818181835L40.207142857142856,17.47636363636363L40.3,17.395454545454555L40.57857142857143,17.880909090909086L41.50714285714286,17.638181818181835L41.69285714285714,17.47636363636363L42.25,17.799999999999983L42.528571428571425,17.799999999999983L42.62142857142857,17.961818181818188L42.714285714285715,17.71909090909091L42.80714285714286,17.71909090909091L42.99285714285715,17.47636363636363L43.364285714285714,17.71909090909091L43.550000000000004,17.395454545454555L43.73571428571428,17.71909090909091L43.92142857142857,17.395454545454555L44.385714285714286,17.638181818181835L44.94285714285714,17.880909090909086L45.59285714285714,17.47636363636363L45.68571428571428,17.799999999999983L46.15,17.961818181818188L46.24285714285714,17.71909090909091L46.33571428571429,17.799999999999983L46.52142857142857,17.799999999999983L46.61428571428572,17.799999999999983L46.707142857142856,17.395454545454555L47.07857142857143,17.638181818181835L47.17142857142857,17.799999999999983L47.357142857142854,17.47636363636363L47.635714285714286,17.638181818181835L48.00714285714285,17.557272727272732L48.1,17.880909090909086L48.19285714285714,17.557272727272732L48.285714285714285,17.71909090909091L48.47142857142857,17.557272727272732L48.75,17.557272727272732L48.84285714285714,17.799999999999983L48.93571428571429,17.71909090909091L49.214285714285715,17.557272727272732L49.49285714285715,17.557272727272732L50.050000000000004,17.638181818181835L50.23571428571429,17.799999999999983L50.51428571428571,17.557272727272732L50.60714285714286,17.799999999999983L50.792857142857144,17.395454545454555L50.88571428571428,17.799999999999983L51.35,17.880909090909086L51.44285714285714,17.961818181818188L51.81428571428572,17.638181818181835L52,17.799999999999983L52.278571428571425,17.799999999999983L52.650000000000006,17.71909090909091L53.02142857142857,17.557272727272732L53.20714285714286,17.71909090909091L53.57857142857143,17.799999999999983L53.67142857142857,17.47636363636363L53.76428571428572,17.799999999999983L53.949999999999996,17.638181818181835L54.042857142857144,17.880909090909086L54.41428571428572,17.638181818181835L54.50714285714285,17.47636363636363L54.87857142857143,17.47636363636363L54.971428571428575,17.799999999999983L55.06428571428572,17.395454545454555L55.99285714285714,17.799999999999983L56.457142857142856,17.799999999999983L57.107142857142854,17.638181818181835L57.2,17.799999999999983L57.66428571428571,17.71909090909091L57.75714285714286,17.799999999999983L57.94285714285714,17.799999999999983L58.128571428571426,17.395454545454555L58.5,17.47636363636363L59.33571428571428,17.880909090909086L59.52142857142857,17.961818181818188L59.614285714285714,17.638181818181835L59.89285714285714,17.557272727272732L60.45,17.71909090909091L61.099999999999994,17.880909090909086L61.19285714285714,17.799999999999983L61.285714285714285,17.880909090909086L61.378571428571426,17.880909090909086L61.56428571428572,17.395454545454555L61.65714285714286,17.557272727272732L61.93571428571428,17.47636363636363L62.02857142857143,17.799999999999983L62.49285714285714,17.880909090909086L62.58571428571429,17.880909090909086L63.607142857142854,17.638181818181835L63.885714285714286,17.557272727272732L63.97857142857143,17.638181818181835L64.16428571428571,17.71909090909091L64.35,17.395454545454555L64.62857142857143,17.395454545454555L65.65,17.799999999999983L65.92857142857143,17.71909090909091L66.02142857142857,17.71909090909091L66.11428571428571,17.799999999999983L66.3,17.557272727272732L66.4857142857143,17.961818181818188L66.57857142857142,17.799999999999983L66.76428571428572,17.638181818181835L67.22857142857143,17.880909090909086L67.32142857142858,35.114545454545464L67.87857142857143,17.395454545454555L68.06428571428572,17.880909090909086L68.15714285714286,17.880909090909086L68.25,42.23454545454547L68.34285714285714,45.47090909090909L68.4357142857143,17.395454545454555L68.52857142857142,17.961818181818188L68.71428571428572,17.880909090909086L68.80714285714285,17.638181818181835L68.9,17.47636363636363L69.36428571428571,17.47636363636363L69.45714285714286,17.47636363636363L69.55,17.557272727272732L69.7357142857143,58.739999999999995L70.10714285714285,17.395454545454555L70.29285714285714,17.638181818181835L70.47857142857143,17.638181818181835L70.85000000000001,17.880909090909086L70.94285714285714,17.395454545454555L71.03571428571428,44.4190909090909L71.40714285714286,29.04636363636365L71.77857142857142,66.26454545454546L71.87142857142857,17.395454545454555L72.15,17.395454545454555L72.33571428571427,17.71909090909091L72.42857142857143,17.880909090909086L72.52142857142857,17.395454545454555L72.61428571428571,17.557272727272732L72.70714285714286,17.47636363636363L72.80000000000001,17.395454545454555L72.98571428571428,17.395454545454555L73.07857142857144,17.71909090909091L73.54285714285714,17.395454545454555L73.63571428571429,17.638181818181835L73.91428571428573,17.638181818181835L74.00714285714285,32.93000000000001L74.28571428571428,70.71454545454544L74.47142857142858,17.557272727272732L74.84285714285714,17.47636363636363L75.02857142857144,17.880909090909086L75.21428571428572,17.395454545454555L75.39999999999999,17.395454545454555L75.67857142857143,17.557272727272732L76.05,17.880909090909086L76.14285714285715,17.47636363636363L76.32857142857144,17.880909090909086L76.60714285714286,17.799999999999983L76.97857142857144,17.799999999999983L77.44285714285715,17.638181818181835L78.09285714285714,17.799999999999983L78.18571428571428,98.06181818181818L78.37142857142857,17.47636363636363L78.46428571428571,56.231818181818184L78.55714285714286,34.22454545454545L78.64999999999999,17.880909090909086L78.74285714285715,18.28545454545454L78.83571428571429,51.78181818181818L79.11428571428571,60.35818181818182L79.48571428571428,101.29818181818182L79.57857142857142,67.31636363636363L79.95,80.01909090909092L80.22857142857143,86.57272727272726L80.41428571428571,17.638181818181835L80.6,58.739999999999995L80.87857142857142,66.58818181818182L80.97142857142858,17.47636363636363L81.06428571428572,121.03999999999999L81.15714285714286,40.21181818181819L81.25,71.2809090909091L81.43571428571428,17.47636363636363L81.52857142857142,70.63363636363637L81.62142857142858,83.41727272727273L81.80714285714286,55.18000000000001L81.9,17.47636363636363L81.99285714285713,70.06727272727274L82.08571428571429,17.395454545454555L82.27142857142857,17.638181818181835L82.45714285714286,50.32545454545455L82.55,17.799999999999983L83.2,113.35363636363637L83.47857142857143,51.134545454545446L83.57142857142858,17.799999999999983L83.66428571428571,79.85727272727273L83.85000000000001,17.638181818181835L84.12857142857143,17.638181818181835L84.31428571428572,17.638181818181835L84.5,17.880909090909086L84.87142857142857,17.880909090909086L85.24285714285713,17.799999999999983L85.52142857142856,17.395454545454555L85.61428571428571,100.40818181818182L85.70714285714286,17.961818181818188L85.8,17.557272727272732L85.89285714285714,17.557272727272732L86.35714285714285,104.21090909090908L86.91428571428571,17.799999999999983L87.10000000000001,72.33272727272727L87.19285714285714,17.961818181818188L87.28571428571428,94.01636363636364L87.37857142857143,137.54545454545456L87.56428571428572,73.95090909090908L87.84285714285714,17.880909090909086L87.93571428571428,72.73727272727274L88.21428571428572,17.961818181818188L88.30714285714285,83.82181818181819L88.4,17.880909090909086L88.58571428571427,84.55L88.77142857142857,17.47636363636363L89.32857142857144,42.23454545454547L89.60714285714286,74.43636363636364L89.69999999999999,121.20181818181818L89.97857142857143,109.87454545454545L90.07142857142857,113.27272727272727L90.16428571428573,132.7718181818182L90.35,109.87454545454545L90.44285714285715,17.880909090909086L90.53571428571428,17.47636363636363L91,17.395454545454555L91.37142857142857,17.799999999999983L91.46428571428572,17.47636363636363L91.64999999999999,82.44636363636363L91.83571428571429,17.71909090909091L92.02142857142857,17.71909090909091L92.11428571428571,86.4109090909091L92.20714285714286,106.71909090909091L92.3,17.47636363636363L92.39285714285715,58.33545454545455L92.67142857142858,17.395454545454555L92.85714285714286,17.71909090909091L93.04285714285714,17.557272727272732L93.32142857142857,17.71909090909091L93.50714285714287,17.799999999999983L93.6,17.71909090909091L93.69285714285715,48.46454545454546L94.0642857142857,17.395454545454555L94.25,17.395454545454555L94.34285714285714,17.395454545454555L94.52857142857142,26.21454545454546L94.80714285714286,62.13818181818182L95.17857142857142,17.638181818181835L95.45714285714286,28.156363636363636L95.73571428571428,29.45090909090908L95.82857142857142,115.29545454545453L96.0142857142857,17.638181818181835L96.2,34.46727272727273L96.38571428571429,17.71909090909091L96.85,78.72454545454545L97.03571428571429,17.880909090909086L97.12857142857142,17.47636363636363L97.22142857142858,130.50636363636363L97.31428571428572,90.86090909090909L97.59285714285714,17.961818181818188L98.15,120.87818181818182L98.33571428571429,21.198181818181837L98.42857142857143,17.71909090909091L98.52142857142857,17.71909090909091L98.70714285714286,17.71909090909091L99.07857142857142,94.74454545454546L99.26428571428572,17.47636363636363L99.35714285714285,42.153636363636366L99.72857142857143,88.75727272727273L99.82142857142858,17.395454545454555L99.91428571428571,114.08181818181819L100.00714285714285,58.25454545454545L100.28571428571429,92.23636363636363L100.37857142857143,83.49818181818182L100.47142857142858,79.61454545454545L100.65714285714286,70.3909090909091L100.9357142857143,115.37636363636364L101.12142857142857,80.34272727272729L101.21428571428572,17.799999999999983L101.4,17.71909090909091L101.49285714285713,17.395454545454555L101.77142857142856,101.78363636363636L102.05,74.84090909090908L102.14285714285714,83.25545454545455L102.79285714285714,17.638181818181835L102.88571428571429,86.49181818181819L102.97857142857143,17.557272727272732L103.07142857142857,17.71909090909091L103.25714285714285,104.37272727272727L103.35000000000001,46.76545454545453L103.53571428571428,116.91363636363636L103.62857142857143,105.02000000000001L103.72142857142856,17.395454545454555L104,101.62181818181818L104.09285714285714,59.06363636363636L104.18571428571428,135.92727272727274L104.27857142857142,17.47636363636363L104.46428571428572,63.594545454545454L105.02142857142857,137.22181818181818L105.11428571428571,101.70272727272727L105.39285714285714,106.8L106.04285714285714,115.45727272727272L106.32142857142857,17.799999999999983L106.97142857142858,91.91272727272727L107.06428571428572,99.67999999999999L107.15714285714286,24.920000000000016L107.34285714285714,35.114545454545464L107.43571428571428,95.47272727272727L107.52857142857144,77.51090909090908L107.80714285714286,17.47636363636363L107.89999999999999,17.395454545454555L108.08571428571429,17.71909090909091L108.27142857142857,17.71909090909091L108.36428571428571,91.91272727272727L108.73571428571428,95.14909090909092L108.82857142857144,107.12363636363636L109.2,17.880909090909086L109.29285714285714,122.57727272727273L109.38571428571429,100.73181818181818L109.47857142857144,31.878181818181815L109.75714285714287,113.03L109.85,19.98454545454547L109.94285714285715,110.03636363636363L110.22142857142858,88.75727272727273L110.3142857142857,58.65909090909092L111.05714285714286,17.799999999999983L111.42857142857142,113.19181818181818L111.61428571428571,99.92272727272727L111.8,143.77545454545455L111.89285714285715,96.52454545454546L112.17142857142858,69.90545454545455L112.2642857142857,17.71909090909091L112.45,85.92545454545456L112.54285714285714,86.73454545454545L112.63571428571429,109.14636363636363L112.72857142857143,124.43818181818182L113.00714285714287,78.80545454545455L113.75,17.880909090909086L113.93571428571428,29.936363636363637L114.12142857142858,136.2509090909091L114.30714285714286,23.140000000000015L114.4,37.05636363636364L114.49285714285713,54.37090909090908L114.67857142857143,126.62272727272727L114.86428571428571,105.10090909090908L114.95714285714286,17.557272727272732L115.05,17.47636363636363L115.32857142857142,59.629999999999995L115.51428571428572,133.98545454545456L116.16428571428571,110.11727272727273L116.25714285714285,95.63454545454546L116.53571428571429,17.880909090909086L116.72142857142858,129.13090909090909L117.27857142857142,142.96636363636364L117.37142857142857,85.92545454545456L117.55714285714285,39.16L117.74285714285713,58.901818181818186L118.11428571428571,124.6809090909091L118.4857142857143,24.191818181818178L118.67142857142856,143.04727272727274L118.85714285714285,17.47636363636363L119.13571428571429,116.42818181818183L119.22857142857143,93.45L119.32142857142857,17.638181818181835L119.41428571428571,44.66181818181818L119.97142857142856,35.76181818181817L120.06428571428572,32.849090909090904L120.62142857142857,17.71909090909091L120.80714285714285,34.70999999999998L120.99285714285715,84.79272727272726L121.08571428571427,100.32727272727273L121.17857142857143,109.47L122.01428571428572,126.94636363636363L122.19999999999999,33.172727272727286L122.47857142857143,102.18818181818182L122.85,130.10181818181817L123.03571428571428,17.880909090909086L123.12857142857143,74.76L123.22142857142858,64.40363636363637L123.5,59.629999999999995L123.59285714285714,48.78818181818181L123.77857142857144,80.26181818181819L123.87142857142857,66.02181818181818L123.96428571428572,48.54545454545453L124.24285714285715,53.80454545454545L124.33571428571429,43.44818181818184L125.2642857142857,17.47636363636363L125.45,17.799999999999983L125.54285714285714,106.47636363636364L125.82142857142857,34.70999999999998L125.91428571428571,83.17454545454545L126.00714285714287,114.40545454545455L126.28571428571428,121.36363636363637L126.37857142857143,114.64818181818183L126.47142857142858,104.85818181818182L127.86428571428571,113.43454545454546L128.14285714285714,84.95454545454545L128.32857142857142,119.66454545454546L128.42142857142858,137.62636363636364L128.60714285714286,126.70363636363635L128.7,106.71909090909091L128.97857142857143,130.26363636363635L129.25714285714287,102.83545454545454L129.35,131.07272727272726L129.44285714285715,79.53363636363636L129.53571428571428,111.00727272727273L129.7214285714286,82.20363636363636L129.90714285714287,17.395454545454555L130.09285714285713,106.71909090909091L130.27857142857144,142.56181818181818L130.37142857142857,101.54090909090908L130.55714285714285,124.27636363636364L130.74285714285716,91.02272727272727L130.92857142857142,118.77454545454546L131.02142857142857,120.71636363636364L131.11428571428573,101.70272727272727L131.20714285714286,105.26272727272728L131.3,89.08090909090909L132.22857142857143,88.51454545454546L132.6,137.38363636363636L132.9714285714286,94.90636363636364L133.06428571428572,74.43636363636364L133.15714285714284,44.01454545454547L133.34285714285716,17.880909090909086L133.62142857142857,126.70363636363635L133.9,101.05545454545455L134.0857142857143,96.03909090909092L134.27142857142857,96.68636363636364L134.36428571428573,125.32818181818182L134.54999999999998,85.11636363636363L134.92142857142858,17.71909090909091L135.0142857142857,94.34L135.10714285714286,17.47636363636363L135.29285714285714,102.67363636363636L135.38571428571427,114.40545454545455L135.6642857142857,97.89999999999999L135.75714285714287,126.2990909090909L135.85,102.43090909090908L135.94285714285715,72.41363636363637L136.12857142857143,17.71909090909091L136.59285714285716,102.91636363636364L136.68571428571428,95.31090909090909L136.8714285714286,92.23636363636363L137.24285714285713,92.96454545454546L137.3357142857143,92.64090909090909L137.52142857142857,80.42363636363636L137.89285714285714,108.49909090909091L138.07857142857142,114.40545454545455L138.45,17.799999999999983L138.54285714285712,100.08454545454545L138.6357142857143,73.46545454545455L138.72857142857143,104.61545454545454L138.9142857142857,97.17181818181818L139.19285714285715,106.55727272727273L139.28571428571428,53.56181818181818L139.4714285714286,43.52909090909091L139.56428571428572,109.14636363636363L139.65714285714284,118.2890909090909L140.2142857142857,57.28363636363636L140.4,110.36L140.49285714285713,17.880909090909086L140.67857142857142,17.395454545454555L140.77142857142857,103.48272727272727L141.04999999999998,119.25999999999999L141.14285714285714,121.76818181818182L141.60714285714283,129.77818181818182L141.70000000000002,52.67181818181818L141.79285714285714,120.63545454545455L142.07142857142856,117.80363636363637L142.25714285714287,117.15636363636364L142.35,108.33727272727273L142.44285714285712,124.76181818181819L142.5357142857143,83.17454545454545L142.62857142857143,119.58363636363637L142.72142857142856,109.22727272727273L143.2785714285714,17.880909090909086L143.74285714285713,110.68363636363637L143.8357142857143,94.42090909090909L143.92857142857144,17.880909090909086L144.02142857142857,115.86181818181818L144.39285714285714,87.22L144.76428571428573,126.54181818181819L144.95,118.4509090909091L145.04285714285714,76.37818181818182L145.4142857142857,17.557272727272732L145.78571428571428,52.59090909090908L146.43571428571428,136.73636363636365L146.62142857142857,133.5L146.89999999999998,37.94636363636363L147.0857142857143,17.47636363636363L147.17857142857142,22.088181818181823L147.36428571428573,116.91363636363636L147.45714285714286,114.40545454545455L147.55,110.68363636363637L147.73571428571427,140.5390909090909L147.82857142857145,110.92636363636363L148.10714285714286,101.3790909090909L149.68571428571428,117.80363636363637L149.77857142857144,113.43454545454546L149.87142857142857,121.52545454545455L149.9642857142857,80.58545454545455L150.3357142857143,124.92363636363638L150.61428571428573,91.83181818181818L150.70714285714286,109.30818181818182L150.9857142857143,17.71909090909091L151.07857142857142,122.65818181818182L151.17142857142858,17.395454545454555L151.54285714285714,118.61272727272728L151.63571428571427,116.02363636363636L151.72857142857143,117.96545454545455L151.9142857142857,83.17454545454545L152.00714285714287,80.99L152.1,88.43363636363637L152.2857142857143,133.33818181818182L152.47142857142856,86.33L153.0285714285714,126.70363636363635L153.21428571428572,126.38L153.67857142857144,116.26636363636364L153.77142857142857,135.3609090909091L154.60714285714286,136.81727272727272L154.7,112.54454545454546L155.7214285714286,22.654545454545456L156.09285714285713,124.5190909090909L156.18571428571428,17.395454545454555L156.4642857142857,131.88181818181818L156.55714285714285,54.77545454545455L156.8357142857143,92.80272727272727L157.02142857142857,64.32272727272726L157.11428571428573,87.62454545454545L157.20714285714286,77.67272727272727L157.85714285714283,112.38272727272727L157.95000000000002,80.26181818181819L158.04285714285714,124.11454545454545L158.13571428571427,96.92909090909092L158.32142857142856,120.71636363636364L158.4142857142857,91.34636363636363L158.6,132.20545454545456L158.69285714285712,82.28454545454545L158.7857142857143,111.89727272727274L158.87857142857143,99.59909090909092L159.34285714285716,17.71909090909091L159.5285714285714,115.21454545454546L159.99285714285713,134.63272727272727L160.0857142857143,116.5090909090909L160.3642857142857,72.49454545454545L161.01428571428573,109.95545454545454L161.2,114.48636363636363L162.12857142857143,130.26363636363635L162.31428571428572,64.72727272727273L162.40714285714287,114.00090909090909L162.59285714285713,53.238181818181815L162.68571428571428,134.39L162.87142857142857,120.15L162.96428571428572,48.70727272727274L163.52142857142857,81.23272727272729L163.61428571428573,72.33272727272727L164.17142857142858,125.32818181818182L164.2642857142857,105.42454545454545L165.1,138.27363636363637L165.4714285714286,108.41818181818182L165.65714285714284,79.04818181818182L166.02857142857144,71.36181818181818L166.5857142857143,107.93272727272728L166.77142857142857,122.65818181818182L166.86428571428573,91.91272727272727L167.04999999999998,97.17181818181818L167.32857142857142,111.73545454545454L167.5142857142857,119.50272727272727L167.60714285714286,77.91545454545455L167.97857142857143,65.7790909090909L168.07142857142858,17.638181818181835L168.25714285714287,107.69L168.35,112.30181818181818L168.44285714285715,97.00999999999999L168.5357142857143,56.06999999999999L168.81428571428572,17.71909090909091L168.90714285714287,29.289090909090902L169,99.76090909090908L169.3714285714286,120.2309090909091L169.55714285714285,140.05363636363637L169.65,77.10636363636364L169.74285714285713,118.77454545454546L169.92857142857144,130.7490909090909L170.1142857142857,132.28636363636363L170.3,59.95363636363636L170.57857142857142,121.03999999999999L170.85714285714286,92.4790909090909L170.95,108.25636363636363L171.04285714285712,17.638181818181835L171.32142857142856,116.75181818181818L171.50714285714287,125.49000000000001L171.6,100.89363636363636L171.8785714285714,130.6681818181818L171.9714285714286,92.15545454545455L172.25,93.12636363636364L172.52857142857144,119.82636363636362L172.62142857142857,107.7709090909091L172.7142857142857,65.37454545454545L172.80714285714285,17.71909090909091L173.0857142857143,125.16636363636363L173.45714285714286,69.66272727272727L173.64285714285714,125.32818181818182L173.7357142857143,125.81363636363636L173.82857142857142,134.14727272727274L174.10714285714283,114.40545454545455L174.20000000000002,128.9690909090909L174.38571428571427,105.50545454545454L174.75714285714287,105.26272727272728L174.85,124.76181818181819L174.94285714285712,106.63818181818182L175.22142857142856,17.799999999999983L175.59285714285716,124.92363636363638L175.68571428571428,114.08181818181819L175.87142857142857,119.74545454545455L175.96428571428572,114.7290909090909L176.05714285714285,104.69636363636364L176.15,17.638181818181835L176.3357142857143,122.33454545454545L176.6142857142857,127.27000000000001L176.70714285714286,106.55727272727273L176.8,139.97272727272727L176.89285714285714,120.39272727272729L177.26428571428573,114.81L177.35714285714286,132.04363636363638L177.82142857142858,105.50545454545454L178.00714285714284,102.2690909090909L178.10000000000002,121.52545454545455L178.19285714285715,124.03363636363636L178.56428571428572,115.37636363636364L178.84285714285713,105.74818181818182L179.02857142857144,122.09181818181818L179.30714285714285,119.25999999999999L179.39999999999998,126.4609090909091L179.49285714285716,110.84545454545454L179.5857142857143,17.880909090909086L179.67857142857142,132.85272727272726L179.86428571428573,86.08727272727273L180.05,126.38L180.32857142857145,87.62454545454545L180.42142857142858,68.93454545454546L180.60714285714286,134.3090909090909L180.7,133.17636363636365L180.79285714285714,115.05272727272728L181.07142857142856,107.36636363636364L181.25714285714287,116.42818181818183L181.35,107.12363636363636L181.44285714285715,112.78727272727272L181.53571428571428,112.0590909090909L182.18571428571428,17.799999999999983L182.27857142857144,53.48090909090908L182.55714285714288,17.799999999999983L183.02142857142857,117.39909090909092L183.39285714285717,126.2990909090909L183.57857142857142,127.75545454545454L183.95000000000002,80.01909090909092L184.04285714285714,127.51272727272728L184.22857142857143,97.17181818181818L184.6,115.78090909090909L184.69285714285715,67.31636363636363L184.7857142857143,112.78727272727272L184.97142857142856,17.880909090909086L185.06428571428572,110.60272727272726L185.15714285714287,94.66363636363636L185.5285714285714,105.99090909090908L185.9,133.33818181818182L186.0857142857143,44.74272727272728L186.17857142857144,112.22090909090909L186.3642857142857,124.35727272727271L186.92142857142858,116.99454545454546L187.01428571428573,111.97818181818182L187.29285714285712,121.76818181818182L187.57142857142856,120.63545454545455L187.94285714285715,133.82363636363635L188.1285714285714,130.10181818181817L188.5,125.89454545454547L188.87142857142857,138.67818181818183L188.9642857142857,123.79090909090908L189.05714285714285,74.84090909090908L189.42857142857142,140.5390909090909L189.52142857142857,113.51545454545455L189.79999999999998,86.08727272727273L189.89285714285714,139.97272727272727L189.9857142857143,92.4790909090909L190.2642857142857,81.71818181818182L190.54285714285714,102.83545454545454L190.63571428571427,93.04545454545455L190.82142857142856,67.15454545454546L191.00714285714287,25.162727272727267L191.1,137.30272727272728L191.19285714285712,134.4709090909091L191.84285714285716,17.557272727272732L192.0285714285714,106.15272727272728L192.12142857142857,99.67999999999999L192.67857142857144,120.2309090909091L192.77142857142857,111.73545454545454L192.8642857142857,105.82909090909091L192.95714285714286,39.16L193.05,99.43727272727273L193.2357142857143,127.02727272727273L193.51428571428573,103.40181818181819L194.1642857142857,117.31818181818181L194.25714285714284,98.14272727272727L194.35000000000002,88.83818181818182L195.18571428571428,122.17272727272727L195.46428571428572,55.09909090909092L195.55714285714285,74.27454545454545L195.8357142857143,107.85181818181817L195.92857142857142,138.1118181818182L196.02142857142857,125.24727272727273L196.11428571428573,91.26545454545455L196.20714285714286,113.75818181818182L196.48571428571427,133.90454545454546L196.57857142857145,90.53727272727272L196.67142857142858,108.90363636363637L196.7642857142857,121.52545454545455L197.1357142857143,79.85727272727273L197.22857142857143,127.83636363636364L197.32142857142856,72.73727272727274L197.6,112.38272727272727L197.78571428571428,108.82272727272728L197.9714285714286,88.75727272727273L198.15714285714284,75.56909090909092L198.25,131.23454545454544L198.34285714285716,100.16545454545455L198.52857142857144,123.46727272727273L198.62142857142857,79.29090909090908L199.0857142857143,110.19818181818182L199.36428571428573,73.46545454545455L199.54999999999998,94.90636363636364L199.82857142857142,17.799999999999983L200.10714285714286,92.31727272727272L200.20000000000002,112.9490909090909L200.38571428571427,113.67727272727272L200.57142857142858,120.47363636363636L201.12857142857143,131.47727272727272L201.22142857142856,129.45454545454547L201.40714285714287,135.3609090909091L201.59285714285716,109.38909090909091L202.05714285714285,68.12545454545455L202.42857142857144,45.55181818181816L202.52142857142857,119.58363636363637L202.6142857142857,84.95454545454545L202.70714285714288,80.01909090909092L203.82142857142856,88.75727272727273L204.00714285714287,17.395454545454555L204.19285714285715,128.0790909090909L204.3785714285714,86.08727272727273L204.75,105.02000000000001L204.84285714285713,127.18909090909091L204.93571428571428,138.1118181818182L205.02857142857144,111.65454545454546L205.12142857142857,90.78L205.2142857142857,17.638181818181835L205.30714285714285,125.65181818181819L205.49285714285713,122.49636363636364L205.5857142857143,103.56363636363636L205.67857142857142,100.48909090909092L205.86428571428573,17.799999999999983L206.32857142857142,92.07454545454546L206.60714285714283,69.3390909090909L206.79285714285714,106.88090909090909L206.88571428571427,61.41L207.07142857142856,120.79727272727273L207.35,17.638181818181835L207.62857142857143,17.395454545454555L207.81428571428572,77.26818181818182L208.09285714285716,17.395454545454555L208.18571428571428,128.16L208.37142857142857,136.49363636363637L208.46428571428572,108.82272727272728L208.74285714285713,116.83272727272728L208.92857142857144,128.40272727272728L209.02142857142857,124.11454545454545L209.76428571428573,108.33727272727273L209.85714285714286,100.16545454545455L210.04285714285714,126.13727272727272L210.50714285714284,109.14636363636363L210.97142857142856,113.35363636363637L211.06428571428572,116.75181818181818L211.15714285714287,119.82636363636362L211.34285714285713,132.36727272727273L211.43571428571428,88.67636363636363L211.62142857142857,124.5190909090909L211.80714285714285,103.48272727272727L212.0857142857143,17.47636363636363L212.17857142857142,123.30545454545455L212.55,17.557272727272732L213.0142857142857,113.27272727272727L213.2,130.9109090909091L213.75714285714287,57.68818181818182L213.85,17.638181818181835L213.94285714285715,109.22727272727273L214.03571428571428,132.7718181818182L214.12857142857143,92.07454545454546L214.40714285714284,132.61L214.59285714285716,106.07181818181817L214.87142857142857,137.86909090909091L214.9642857142857,122.25363636363636L215.24285714285713,103.07818181818182L215.42857142857144,114.81L215.61428571428573,133.74272727272728L215.70714285714286,80.99L215.79999999999998,136.41272727272727L216.17142857142858,93.04545454545455L216.54285714285714,103.40181818181819L216.63571428571427,120.87818181818182L216.72857142857143,17.395454545454555L217.1,66.10272727272726L217.19285714285715,17.638181818181835L217.37857142857143,109.38909090909091L217.47142857142856,17.395454545454555L217.65714285714287,130.50636363636363L217.75,91.02272727272727L217.84285714285716,136.65545454545455L218.0285714285714,125.65181818181819L218.1214285714286,133.09545454545454L218.21428571428572,83.57909090909092L218.30714285714285,44.5809090909091L218.5857142857143,110.11727272727273L218.77142857142857,58.739999999999995L218.8642857142857,93.36909090909091L219.42142857142858,124.5190909090909L219.51428571428573,65.7790909090909L219.60714285714286,17.638181818181835L219.97857142857143,17.638181818181835L220.1642857142857,17.71909090909091L220.35,107.7709090909091L220.7214285714286,138.35454545454547L221.37142857142857,111.49272727272727L221.65,129.05L221.8357142857143,96.03909090909092L222.02142857142857,91.83181818181818L222.11428571428573,123.71000000000001L222.29999999999998,105.50545454545454L222.4857142857143,110.11727272727273L222.67142857142858,94.01636363636364L222.7642857142857,75.89272727272727L222.85714285714283,80.01909090909092L223.13571428571427,96.76727272727273L223.22857142857143,84.22636363636363L223.50714285714287,103.56363636363636L223.6,79.21L223.87857142857143,17.47636363636363L224.15714285714284,17.880909090909086L224.5285714285714,92.88363636363636L225.0857142857143,91.91272727272727L225.17857142857144,119.3409090909091L225.45714285714286,80.50454545454545L225.55,99.35636363636364L225.7357142857143,102.99727272727273L225.92142857142855,107.93272727272728L226.01428571428573,138.51636363636362L226.2,105.82909090909091L226.29285714285714,123.14363636363638L226.47857142857143,117.64181818181818L226.57142857142858,114.64818181818183L226.6642857142857,116.26636363636364L226.75714285714284,124.35727272727271L226.94285714285715,107.44727272727273L227.12857142857143,93.04545454545455L227.22142857142856,116.67090909090909L227.59285714285713,116.02363636363636L227.68571428571428,110.92636363636363L227.87142857142857,89L228.14999999999998,17.880909090909086L228.3357142857143,118.37L228.61428571428573,118.77454545454546L229.17142857142858,17.395454545454555L229.72857142857143,17.799999999999983L230.1,125.65181818181819L230.37857142857143,116.26636363636364L230.84285714285716,98.30454545454545L231.02857142857144,17.880909090909086L231.30714285714288,107.69L231.86428571428573,129.61636363636364L231.95714285714286,122.41545454545455L232.14285714285717,92.07454545454546L232.42142857142858,108.6609090909091L232.70000000000002,80.34272727272729L232.79285714285714,113.67727272727272L232.88571428571427,129.69727272727272L233.72142857142856,110.36L233.81428571428572,113.27272727272727L233.90714285714287,85.03545454545456L234,128.64545454545453L234.18571428571428,17.395454545454555L234.3714285714286,68.28727272727274L234.65,96.92909090909092L234.74285714285713,108.25636363636363L235.1142857142857,17.799999999999983L235.3,75.00272727272727L235.39285714285714,142.48090909090908L235.48571428571427,105.18181818181817L235.57857142857142,97.81909090909092L236.32142857142856,95.47272727272727L237.15714285714284,133.58090909090907L237.34285714285713,90.86090909090909L237.62142857142857,87.1390909090909L238.0857142857143,118.2890909090909L238.36428571428573,105.58636363636364L238.45714285714286,92.23636363636363L238.7357142857143,99.35636363636364L238.82857142857142,102.18818181818182L239.10714285714283,127.59363636363636L239.38571428571427,63.594545454545454L239.57142857142856,17.47636363636363L239.75714285714287,17.880909090909086L240.0357142857143,17.638181818181835L240.31428571428572,78.96727272727273L240.40714285714284,107.04272727272728L240.5,17.71909090909091L240.68571428571428,78.48181818181818L241.42857142857144,91.83181818181818L241.6142857142857,78.15818181818182L241.8,130.10181818181817L241.9857142857143,17.799999999999983L242.45,80.82818181818182L242.9142857142857,100.73181818181818L243.28571428571428,40.130909090909086L243.65714285714287,59.38727272727273L243.75,112.86818181818182L243.84285714285713,124.03363636363636" style="fill: none;" fill="none"></path></g></g></g></g></g></g><g transform="translate(70, 178)" clip-path="url(#clip_1)"><clipPath id="clip_1"><rect width="260" height="21"></rect></clipPath><g><g><line x1="0" y1="0" x2="0" y2="5" style="visibility: inherit;" fill="rgb(0, 0, 0)" stroke="rgb(204, 204, 204)" stroke-width="1px"></line><line x1="18.57142857142857" y1="0" x2="18.57142857142857" y2="5" style="visibility: inherit;" fill="rgb(0, 0, 0)" stroke="rgb(204, 204, 204)" stroke-width="1px"></line><line x1="37.14285714285714" y1="0" x2="37.14285714285714" y2="5" style="visibility: inherit;" fill="rgb(0, 0, 0)" stroke="rgb(204, 204, 204)" stroke-width="1px"></line><line x1="55.71428571428571" y1="0" x2="55.71428571428571" y2="5" style="visibility: inherit;" fill="rgb(0, 0, 0)" stroke="rgb(204, 204, 204)" stroke-width="1px"></line><line x1="74.28571428571428" y1="0" x2="74.28571428571428" y2="5" style="visibility: inherit;" fill="rgb(0, 0, 0)" stroke="rgb(204, 204, 204)" stroke-width="1px"></line><line x1="92.85714285714286" y1="0" x2="92.85714285714286" y2="5" style="visibility: inherit;" fill="rgb(0, 0, 0)" stroke="rgb(204, 204, 204)" stroke-width="1px"></line><line x1="111.42857142857142" y1="0" x2="111.42857142857142" y2="5" style="visibility: inherit;" fill="rgb(0, 0, 0)" stroke="rgb(204, 204, 204)" stroke-width="1px"></line><line x1="130" y1="0" x2="130" y2="5" style="visibility: inherit;" fill="rgb(0, 0, 0)" stroke="rgb(204, 204, 204)" stroke-width="1px"></line><line x1="148.57142857142856" y1="0" x2="148.57142857142856" y2="5" style="visibility: inherit;" fill="rgb(0, 0, 0)" stroke="rgb(204, 204, 204)" stroke-width="1px"></line><line x1="167.14285714285717" y1="0" x2="167.14285714285717" y2="5" style="visibility: inherit;" fill="rgb(0, 0, 0)" stroke="rgb(204, 204, 204)" stroke-width="1px"></line><line x1="185.71428571428572" y1="0" x2="185.71428571428572" y2="5" style="visibility: inherit;" fill="rgb(0, 0, 0)" stroke="rgb(204, 204, 204)" stroke-width="1px"></line><line x1="204.28571428571428" y1="0" x2="204.28571428571428" y2="5" style="visibility: inherit;" fill="rgb(0, 0, 0)" stroke="rgb(204, 204, 204)" stroke-width="1px"></line><line x1="222.85714285714283" y1="0" x2="222.85714285714283" y2="5" style="visibility: inherit;" fill="rgb(0, 0, 0)" stroke="rgb(204, 204, 204)" stroke-width="1px"></line><line x1="241.42857142857144" y1="0" x2="241.42857142857144" y2="5" style="visibility: inherit;" fill="rgb(0, 0, 0)" stroke="rgb(204, 204, 204)" stroke-width="1px"></line><line x1="260" y1="0" x2="260" y2="5" style="visibility: inherit;" fill="rgb(0, 0, 0)" stroke="rgb(204, 204, 204)" stroke-width="1px"></line></g><g transform="translate(0, 8)"><text x="0" y="0" dx="0em" dy="0.95em" style="text-anchor: middle; visibility: hidden; font-family: &quot;Helvetica Neue&quot;, sans-serif; font-size: 12px; font-weight: 200;" fill="rgb(50, 49, 63)" stroke="none" stroke-width="1px">-200</text><text x="18.57142857142857" y="0" dx="0em" dy="0.95em" style="text-anchor: middle; visibility: inherit; font-family: &quot;Helvetica Neue&quot;, sans-serif; font-size: 12px; font-weight: 200;" fill="rgb(50, 49, 63)" stroke="none" stroke-width="1px">0</text><text x="37.14285714285714" y="0" dx="0em" dy="0.95em" style="text-anchor: middle; visibility: hidden; font-family: &quot;Helvetica Neue&quot;, sans-serif; font-size: 12px; font-weight: 200;" fill="rgb(50, 49, 63)" stroke="none" stroke-width="1px">200</text><text x="55.71428571428571" y="0" dx="0em" dy="0.95em" style="text-anchor: middle; visibility: inherit; font-family: &quot;Helvetica Neue&quot;, sans-serif; font-size: 12px; font-weight: 200;" fill="rgb(50, 49, 63)" stroke="none" stroke-width="1px">400</text><text x="74.28571428571428" y="0" dx="0em" dy="0.95em" style="text-anchor: middle; visibility: hidden; font-family: &quot;Helvetica Neue&quot;, sans-serif; font-size: 12px; font-weight: 200;" fill="rgb(50, 49, 63)" stroke="none" stroke-width="1px">600</text><text x="92.85714285714286" y="0" dx="0em" dy="0.95em" style="text-anchor: middle; visibility: inherit; font-family: &quot;Helvetica Neue&quot;, sans-serif; font-size: 12px; font-weight: 200;" fill="rgb(50, 49, 63)" stroke="none" stroke-width="1px">800</text><text x="111.42857142857142" y="0" dx="0em" dy="0.95em" style="text-anchor: middle; visibility: hidden; font-family: &quot;Helvetica Neue&quot;, sans-serif; font-size: 12px; font-weight: 200;" fill="rgb(50, 49, 63)" stroke="none" stroke-width="1px">1k</text><text x="130" y="0" dx="0em" dy="0.95em" style="text-anchor: middle; visibility: inherit; font-family: &quot;Helvetica Neue&quot;, sans-serif; font-size: 12px; font-weight: 200;" fill="rgb(50, 49, 63)" stroke="none" stroke-width="1px">1.2k</text><text x="148.57142857142856" y="0" dx="0em" dy="0.95em" style="text-anchor: middle; visibility: hidden; font-family: &quot;Helvetica Neue&quot;, sans-serif; font-size: 12px; font-weight: 200;" fill="rgb(50, 49, 63)" stroke="none" stroke-width="1px">1.4k</text><text x="167.14285714285717" y="0" dx="0em" dy="0.95em" style="text-anchor: middle; visibility: inherit; font-family: &quot;Helvetica Neue&quot;, sans-serif; font-size: 12px; font-weight: 200;" fill="rgb(50, 49, 63)" stroke="none" stroke-width="1px">1.6k</text><text x="185.71428571428572" y="0" dx="0em" dy="0.95em" style="text-anchor: middle; visibility: hidden; font-family: &quot;Helvetica Neue&quot;, sans-serif; font-size: 12px; font-weight: 200;" fill="rgb(50, 49, 63)" stroke="none" stroke-width="1px">1.8k</text><text x="204.28571428571428" y="0" dx="0em" dy="0.95em" style="text-anchor: middle; visibility: inherit; font-family: &quot;Helvetica Neue&quot;, sans-serif; font-size: 12px; font-weight: 200;" fill="rgb(50, 49, 63)" stroke="none" stroke-width="1px">2k</text><text x="222.85714285714283" y="0" dx="0em" dy="0.95em" style="text-anchor: middle; visibility: hidden; font-family: &quot;Helvetica Neue&quot;, sans-serif; font-size: 12px; font-weight: 200;" fill="rgb(50, 49, 63)" stroke="none" stroke-width="1px">2.2k</text><text x="241.42857142857144" y="0" dx="0em" dy="0.95em" style="text-anchor: middle; visibility: inherit; font-family: &quot;Helvetica Neue&quot;, sans-serif; font-size: 12px; font-weight: 200;" fill="rgb(50, 49, 63)" stroke="none" stroke-width="1px">2.4k</text><text x="260" y="0" dx="0em" dy="0.95em" style="text-anchor: middle; visibility: hidden; font-family: &quot;Helvetica Neue&quot;, sans-serif; font-size: 12px; font-weight: 200;" fill="rgb(50, 49, 63)" stroke="none" stroke-width="1px">2.6k</text></g><line x1="0" y1="0" x2="260" y2="0" fill="rgb(0, 0, 0)" stroke="rgb(204, 204, 204)" stroke-width="1px"></line></g></g></g></g></svg>