<svg viewBox="0 0 330 200" xmlns="http://www.w3.org/2000/svg"><g><g><g><g><g><line x1="50" y1="178" x2="45" y2="178" style="visibility: inherit;" fill="rgb(0, 0, 0)" stroke="rgb(204, 204, 204)" stroke-width="1px"></line><line x1="50" y1="155.75" x2="45" y2="155.75" style="visibility: inherit;" fill="rgb(0, 0, 0)" stroke="rgb(204, 204, 204)" stroke-width="1px"></line><line x1="50" y1="133.5" x2="45" y2="133.5" style="visibility: inherit;" fill="rgb(0, 0, 0)" stroke="rgb(204, 204, 204)" stroke-width="1px"></line><line x1="50" y1="111.24999999999999" x2="45" y2="111.24999999999999" style="visibility: inherit;" fill="rgb(0, 0, 0)" stroke="rgb(204, 204, 204)" stroke-width="1px"></line><line x1="50" y1="88.99999999999999" x2="45" y2="88.99999999999999" style="visibility: inherit;" fill="rgb(0, 0, 0)" stroke="rgb(204, 204, 204)" stroke-width="1px"></line><line x1="50" y1="66.75" x2="45" y2="66.75" style="visibility: inherit;" fill="rgb(0, 0, 0)" stroke="rgb(204, 204, 204)" stroke-width="1px"></line><line x1="50" y1="44.5" x2="45" y2="44.5" style="visibility: inherit;" fill="rgb(0, 0, 0)" stroke="rgb(204, 204, 204)" stroke-width="1px"></line><line x1="50" y1="22.25" x2="45" y2="22.25" style="visibility: inherit;" fill="rgb(0, 0, 0)" stroke="rgb(204, 204, 204)" stroke-width="1px"></line><line x1="50" y1="0" x2="45" y2="0" style="visibility: inherit;" fill="rgb(0, 0, 0)" stroke="rgb(204, 204, 204)" stroke-width="1px"></line></g><g transform="translate(40, 0)"><text x="0" y="178" dx="0em" dy="0.3em" style="text-anchor: end; visibility: hidden; font-family: &quot;Helvetica Neue&quot;, sans-serif; font-size: 12px; font-weight: 200;" fill="rgb(50, 49, 63)" stroke="none" stroke-width="1px">-0.1</text><text x="0" y="155.75" dx="0em" dy="0.3em" style="text-anchor: end; visibility: inherit; font-family: &quot;Helvetica Neue&quot;, sans-serif; font-size: 12px; font-weight: 200;" fill="rgb(50, 49, 63)" stroke="none" stroke-width="1px">0</text><text x="0" y="133.5" dx="0em" dy="0.3em" style="text-anchor: end; visibility: hidden; font-family: &quot;Helvetica Neue&quot;, sans-serif; font-size: 12px; font-weight: 200;" fill="rgb(50, 49, 63)" stroke="none" stroke-width="1px">0.1</text><text x="0" y="111.24999999999999" dx="0em" dy="0.3em" style="text-anchor: end; visibility: inherit; font-family: &quot;Helvetica Neue&quot;, sans-serif; font-size: 12px; font-weight: 200;" fill="rgb(50, 49, 63)" stroke="none" stroke-width="1px">0.2</text><text x="0" y="88.99999999999999" dx="0em" dy="0.3em" style="text-anchor: end; visibility: hidden; font-family: &quot;Helvetica Neue&quot;, sans-serif; font-size: 12px; font-weight: 200;" fill="rgb(50, 49, 63)" stroke="none" stroke-width="1px">0.3</text><text x="0" y="66.75" dx="0em" dy="0.3em" style="text-anchor: end; visibility: inherit; font-family: &quot;Helvetica Neue&quot;, sans-serif; font-size: 12px; font-weight: 200;" fill="rgb(50, 49, 63)" stroke="none" stroke-width="1px">0.4</text><text x="0" y="44.5" dx="0em" dy="0.3em" style="text-anchor: end; visibility: hidden; font-family: &quot;Helvetica Neue&quot;, sans-serif; font-size: 12px; font-weight: 200;" fill="rgb(50, 49, 63)" stroke="none" stroke-width="1px">0.5</text><text x="0" y="22.25" dx="0em" dy="0.3em" style="text-anchor: end; visibility: inherit; font-family: &quot;Helvetica Neue&quot;, sans-serif; font-size: 12px; font-weight: 200;" fill="rgb(50, 49, 63)" stroke="none" stroke-width="1px">0.6</text><text x="0" y="0" dx="0em" dy="0.3em" style="text-anchor: end; visibility: hidden; font-family: &quot;Helvetica Neue&quot;, sans-serif; font-size: 12px; font-weight: 200;" fill="rgb(50, 49, 63)" stroke="none" stroke-width="1px">0.7</text></g><line x1="50" y1="0" x2="50" y2="178" fill="rgb(0, 0, 0)" stroke="rgb(204, 204, 204)" stroke-width="1px"></line></g></g><g transform="translate(50, 0)" clip-path="url(#clip_0)"><clipPath id="clip_0"><rect width="280" height="177"></rect></clipPath><g><g><g><line x1="0" y1="0" x2="0" y2="178" fill="rgb(0, 0, 0)" stroke="rgb(60, 60, 60)" stroke-width="1px" opacity="0.25"></line><line x1="20" y1="0" x2="20" y2="178" fill="rgb(0, 0, 0)" stroke="rgb(60, 60, 60)" stroke-width="1px" opacity="0.25"></line><line x1="40" y1="0" x2="40" y2="178" fill="rgb(0, 0, 0)" stroke="rgb(60, 60, 60)" stroke-width="1px" opacity="0.25"></line><line x1="60" y1="0" x2="60" y2="178" fill="rgb(0, 0, 0)" stroke="rgb(60, 60, 60)" stroke-width="1px" opacity="0.25"></line><line x1="80" y1="0" x2="80" y2="178" fill="rgb(0, 0, 0)" stroke="rgb(60, 60, 60)" stroke-width="1px" opacity="0.25"></line><line x1="100" y1="0" x2="100" y2="178" fill="rgb(0, 0, 0)" stroke="rgb(60, 60, 60)" stroke-width="1px" opacity="0.25"></line><line x1="120" y1="0" x2="120" y2="178" fill="rgb(0, 0, 0)" stroke="rgb(60, 60, 60)" stroke-width="1px" opacity="0.25"></line><line x1="140" y1="0" x2="140" y2="178" fill="rgb(0, 0, 0)" stroke="rgb(60, 60, 60)" stroke-width="1px" opacity="0.25"></line><line x1="160" y1="0" x2="160" y2="178" fill="rgb(0, 0, 0)" stroke="rgb(60, 60, 60)" stroke-width="1px" opacity="0.25"></line><line x1="180" y1="0" x2="180" y2="178" fill="rgb(0, 0, 0)" stroke="rgb(60, 60, 60)" stroke-width="1px" opacity="0.25"></line><line x1="200" y1="0" x2="200" y2="178" fill="rgb(0, 0, 0)" stroke="rgb(60, 60, 60)" stroke-width="1px" opacity="0.25"></line><line x1="220" y1="0" x2="220" y2="178" fill="rgb(0, 0, 0)" stroke="rgb(60, 60, 60)" stroke-width="1px" opacity="0.25"></line><line x1="240" y1="0" x2="240" y2="178" fill="rgb(0, 0, 0)" stroke="rgb(60, 60, 60)" stroke-width="1px" opacity="0.25"></line><line x1="260" y1="0" x2="260" y2="178" fill="rgb(0, 0, 0)" stroke="rgb(60, 60, 60)" stroke-width="1px" opacity="0.25"></line><line x1="280" y1="0" x2="280" y2="178" fill="rgb(0, 0, 0)" stroke="rgb(60, 60, 60)" stroke-width="1px" opacity="0.25"></line></g><g><line x1="0" y1="178" x2="280" y2="178" fill="rgb(0, 0, 0)" stroke="rgb(60, 60, 60)" stroke-width="1px" opacity="0.25"></line><line x1="0" y1="155.75" x2="280" y2="155.75" fill="rgb(0, 0, 0)" stroke="rgb(60, 60, 60)" stroke-width="1px" opacity="0.25"></line><line x1="0" y1="133.5" x2="280" y2="133.5" fill="rgb(0, 0, 0)" stroke="rgb(60, 60, 60)" stroke-width="1px" opacity="0.25"></line><line x1="0" y1="111.24999999999999" x2="280" y2="111.24999999999999" fill="rgb(0, 0, 0)" stroke="rgb(60, 60, 60)" stroke-width="1px" opacity="0.25"></line><line x1="0" y1="88.99999999999999" x2="280" y2="88.99999999999999" fill="rgb(0, 0, 0)" stroke="rgb(60, 60, 60)" stroke-width="1px" opacity="0.25"></line><line x1="0" y1="66.75" x2="280" y2="66.75" fill="rgb(0, 0, 0)" stroke="rgb(60, 60, 60)" stroke-width="1px" opacity="0.25"></line><line x1="0" y1="44.5" x2="280" y2="44.5" fill="rgb(0, 0, 0)" stroke="rgb(60, 60, 60)" stroke-width="1px" opacity="0.25"></line><line x1="0" y1="22.25" x2="280" y2="22.25" fill="rgb(0, 0, 0)" stroke="rgb(60, 60, 60)" stroke-width="1px" opacity="0.25"></line><line x1="0" y1="0" x2="280" y2="0" fill="rgb(0, 0, 0)" stroke="rgb(60, 60, 60)" stroke-width="1px" opacity="0.25"></line></g></g></g><g><g><line x1="0" y1="155.75" x2="280" y2="155.75" fill="rgb(0, 0, 0)" stroke="rgb(153, 153, 153)" stroke-width="1.5px"></line></g></g><g><g><line x1="20" y1="0" x2="20" y2="178" fill="rgb(0, 0, 0)" stroke="rgb(153, 153, 153)" stroke-width="1.5px"></line></g></g><g><g><g><g><g><path stroke="rgb(0, 119, 187)" stroke-width="2px" d="M20.5,142.64898254349828L20.599999999999998,142.3954829502094L21,142.23530896312536L21.1,142.09755194864644L21.4,142.002806633901L21.5,141.9163892697881L21.8,141.74710027332122L21.9,141.61658769310705L22,141.50430215171093L22.400000000000002,141.42517743236283L23.3,141.5119212875596L23.599999999999998,141.61096918399645L24,141.72346824128095L24.2,141.83285141126476L24.400000000000002,141.94052392166714L24.5,142.0408623977524L24.7,142.13348407741773L24.9,142.2167625153866L25,142.288445307661L25.3,142.35448017287482L25.400000000000002,142.41613230965322L25.5,142.47300717943824L25.6,142.5250586926916L25.700000000000003,142.57315188460004L26.3,142.63327738146754L26.5,142.6915578990581L26.6,142.74643086639145L26.700000000000003,142.79854390851568L26.799999999999997,142.8484398394877L27.099999999999998,142.8986524183951L27.2,142.94586803839331L27.3,142.99063683706473L27.4,143.03283189230788L27.9,143.07249961588428L28.4,143.1056103369211L28.7,143.13107729314763L28.8,143.15435101152738L29.4,143.1704673347995L30.2,143.1903649333724L30.5,143.2108455585598L30.6,143.22899182697088L31.299999999999997,143.23413131364143L31.599999999999998,143.2323276650423L31.8,143.2265549763597L32.5,143.20524361909676L32.6,143.183729474252L32.9,143.15826765960193L33,143.13306857515633L33.7,143.1014349978643L33.9,143.06827447215542L34.1,143.033718654822L34.199999999999996,142.99906794250398L34.3,142.96463039978707L35,142.92739022216864L35.5,142.89073315204433L35.7,142.8567677430074L35.800000000000004,142.8246445876997L35.900000000000006,142.79505672553248L36.199999999999996,142.7669635491347L36.5,142.73943822234617L36.699999999999996,142.7116276583115L36.8,142.6843456408938L37.1,142.65690814290502L37.7,142.62562521664495L37.800000000000004,142.59532592307716L38,142.56524858666484L38.3,142.5328171536596L38.5,142.49999125176745L38.599999999999994,142.4681591319712L38.8,142.43669535192075L39,142.40615506007669L39.1,142.37647990890977L39.800000000000004,142.34315649656145L40.599999999999994,142.30391362142512L40.699999999999996,142.26551293760676L40.8,142.22771731912493L41.199999999999996,142.18727986925944L42.2,142.14256718633987L42.300000000000004,142.10017148454838L42.5,142.05937106687753L42.699999999999996,142.02002330785237L42.9,141.9815878797046L43.199999999999996,141.94243365202502L43.3,141.90439269811037L43.4,141.867469612113L43.7,141.82875134123157L44.7,141.78099544151019L44.900000000000006,141.73396717346532L45.5,141.6838507218353L45.8,141.63453464085896L45.9,141.58748503798296L46,141.5427860615563L46.1,141.50028716331832L46.300000000000004,141.4594467369991L46.7,141.41952267105708L46.900000000000006,141.38146988681547L47.099999999999994,141.3453399453397L47.3,141.3115767853444L47.8,141.28143847512433L48.4,141.25438014208402L49.1,141.22687523829936L49.2,141.20034178937615L49.699999999999996,141.1722943219613L49.8,141.14563869521643L49.9,141.12025149470685L50.1,141.09553561206462L50.2,141.0716354283814L50.3,141.04860747065425L50.7,141.023523627364L50.800000000000004,140.99879041356755L51,140.9733240711304L51.300000000000004,140.9452515505354L51.699999999999996,140.9157407810238L51.8,140.8870450929212L51.9,140.85902962852825L52,140.83152720188895L52.199999999999996,140.80403669980814L52.5,140.77539958530664L52.6,140.74714746116103L52.7,140.71883607192734L53,140.6876591826308L53.300000000000004,140.6534157443293L53.9,140.61141267563772L54.1,140.56777794403882L54.4,140.52029706258347L54.5,140.4730798024886L54.7,140.4232873634599L54.8,140.3741811414692L55.300000000000004,140.3161780358097L55.400000000000006,140.25975317107944L55.8,140.20072671834208L56,140.14237324161058L56.3,140.08422478886652L56.7,140.02421562216824L57.1,139.96313001266824L57.300000000000004,139.90317862515207L57.7,139.84439614049688L57.800000000000004,139.7880600393204L57.900000000000006,139.73411452179565L58.099999999999994,139.68136073477572L58.199999999999996,139.63050844889057L58.6,139.57748180486698L58.699999999999996,139.52598953160114L59.1,139.47386266773293L59.2,139.4238228928072L59.300000000000004,139.3757713298083L60.3,139.3258256995559L60.8,139.27644703174704L61.5,139.2273152662464L61.6,139.1805376181772L62.1,139.1362966578656L62.2,139.0946407074751L62.400000000000006,139.0558875536368L62.599999999999994,139.01985974623517L63,138.98769646056306L63.9,138.96208769785827L64.1,138.9386174242862L64.2,138.9165370305259L64.5,138.89672805272107L65.10000000000001,138.87912104156004L65.8,138.86526929884633L65.89999999999999,138.85276625707448L66,138.84134065830455L66.1,138.83104164091412L66.3,138.82236508944118L66.4,138.81455637179198L66.7,138.8075835178246L66.8,138.80091161763673L67.3,138.79298749915088L67.4,138.78478220733L68.5,138.76684986757448L68.8,138.74707573816306L68.9,138.72741549213623L69.1,138.70737184989375L69.3,138.68779810768038L69.60000000000001,138.6692397528739L70.7,138.64651110973108L71,138.6209061933902L71.10000000000001,138.59540615232788L71.2,138.56959262526703L71.4,138.5425744290327L71.60000000000001,138.51486332777836L71.7,138.48767364628358L71.9,138.46024298166958L72.39999999999999,138.42822367357456L72.5,138.3969218909554L73.1,138.36034883844124L73.3,138.32404579956486L73.39999999999999,138.2887810522964L73.5,138.25449210460516L73.6,138.2211965831491L73.7,138.18876772201162L73.8,138.15689142763352L74,138.12502178468935L74.1,138.0939890567637L74.2,138.06385534664412L74.7,138.03080866158433L74.8,137.9990584234301L74.9,137.96864966597815L75.10000000000001,137.9389876149093L75.5,137.9054767898462L75.7,137.87107003901232L75.9,137.83630544087953L76.30000000000001,137.7976783065618L76.4,137.75898079325032L76.49999999999999,137.720919838704L76.89999999999999,137.67725992278156L77.3,137.62741837603696L77.39999999999999,137.57841528864265L77.7,137.52646144919655L77.89999999999999,137.4733198560517L78,137.4215756958042L78.1,137.37118721034153L78.2,137.3218157867526L78.3,137.2735008559288L78.4,137.22654637263815L78.6,137.1797593168497L78.7,137.13416934861542L79.2,137.08502851250267L79.3,137.03709368528146L79.60000000000001,136.98713159943873L79.7,136.93849144303476L80,136.88814966323503L80.2,136.83618708497733L80.60000000000001,136.78093697063431L80.80000000000001,136.72434704973597L81.00000000000001,136.6661352401879L81.19999999999999,136.607542399084L81.5,136.54748168599494L81.89999999999999,136.484468877397L82,136.42348074102784L82.2,136.36366902901344L82.5,136.3041105178886L82.9,136.24561105035932L83.4,136.1871364236957L84.10000000000001,136.12485776777888L84.2,136.0654149917126L84.4,136.00677588884048L84.5,135.95062906801255L84.60000000000001,135.89635248460883L84.7,135.84377452780979L84.80000000000001,135.7926751283393L84.9,135.74320263888134L85.19999999999999,135.69317215894154L85.6,135.63958248353558L85.69999999999999,135.58782971523058L86.1,135.5333052370397L86.39999999999999,135.4775038856484L86.6,135.42060210978903L86.8,135.36390417206832L87.1,135.30351556112544L87.2,135.24330100524458L87.3,135.18567941827865L87.4,135.12891040900925L87.5,135.07368880654587L87.7,135.0173982605402L87.8,134.9623628436314L87.9,134.90867426774108L88.10000000000001,134.85334244898365L88.2,134.79805344598856L88.3,134.7440454514812L88.4,134.68997600630755L88.60000000000001,134.63216869736442L88.8,134.57233506972145L88.9,134.51276140420381L89.60000000000001,134.4412725538956L89.89999999999999,134.36775574914685L90,134.2945703018275L90.1,134.2232148906757L90.3,134.14798889404068L90.6,134.06724701714467L90.8,133.98580067318528L91,133.90549162306792L91.39999999999999,133.82693849515283L91.8,133.74940748108764L92.1,133.67314807932576L92.2,133.600264728152L92.3,133.5298346738864L92.4,133.46163828214395L92.5,133.39598378385838L93,133.32778094720376L93.60000000000001,133.24786044639797L93.80000000000001,133.16788844083464L93.9,133.08826948686126L93.99999999999999,133.0113626876794L94.1,132.93799820137082L94.3,132.8613306964274L94.6,132.7776456852277L94.69999999999999,132.6950521438704L95,132.6005579332836L95.1,132.50890763992038L95.2,132.41636507707966L95.39999999999999,132.31895734242985L95.6,132.21817223535717L96.2,132.10479457749838L96.5,131.99021797857372L96.6,131.88025888122021L96.9,131.76452075949342L97,131.6528195876468L97.10000000000001,131.54581309528427L97.3,131.43630700634006L97.4,131.32541484288478L97.5,131.21407172148477L98,131.08517229833848L98.4,130.9496370008915L98.50000000000001,130.81999875976663L98.69999999999999,130.69554236324285L98.89999999999999,130.57567089508436L99.1,130.45955786353755L99.19999999999999,130.349144763662L99.3,130.24427182273325L99.39999999999999,130.14275016997965L99.5,130.04505067873154L99.8,129.94448722928954L100,129.84490150745395L100.2,129.7447848350804L100.5,129.64173874944697L100.7,129.53966041578965L100.8,129.4416115610522L100.9,129.34746210506705L101.3,129.24937850941149L101.5,129.15203039346528L101.60000000000001,129.05728964135398L101.8,128.9634816302353L102.10000000000001,128.86700829423876L102.5,128.7637156139807L102.80000000000001,128.6581100421058L103.1,128.5516288113302L103.19999999999999,128.449763501149L103.39999999999999,128.34837028254503L103.6,128.24584437853815L103.8,128.14462378120533L104.3,128.0352546388163L104.5,127.92516741624178L104.6,127.81699649052814L104.7,127.71375925980337L104.8,127.61443307663713L105.1,127.5102074442382L105.7,127.4010737440513L105.9,127.29310621455295L106,127.18810308714228L106.10000000000001,127.08575124321426L106.3,126.98256525005036L106.7,126.87793962108202L106.9,126.77438448359749L107,126.67410669609998L107.39999999999999,126.57272823918322L107.5,126.47293425582711L107.6,126.37619307073805L107.69999999999999,126.28007177388596L108,126.17813130603065L108.1,126.0769303810641L108.2,125.97552822991341L108.39999999999999,125.86835756060415L108.7,125.74836110556252L108.89999999999999,125.62540624279828L109,125.49771599629636L109.2,125.36269097068504L109.3,125.22514059104535L109.6,125.08116846318882L109.9,124.92840160651093L110,124.77814637929444L110.7,124.5925206791299L110.80000000000001,124.41455418634837L110.9,124.24104695013247L111,124.072267034953L111.2,123.9071085027688L111.30000000000001,123.74796323072661L111.49999999999999,123.59483857190563L111.6,123.4480822926484L111.69999999999999,123.30409551409085L112,123.15923804862324L112.1,123.01808396685138L112.19999999999999,122.88394735362705L112.3,122.75234094775075L112.5,122.6204672463638L113.1,122.48223540890535L113.2,122.34735385148323L113.5,122.20888340799031L114.2,122.03173270465679L114.5,121.83045085707175L115.2,121.58227187565896L115.30000000000001,121.34415184374296L115.4,121.1094576890552L115.60000000000001,120.87402350558037L115.7,120.64840118423157L115.80000000000001,120.43079320187195L116.1,120.207188427267L116.19999999999999,119.98969176168674L116.39999999999999,119.77435302346403L116.6,119.55995667353858L116.69999999999999,119.35575616975747L117.1,119.15395114571126L117.2,118.96167315076998L117.6,118.76278860259096L117.7,118.57349839854382L117.8,118.39200804368676L117.9,118.21504912837167L118.2,118.0417257998269L118.3,117.86913836520506L118.4,117.70294870975665L118.7,117.52636145979983L118.8,117.35308810792799L119.60000000000001,117.13894917929066L120,116.9173481956137L120.19999999999999,116.69787266499574L120.39999999999999,116.4852843586138L120.5,116.28063212045946L120.8,116.07027893599653L120.89999999999999,115.86187842862296L121.1,115.65391561859954L121.2,115.45205165080974L121.3,115.25753063027113L121.39999999999999,115.07119708324981L121.7,114.87601806756761L122.5,114.63536797426312L122.7,114.39888449397331L122.9,114.17109459288812L123.10000000000001,113.94776328846683L123.2,113.73084635812148L123.3,113.52079299959638L123.5,113.31917434017318L123.7,113.1217515827738L123.8,112.92510678774995L123.9,112.73111369678178L124.2,112.5269735413026L124.4,112.32535811700103L125.1,112.10700776167646L125.19999999999999,111.89688485785561L125.5,111.67753831746978L125.7,111.45851449440995L126.3,111.20854070656554L126.39999999999999,110.9681995883905L126.6,110.73094387772217L126.8,110.4982476067301L127.2,110.26615842349473L127.60000000000001,110.0182977306097L127.8,109.78165903440706L128,109.54338796497495L128.3,109.30660190903774L128.4,109.07535386187077L128.5,108.8444547266021L128.6,108.61764926052697L129.2,108.36421432631988L129.3,108.11649820675859L129.9,107.84739926425604L130.1,107.576681703063L130.3,107.31193217151538L130.4,107.05727402844491L130.5,106.81236432397793L131.4,106.51439919340797L131.6,106.22293241458094L131.9,105.93353846596386L132.29999999999998,105.63750777041446L132.5,105.34462077940334L132.6,105.06301623710281L132.7,104.7893556379633L133,104.50455319258631L133.1,104.22647119842365L133.3,103.95236032452905L133.4,103.68647710092891L133.5,103.42678654786916L133.8,103.16776778557923L133.9,102.916441289829L134.9,102.6306087463271L135.1,102.35290418016483L135.20000000000002,102.08891205909714L135.5,101.8313131273739L135.6,101.58536858369338L135.7,101.35131054268619L136,101.12194862249723L136.1,100.90337479596433L136.2,100.6935379883733L137.7,100.45411614210619L138,100.21191609572813L138.2,99.97402152155304L138.3,99.74748098407214L138.5,99.52614179892852L138.6,99.31245282143936L138.9,99.0947986419625L139.20000000000002,98.87782597059646L139.3,98.66873746632342L139.4,98.46144728760163L139.5,98.26033547993204L139.70000000000002,98.05825426749401L139.9,97.84883267276513L140.1,97.64346519438315L140.3,97.44205103243227L140.4,97.24610218998242L140.6,97.04499762633071L140.8,96.84605061275546L141,96.6492606487206L141.1,96.45977435587166L141.20000000000002,96.27597410275537L141.3,96.09845089845672L141.4,95.9257365757624L142.4,95.71126285314129L142.8,95.4893681009161L143.20000000000002,95.26610393512462L143.3,95.0492960390235L143.4,94.83711809409763L143.60000000000002,94.62690511160568L143.9,94.41969419520325L144.20000000000002,94.21342412517619L144.39999999999998,94.01320410845084L144.60000000000002,93.81897856859501L144.7,93.63310058613007L144.89999999999998,93.45020538606656L145.29999999999998,93.26166153802268L145.39999999999998,93.0802708954049L145.5,92.89859974883085L145.7,92.7196646910356L145.79999999999998,92.54789411996471L146.1,92.37645109406171L146.2,92.21219011670296L146.29999999999998,92.0531275162301L146.4,91.89684531110477L146.6,91.73303242558698L147.1,91.55789762313229L147.2,91.38723683427702L147.4,91.21887834101445L147.79999999999998,91.03934618628918L147.9,90.8662662644244L148.1,90.69580550225162L148.5,90.52544451632943L148.7,90.35963817236828L149.1,90.184258904796L149.2,90.01596927314536L149.3,89.85345518263887L149.4,89.69775130806575L149.6,89.5451664519112L149.9,89.39173576188601L150,89.24083370037503L150.20000000000002,89.08857383947974L150.3,88.94218930596837L150.4,88.80179533335088L151,88.65050223905871L151.20000000000002,88.50144733490923L151.3,88.35429197924584L151.5,88.20694332022467L151.60000000000002,88.06572249606802L151.9,87.92676029902097L152,87.79390524618148L152.5,87.65587698465824L152.60000000000002,87.52110975942212L152.70000000000002,87.39186482549539L152.99999999999997,87.26502219774012L153.2,87.1406645611039L153.29999999999998,87.02060860598385L153.39999999999998,86.90532855173511L153.5,86.79269333538046L153.6,86.68430734984095L153.7,86.57903715791657L154.29999999999998,86.45662521240237L154.79999999999998,86.32209318075759L154.9,86.19079729277396L155,86.06037971326495L155.1,85.93520252395771L155.5,85.80306256097754L155.9,85.67279666010718L156.1,85.54705783056963L156.2,85.42563282462184L156.6,85.29897453394084L157,85.16985224826823L157.7,85.04045915813035L157.9,84.91646127600663L158.2,84.79384004154042L158.4,84.67273345677987L158.5,84.5557366162692L158.70000000000002,84.44326974296528L158.8,84.33590974758108L158.9,84.23318245769332L159.1,84.1326663566276L159.20000000000002,84.03542475853352L159.5,83.93475334154088L161.20000000000002,83.79085657683174L161.3,83.65196232211458L161.4,83.51809340407662L161.5,83.38675820544114L161.89999999999998,83.25195435926754L162.2,83.11022302902678L162.29999999999998,82.97250747449803L162.6,82.82821823870528L162.7,82.6895191224023L162.79999999999998,82.55173859797577L163.2,82.41039204829447L163.29999999999998,82.27396974678507L163.39999999999998,82.14224863627364L163.6,82.00907650358452L163.7,81.87860254359533L163.79999999999998,81.75120572156821L164,81.62800128916622L164.2,81.50564918228427L164.79999999999998,81.3617909089374L165,81.22027286357549L165.5,81.05935459023901L165.6,80.9051303158298L166.5,80.72017738420661L166.6,80.54302445181168L167.70000000000002,80.33323573806305L168.1,80.12798122637275L168.20000000000002,79.92889232405822L168.5,79.73470284015453L168.6,79.54838845992722L168.9,79.36613996997062L169.10000000000002,79.18793287575225L169.20000000000002,79.01643410080652L169.3,78.85125353463008L170,78.68351867485542L170.10000000000002,78.52132278492681L170.20000000000002,78.36620298639981L170.3,78.21617596467004L170.49999999999997,78.06646479301733L170.60000000000002,77.92139647660915L170.79999999999998,77.78026050541857L170.89999999999998,77.64271623573983L171,77.50989803001045L171.1,77.38103135465975L171.6,77.2347798497948L171.79999999999998,77.09106402418435L172.29999999999998,76.93946080263696L172.4,76.79361582859504L172.7,76.64112567954382L173.4,76.46590249722401L173.6,76.29449405991548L174.6,76.09804144778569L174.8,75.90515686974813L174.9,75.72038854324387L175.1,75.53837128569255L175.2,75.36514175365015L175.4,75.19529199817292L175.5,75.02736586082969L176.1,74.84309299956064L176.20000000000002,74.66457502755954L176.8,74.47659500084018L176.9,74.29596875763339L177.8,74.10272682604987L178.20000000000002,73.90254604593835L178.4,73.70487427843857L178.8,73.50509968033353L179.39999999999998,73.30205414246736L179.60000000000002,73.10125503766933L179.7,72.90777477736611L179.89999999999998,72.7202381544212L180.2,72.5371512098352L180.39999999999998,72.36049136447029L180.5,72.18959221018974L180.89999999999998,72.01190321359611L181,71.83716893463661L181.2,71.66803181707378L181.29999999999998,71.50591892309329L181.4,71.35018424978291L181.5,71.19919395957851L181.79999999999998,71.04634998133946L181.9,70.89676605666332L182,70.7532811887999L182.4,70.60800796413453L182.6,70.46640737814215L182.7,70.32895651811926L182.79999999999998,70.19724593756165L183,70.06638906180066L183.2,69.93876860791292L183.4,69.81180024303382L183.7,69.6843973845117L184,69.55767111784515L184.1,69.43509014849316L184.2,69.31219881407627L184.5,69.1883599022521L184.70000000000002,69.06432503573313L184.8,68.94364300415954L185.1,68.81667585945141L185.20000000000002,68.69346644854379L185.5,68.56943600150606L185.8,68.44353592227068L185.9,68.32135786470776L186,68.200175540893L186.1,68.07821678529187L186.4,67.95488861923369L186.8,67.82496645386101L187,67.6953448421672L187.10000000000002,67.5718137366558L187.20000000000002,67.45425479480333L187.5,67.33630001756973L187.60000000000002,67.22372112943914L187.8,67.11268699732032L188.2,66.99733498844449L188.29999999999998,66.88661613987914L188.39999999999998,66.7795936277364L188.7,66.66346648161684L189.1,66.54292373917694L189.2,66.42628758846496L189.39999999999998,66.31094996668736L189.5,66.19936066677928L189.6,66.09038243682352L189.7,65.97926397337666L189.9,65.87139189571019L190.2,65.76336729933055L190.29999999999998,65.6588780907961L190.4,65.55903692979346L190.5,65.46252432653904L190.9,65.35738158560466L191,65.25585935402069L191.5,65.14294998458827L191.7,65.03092774756904L191.8,64.92229460388627L191.9,64.81704687107252L192.3,64.70056329120766L192.6,64.57518105958745L192.8,64.4468492496841L193.1,64.31365637044081L193.2,64.18392029915424L193.3,64.05641624069106L193.4,63.9219661510529L193.5,63.792382310199955L193.70000000000002,63.657737473446076L193.9,63.51314539502965L194.20000000000002,63.36239249122548L194.3,63.213205455255775L194.5,63.06849130587685L194.6,62.929206469745196L194.70000000000002,62.79408987570879L195,62.65166692810833L195.20000000000002,62.51181453619711L195.3,62.37521263714456L195.4,62.24199865387632L195.5,62.112382321653584L196.20000000000002,61.95776356671995L196.3,61.80538173677459L196.60000000000002,61.649455753296905L197.10000000000002,61.48827568570984L197.5,61.3203948731651L197.7,61.15390450449601L198.1,60.97975050435727L198.2,60.81274129162054L198.39999999999998,60.6491344438074L198.79999999999998,60.476836641375584L198.9,60.30560437014542L199,60.13971975576327L199.2,59.97045558210927L199.29999999999998,59.806805737622554L199.4,59.64652995164546L199.79999999999998,59.48165763838696L200.2,59.30926720651796L200.4,59.13243414107369L200.5,58.96205037624159L200.7,58.79757155340948L201.3,58.62586442884928L201.4,58.46041658404455L201.7,58.295760369841474L202,58.1277781167222L202.4,57.95136670921943L202.6,57.78039014045092L203,57.607824681823374L203.4,57.425191874330764L203.5,57.2495071532817L203.6,57.07635472644411L204,56.89037468076195L204.10000000000002,56.711773725531714L204.4,56.53153202164887L204.5,56.35965032896537L204.60000000000002,56.192565928896016L204.9,56.018119722053186L205.20000000000002,55.8417962318662L205.3,55.671195968520934L205.49999999999997,55.50266271890007L205.7,55.331176408504035L205.79999999999998,55.167551786193215L205.89999999999998,55.01115732969053L206.6,54.839369106980584L206.79999999999998,54.672881436089L206.89999999999998,54.51211578673984L207.5,54.34066625784227L207.6,54.17473206439233L207.7,54.013438368763474L207.79999999999998,53.85208746076128L207.9,53.69533248754914L208.1,53.542618696211605L208.4,53.3849212796552L209.1,53.197150499339344L209.2,53.015467405618324L209.3,52.83813378734841L210.2,52.63397533781492L210.5,52.42827980168035L210.6,52.22988466079299L210.9,52.0349962636503L211,51.849627575284785L211.1,51.672666376358436L211.20000000000002,51.499309160383774L211.3,51.331868343853216L211.6,51.16372078296699L211.70000000000002,51.00037338452651L211.8,50.84313730446671L211.9,50.692099114438136L212.3,50.53135556416743L212.4,50.37813449725999L212.5,50.2267499883482L212.8,50.075054297118015L213,49.92524839764718L213.20000000000002,49.77742784552734L213.4,49.62797643452535L213.5,49.48516129802283L213.60000000000002,49.347175393713854L213.8,49.21100505471884L213.9,49.07695780145846L214.39999999999998,48.92610897991159L214.7,48.77281187772829L214.89999999999998,48.62255722148791L215.2,48.468061534748244L215.5,48.313531180481675L215.6,48.16529863076531L215.79999999999998,48.018317905860954L216,47.87714973235521L216.6,47.726174277156105L216.7,47.58218515420913L216.9,47.44342426803894L217.1,47.30781883014333L217.6,47.1662034664042L218,47.00826295693173L218.1,46.85771592828715L218.2,46.71232856236463L218.3,46.57180321888947L219.5,46.404308648055775L219.70000000000002,46.24201451349549L219.9,46.086888673800615L220.1,45.93678263727719L220.5,45.787786384961834L220.6,45.645081161620226L220.70000000000002,45.50926919605146L220.8,45.37857672363907L220.9,45.252590148716365L221,45.129042576124675L221.1,45.011247061093684L221.3,44.89679601671102L221.4,44.78707592078351L221.5,44.68132838285908L221.70000000000002,44.575768817759666L222.20000000000002,44.461031450714444L222.5,44.33716371960645L222.70000000000002,44.21711520751626L222.8,44.09911783370663L222.99999999999997,43.980832620635226L223.29999999999998,43.85565525759756L223.6,43.72817789563217L223.79999999999998,43.60210917622848L224.1,43.47164355286259L224.2,43.3471988798384L224.39999999999998,43.22774158128476L224.5,43.11310603397007L224.79999999999998,42.999379982373966L225,42.888207098525385L225.1,42.781075005426146L225.9,42.65216129222114L226,42.52810729183429L226.2,42.40695348459087L226.7,42.28499395949973L227.2,42.15361053602547L227.3,42.02675729468004L227.4,41.90468982843993L227.6,41.78618428428044L227.7,41.67065962703549L227.9,41.55815176676899L228.1,41.44704470890835L228.4,41.3257024198858L228.5,41.208939815365596L228.9,41.07904799912288L229.4,40.943428302025296L229.6,40.80819239341582L230.20000000000002,40.656658669080144L230.3,40.509135346192835L230.4,40.3680561823615L230.5,40.233330066512565L230.60000000000002,40.102926286714734L230.9,39.9733510200295L231.10000000000002,39.84659521609413L231.4,39.72192246322061L231.5,39.60258005277305L231.8,39.48239867413156L232.00000000000003,39.362955505999764L232.2,39.24154321711109L232.29999999999998,39.122971897830524L232.39999999999998,39.00955945979251L232.79999999999998,38.89473025799302L233.2,38.77409602573988L233.29999999999998,38.657831852496145L233.39999999999998,38.54090296098903L233.79999999999998,38.419428239728035L233.9,38.301051027764345L234.1,38.186300468041566L234.2,38.072133117920544L234.4,37.96128064233665L234.5,37.85513041747092L234.6,37.7540766431311L234.79999999999998,37.6567755320749L234.9,37.56381793496331L235,37.47333472306596L235.1,37.38389728741487L235.4,37.28877107432908L235.6,37.19313487295503L235.7,37.0999934623695L236.3,37.000275792857366L236.4,36.90179814766884L236.5,36.80293576059873L236.9,36.693368920788544L237.1,36.584895244891015L237.3,36.477931644234616L237.70000000000002,36.36691061705284L238.4,36.244581768087386L238.70000000000002,36.123074228731184L238.9,36.00356313296476L239.10000000000002,35.88401740560295L239.20000000000002,35.76913417540041L239.4,35.65711502838266L239.60000000000002,35.546500439839434L239.8,35.438124194443276L239.9,35.32975883016147L240,35.223058783998596L240.3,35.11302789824313L240.39999999999998,35.00512958138549L240.7,34.89473950637429L240.79999999999998,34.786771638050965L241.1,34.66682983591977L241.39999999999998,34.5419965964189L241.79999999999998,34.41525509006195L242.4,34.28270652993379L242.5,34.15592366986618L242.79999999999998,34.02775699564637L242.9,33.9045045000517L243.1,33.78432985603635L243.29999999999998,33.66545980512632L243.4,33.55244706576923L243.6,33.44210946200326L243.7,33.33657781454863L243.9,33.230784618838925L244,33.12943218992669L244.1,33.032500944484894L244.2,32.93973021153846L244.4,32.848059586135605L244.6,32.75746649177714L244.7,32.670344676274965L245.1,32.57884366555558L245.2,32.489435680708795L245.4,32.39906169912362L245.7,32.3013297675985L245.9,32.20422899769707L246.20000000000002,32.1065678283511L246.8,31.988244585322036L247.4,31.85714565983386L247.8,31.72839783356656L248.10000000000002,31.601804690173594L248.60000000000002,31.4679251093643L248.8,31.33546930488285L249.10000000000002,31.20497896909552L249.7,31.06938303579534L249.79999999999998,30.93912010213549L250,30.809683040933493L250.29999999999998,30.677303511170606L250.6,30.53842334823142L250.7,30.40547112348807L250.79999999999998,30.278211247407967L251.7,30.132190755955378L251.79999999999998,29.992180191322802L251.9,29.85670893682854L252,29.7272465541229L252.2,29.596256695685867L252.4,29.464572478642737L252.7,29.33174849266669L252.79999999999998,29.204374202197215L253.2,29.070404884526738L253.4,28.93820856110014L253.5,28.81256091774L253.6,28.691489047463392L253.7,28.574456082721156L254.5,28.443297081845913L255.4,28.295207564688468L255.6,28.15006080572863L255.9,27.99912290531674L256.4,27.83617246967131L256.7,27.677160119229427L256.8,27.523217941797867L257.1,27.366991783008814L257.2,27.21678761562748L257.5,27.06902980626012L257.8,26.92119206379118L258,26.773482290444775L258.2,26.62528365962052L258.5,26.47780908213221L258.8,26.333368899996316L258.9,26.19445492762685L259,26.058335011469808L259.2,25.92491310196894L260,25.787960431656217L260.2,25.652239498733024L260.40000000000003,25.52214218163533L260.6,25.394003887026713L261.1,25.265724844934056L261.6,25.13520990213297L262,25.00337636265664L262.40000000000003,24.87211590245235L262.5,24.747287732183423L262.59999999999997,24.628829111227788" style="fill: none;" fill="none"></path></g></g></g></g><g opacity="0.2"><g><g><g><path style="fill: none;" stroke="rgb(0, 119, 187)" stroke-width="2px" d="M20.5,142.64898254349828L20.599999999999998,142.15592583455145L21,141.94090517051518L21.1,141.72809677943587L21.4,141.6731472015381L21.5,141.55057948827744L21.8,140.90992546454072L21.9,140.88333508744836L22,140.80204048007727L22.400000000000002,140.88275653123856L23.3,142.15584046021104L23.599999999999998,142.39938527159393L24,142.67601471208036L24.2,142.8114432822913L24.400000000000002,142.95258115790784L24.5,143.0269322618842L24.7,143.08118226751685L24.9,143.1006940342486L25,143.07519197277725L25.3,143.10177986323833L25.400000000000002,143.13372147083282L25.5,143.15232976153493L25.6,143.16176486946642L25.700000000000003,143.1745312344283L26.3,143.40058176591992L26.5,143.44948551431298L26.6,143.47265014238656L26.700000000000003,143.4995505195111L26.799999999999997,143.52985923923552L27.099999999999998,143.59413119778037L27.2,143.60848734900355L27.3,143.62666876800358L27.4,143.63920221850276L27.9,143.64868374355137L28.4,143.59139010123909L28.7,143.50822886265814L28.8,143.5020587015897L29.4,143.4132312592119L30.2,143.49240559898317L30.5,143.52399161830544L30.6,143.50833413004875L31.299999999999997,143.3137535750866L31.599999999999998,143.20421746745706L31.8,143.13607962615788L32.5,142.86946219205856L32.6,142.8430657722056L32.9,142.75320803560317L33,142.73042386211455L33.7,142.59388293884695L33.9,142.53414908237755L34.1,142.4750766698271L34.199999999999996,142.43695661239326L34.3,142.40415960364044L35,142.31944919377565L35.5,142.29058354906738L35.7,142.29917320236564L35.800000000000004,142.29594141058624L35.900000000000006,142.3069041389972L36.199999999999996,142.30241494067013L36.5,142.28330186381936L36.699999999999996,142.24983097799122L36.8,142.23046012036502L37.1,142.19961345940828L37.7,142.10335347615182L37.800000000000004,142.088664945215L38,142.06153828464448L38.3,141.9889071006328L38.5,141.94872396811843L38.599999999999994,141.93290153332055L38.8,141.90699663758278L39,141.89142120815814L39.1,141.87579273059964L39.800000000000004,141.78034753352404L40.599999999999994,141.64049773290753L40.699999999999996,141.61575077846646L40.8,141.58765018731356L41.199999999999996,141.5019244030118L42.2,141.38417909666896L42.300000000000004,141.3805685080588L42.5,141.36637813225389L42.699999999999996,141.35127764940262L42.9,141.3279547058046L43.199999999999996,141.2761979624629L43.3,141.25675250589848L43.4,141.23854207620025L43.7,141.16892966255546L44.7,140.96678974851966L44.900000000000006,140.9318243972957L45.5,140.82868887856603L45.8,140.7927089817822L45.9,140.78405882045627L46,140.77923972904682L46.1,140.7740890868008L46.300000000000004,140.7613757699728L46.7,140.73691892251372L46.900000000000006,140.73068410903215L47.099999999999994,140.72728073969483L47.3,140.73386533930898L47.8,140.76563288271427L48.4,140.79118716344237L49.1,140.75594165176153L49.2,140.74595368281007L49.699999999999996,140.6918910034001L49.8,140.6889965645969L49.9,140.68526827543974L50.1,140.6719896644354L50.2,140.66200832650065L50.3,140.65387538447976L50.7,140.59349500387907L50.800000000000004,140.57472093775868L51,140.5366340354085L51.300000000000004,140.4638188406825L51.699999999999996,140.40959038585424L51.8,140.3948264271021L51.9,140.3784345537424L52,140.3596919849515L52.199999999999996,140.33236722275615L52.5,140.28401882201433L52.6,140.2623370550573L52.7,140.23297491297126L53,140.15258709713817L53.300000000000004,140.06567767634988L53.9,139.8904497437179L54.1,139.81876679509878L54.4,139.7052222378552L54.5,139.66249030828476L54.7,139.568449229002L54.8,139.5310867652297L55.300000000000004,139.3202933743596L55.400000000000006,139.2909279167652L55.8,139.18719394877553L56,139.1403607353568L56.3,139.08569960668683L56.7,138.99370585381985L57.1,138.9141038134694L57.300000000000004,138.87360156327486L57.7,138.8348664790392L57.800000000000004,138.8205202743411L57.900000000000006,138.80760968476534L58.099999999999994,138.77530337125063L58.199999999999996,138.75709128379822L58.6,138.66670057922602L58.699999999999996,138.64154581725597L59.1,138.57850308343768L59.2,138.56429778784513L59.300000000000004,138.55038425698876L60.3,138.4678910933435L60.8,138.42823927104473L61.5,138.383337341249L61.6,138.3769881427288L62.1,138.3763134367764L62.2,138.37905536219478L62.400000000000006,138.39016065746546L62.599999999999994,138.40094434842467L63,138.43516371026635L63.9,138.52215104550123L64.1,138.53541473671794L64.2,138.53720842674375L64.5,138.5564184822142L65.10000000000001,138.576638109982L65.8,138.62729907780886L65.89999999999999,138.6379650682211L66,138.64504865184426L66.1,138.6541033051908L66.3,138.6733000986278L66.4,138.6804002597928L66.7,138.68778721243143L66.8,138.6862852871418L67.3,138.65684688836336L67.4,138.6438103094697L68.5,138.45876018330455L68.8,138.40734162181616L68.9,138.3896368071437L69.1,138.36300498619676L69.3,138.35150348767638L69.60000000000001,138.35038947686553L70.7,138.25601021572948L71,138.18098689243197L71.10000000000001,138.15728763863444L71.2,138.12608704715967L71.4,138.0783702507615L71.60000000000001,138.03875324130058L71.7,138.02052126079798L71.9,137.98894933238626L72.39999999999999,137.87809033691883L72.5,137.85911568254232L73.1,137.73197422549129L73.3,137.70030946284533L73.39999999999999,137.68288315087557L73.5,137.66535903140903L73.6,137.64913127571344L73.7,137.63159223645926L73.8,137.60920923948288L74,137.57745330035686L74.1,137.5607995018363L74.2,137.54611179977655L74.7,137.46301521360874L74.8,137.45353949069977L74.9,137.44617906212807L75.10000000000001,137.42934622615576L75.5,137.32970691099763L75.7,137.27990631759167L75.9,137.23899294435978L76.30000000000001,137.13400074094534L76.4,137.09409362450242L76.49999999999999,137.0669694505632L76.89999999999999,136.9271097034216L77.3,136.77105701342225L77.39999999999999,136.7364596836269L77.7,136.6338065713644L77.89999999999999,136.56025699153543L78,136.53252276405692L78.1,136.5054267719388L78.2,136.47352992370725L78.3,136.44336708635092L78.4,136.41978719085455L78.6,136.37587659806013L78.7,136.3508544564247L79.2,136.24070332199335L79.3,136.21348962932825L79.60000000000001,136.12869550287724L79.7,136.102768227458L80,136.02318939566612L80.2,135.94337847828865L80.60000000000001,135.83164253085852L80.80000000000001,135.75203220173717L81.00000000000001,135.66595331579447L81.19999999999999,135.6008135229349L81.5,135.51553201675415L81.89999999999999,135.40179681777954L82,135.37559601292014L82.2,135.33599723875523L82.5,135.28078905120492L82.9,135.2404857315123L83.4,135.18243781104684L84.10000000000001,135.05479902774096L84.2,135.04408164694905L84.4,134.99925100058317L84.5,134.9859259724617L84.60000000000001,134.96378334984183L84.7,134.94039078056812L84.80000000000001,134.91469559073448L84.9,134.89317628368735L85.19999999999999,134.83355847001076L85.6,134.718815356493L85.69999999999999,134.6986239105463L86.1,134.59647641330957L86.39999999999999,134.51873603090644L86.6,134.44292693212628L86.8,134.38973125815392L87.1,134.26593017578125L87.2,134.20870615914464L87.3,134.19563642516732L87.4,134.15351620689034L87.5,134.12488181889057L87.7,134.05022485926747L87.8,134.01675480231643L87.9,133.98620736598969L88.10000000000001,133.90264163538814L88.2,133.84808826074004L88.3,133.81609028950334L88.4,133.76096498966217L88.60000000000001,133.63893438875675L88.8,133.5442849136889L88.9,133.48917784914374L89.60000000000001,133.2129645049572L89.89999999999999,133.10460374504328L90,133.0371115989983L90.1,132.99719950929284L90.3,132.85546981543303L90.6,132.67995509132743L90.8,132.58640470728278L91,132.5256364122033L91.39999999999999,132.47725319862366L91.8,132.4172839410603L92.1,132.36287313327193L92.2,132.34799644723535L92.3,132.31971847638488L92.4,132.28990045189857L92.5,132.26792028918862L93,132.1559323631227L93.60000000000001,131.87468110397458L93.80000000000001,131.79382414370775L93.9,131.7202712483704L93.99999999999999,131.68996418640018L94.1,131.67746306210756L94.3,131.5440436899662L94.6,131.33978516608477L94.69999999999999,131.27594505250454L95,130.9769757166505L95.1,130.93418908119202L95.2,130.82631570100784L95.39999999999999,130.6453154683113L95.6,130.4865009598434L96.2,130.15676039084792L96.5,130.02158379927278L96.6,129.9909617640078L96.9,129.77592949569225L97,129.73359045386314L97.10000000000001,129.70724708214402L97.3,129.55479337647557L97.4,129.42008592933416L97.5,129.30099452659488L98,128.8704459257424L98.4,128.62089424207807L98.50000000000001,128.5925781428814L98.69999999999999,128.557155251503L98.89999999999999,128.51606118306518L99.1,128.4645249210298L99.19999999999999,128.45204700529575L99.3,128.44236406311393L99.39999999999999,128.39842363074422L99.5,128.36639581993222L99.8,128.21662436053157L100,128.13383777439594L100.2,128.02459840476513L100.5,127.87121967226267L100.7,127.78576907515526L100.8,127.75695399194956L100.9,127.7298032939434L101.3,127.56412402540445L101.5,127.47941278666258L101.60000000000001,127.42947128415108L101.8,127.35168945789337L102.10000000000001,127.20942099392414L102.5,126.98895958065987L102.80000000000001,126.84361432492733L103.1,126.72208768129349L103.19999999999999,126.6995322778821L103.39999999999999,126.60625045001507L103.6,126.4842629507184L103.8,126.40546989440918L104.3,126.15609393268824L104.5,126.03366878628731L104.6,125.95842332392931L104.7,125.93995594233274L104.8,125.90782866626978L105.1,125.71942158788443L105.7,125.52595835924149L105.9,125.43802776187658L106,125.38395845144987L106.10000000000001,125.32716047763824L106.3,125.20964228361845L106.7,125.08028109371662L106.9,124.99511894583702L107,124.95115198940039L107.39999999999999,124.83086203038692L107.5,124.75829218327999L107.6,124.71400362253189L107.69999999999999,124.62853313237429L108,124.42660872638226L108.1,124.3381144925952L108.2,124.23325490951538L108.39999999999999,124.02697061002254L108.7,123.68660383671522L108.89999999999999,123.5128181502223L109,123.30376540124416L109.2,123.04271553456783L109.3,122.86177498102188L109.6,122.60746554285288L109.9,122.30358925461769L110,122.19648838788271L110.7,121.4031336531043L110.80000000000001,121.35676626861095L110.9,121.25987716764212L111,121.17232122272253L111.2,121.06938463449478L111.30000000000001,121.01355810463428L111.49999999999999,120.96387852728367L111.6,120.9265425875783L111.69999999999999,120.8301408663392L112,120.67032341659069L112.1,120.5928001999855L112.19999999999999,120.57923645526171L112.3,120.4911036118865L112.5,120.35463728755713L113.1,120.10716111212969L113.2,120.02984345704317L113.5,119.82970942556858L114.2,118.98796153068542L114.5,118.3720627501607L115.2,117.31810574233532L115.30000000000001,117.25281675159931L115.4,117.0769853964448L115.60000000000001,116.82883617281914L115.7,116.77179948240519L115.80000000000001,116.69189241528511L116.1,116.3652518466115L116.19999999999999,116.25270359963179L116.39999999999999,116.07444197684526L116.6,115.87623757123947L116.69999999999999,115.84722024202347L117.1,115.68657391518354L117.2,115.65798760205507L117.6,115.34559045732021L117.7,115.32114852964878L117.8,115.27367376536131L117.9,115.1745732203126L118.2,115.06371588259935L118.3,114.90377244353294L118.4,114.84750826656818L118.7,114.492271438241L118.8,114.37593688070774L119.60000000000001,113.45965304225683L120,113.10984038561583L120.19999999999999,112.92688400298357L120.39999999999999,112.83263073116541L120.5,112.76433457434177L120.8,112.4560287669301L120.89999999999999,112.28117880225182L121.1,112.08073642849922L121.2,111.98366165906191L121.3,111.91530582308769L121.39999999999999,111.86964795738459L121.7,111.52248770743608L122.5,110.50056182593107L122.7,110.33566833287477L122.9,110.25724992901087L123.10000000000001,110.11052542179823L123.2,110.00381910055876L123.3,109.91169438511133L123.5,109.85499919205904L123.7,109.72966966032982L123.8,109.5463916733861L123.9,109.39795967936516L124.2,109.01947450637817L124.4,108.86123855412006L125.1,108.35535165667534L125.19999999999999,108.28659132868052L125.5,107.90876594185829L125.7,107.69528698921204L126.3,106.91353653371334L126.39999999999999,106.83870219439268L126.6,106.65445939451456L126.8,106.50010258704424L127.2,106.27844427525997L127.60000000000001,105.75960037112236L127.8,105.71577598154545L128,105.44945777207613L128.3,105.23818694800138L128.4,105.10209196060896L128.5,104.87718776613474L128.6,104.72071897983551L129.2,104.00974136590958L129.3,103.86028487980366L129.9,103.22379016131163L130.1,102.9252617880702L130.3,102.76305385679007L130.4,102.68178411573172L130.5,102.6043703109026L131.4,101.39481649547815L131.6,101.21500321477652L131.9,100.96122425794601L132.29999999999998,100.55116218328476L132.5,100.31228975206614L132.6,100.22453819215298L132.7,100.08736898005009L133,99.61112935841084L133.1,99.44851693511009L133.3,99.24263712763786L133.4,99.11811989545822L133.5,98.96483068168163L133.8,98.7173545062542L133.9,98.59819513559341L134.9,97.7194859534502L135.1,97.58143481612206L135.20000000000002,97.55304743349552L135.5,97.40529511868954L135.6,97.35959415137768L135.7,97.32976783812046L136,97.18109381198883L136.1,97.14787904918194L136.2,97.08816011250019L137.7,96.34041351079941L138,96.0504789352417L138.2,95.8865602016449L138.3,95.85510265827179L138.5,95.72313216328621L138.6,95.64088766276836L138.9,95.35510410368443L139.20000000000002,95.1498409807682L139.3,95.076216802001L139.4,94.8998251259327L139.5,94.80486896634102L139.70000000000002,94.58613161742687L139.9,94.25058890879154L140.1,94.11487852036953L140.3,93.98138952255249L140.4,93.8793448060751L140.6,93.58965557813644L140.8,93.42777919769287L141,93.26805126667023L141.1,93.20405532419682L141.20000000000002,93.11795157194138L141.3,93.048279479146L141.4,92.95819048583508L142.4,92.02621434628963L142.8,91.67681281268597L143.20000000000002,91.43001963198185L143.3,91.32414218783379L143.4,91.19151522219181L143.60000000000002,91.01506386697292L143.9,90.8594339042902L144.20000000000002,90.66932928562164L144.39999999999998,90.57306018471718L144.60000000000002,90.48183065652847L144.7,90.43937888741493L144.89999999999998,90.30773331224918L145.29999999999998,90.02213542163372L145.39999999999998,89.96364985406399L145.5,89.77715913951397L145.7,89.64523506164551L145.79999999999998,89.59656339883804L146.1,89.4307481944561L146.2,89.38988786935806L146.29999999999998,89.32014283537865L146.4,89.21163287758827L146.6,88.91842921078205L147.1,88.54876329004765L147.2,88.45497418940067L147.4,88.32617332041264L147.79999999999998,87.95465734601021L147.9,87.89243851602077L148.1,87.7669796794653L148.5,87.5983330309391L148.7,87.51078371703625L149.1,87.17092421650887L149.2,87.12444742023945L149.3,87.06116762757301L149.4,87.0224756449461L149.6,86.92348119616508L149.9,86.75551754236221L150,86.64806191623211L150.20000000000002,86.47247259318829L150.3,86.42703686654568L150.4,86.38957162201405L151,86.05101180076599L151.20000000000002,85.94041307270527L151.3,85.82589541375637L151.5,85.67522545158863L151.60000000000002,85.63929197192192L151.9,85.53913709521294L152,85.51121388375759L152.5,85.2843004912138L152.60000000000002,85.20556379854679L152.70000000000002,85.17120186984539L152.99999999999997,85.08563522994518L153.2,85.00397425889969L153.29999999999998,84.95782901346684L153.39999999999998,84.92460761964321L153.5,84.85741552710533L153.6,84.82203905284405L153.7,84.77030386030674L154.29999999999998,84.35336542129517L154.79999999999998,84.01058827340603L154.9,83.93489521741867L155,83.81956857442856L155.1,83.7844308167696L155.5,83.5326577425003L155.9,83.43459163606167L156.1,83.38663612306118L156.2,83.33933044970036L156.6,83.1227548122406L157,82.95129661262035L157.7,82.81725060939789L157.9,82.78595221042633L158.2,82.68698428571224L158.4,82.59190213680267L158.5,82.5455181747675L158.70000000000002,82.51088437438011L158.8,82.49126982688904L158.9,82.4681408405304L159.1,82.40561698377132L159.20000000000002,82.36463730037212L159.5,82.20503535866737L161.20000000000002,81.31844852864742L161.3,81.26550649106503L161.4,81.21798199415207L161.5,81.13018070161343L161.89999999999998,80.93577918410301L162.2,80.67502108216286L162.29999999999998,80.60630385577679L162.6,80.34906682372093L162.7,80.30641612410545L162.79999999999998,80.18441867828369L163.2,79.98180133104324L163.29999999999998,79.92998656630516L163.39999999999998,79.87904046475887L163.6,79.72093713283539L163.7,79.63682268559933L163.79999999999998,79.56229668855667L164,79.51112513244152L164.2,79.40341752767563L164.79999999999998,78.89004421234131L165,78.78873553872108L165.5,78.29448607563972L165.6,78.25527687370777L166.5,77.54234974086285L166.6,77.49921497702599L167.70000000000002,76.72868420183659L168.1,76.6013355255127L168.20000000000002,76.50818300247192L168.5,76.39817443490028L168.6,76.34716865420341L168.9,76.23477955162525L169.10000000000002,76.12601098418236L169.20000000000002,76.06977333128452L169.3,76.01315107941628L170,75.80152881145477L170.10000000000002,75.73450249433517L170.20000000000002,75.70096281170845L170.3,75.63843895494938L170.49999999999997,75.49415466189384L170.60000000000002,75.4288590401411L170.79999999999998,75.35528790950775L170.89999999999998,75.27945560216904L171,75.22783976793289L171.1,75.16686756908894L171.6,74.72191308438778L171.79999999999998,74.62176483869553L172.29999999999998,74.33464181423187L172.4,74.28773400187492L172.7,74.02106766402721L173.4,73.45524963736534L173.6,73.34938545525074L174.6,72.72262838482857L174.8,72.59104911983013L174.9,72.54573275148869L175.1,72.4109838604927L175.2,72.38874343037605L175.4,72.27696438133717L175.5,72.14208950102329L176.1,71.67695020139217L176.20000000000002,71.59731169044971L176.8,71.2467563599348L176.9,71.19248148798943L177.8,70.78247909247875L178.20000000000002,70.46307627856731L178.4,70.30851390957832L178.8,70.07260885834694L179.39999999999998,69.81336262822151L179.60000000000002,69.6511613279581L179.7,69.583432123065L179.89999999999998,69.4980179965496L180.2,69.39138461649418L180.39999999999998,69.32515402138233L180.5,69.25323401391506L180.89999999999998,68.95888318121433L181,68.83491632342339L181.2,68.76194861531258L181.29999999999998,68.72052465379238L181.4,68.67437940835953L181.5,68.6049062460661L181.79999999999998,68.42021253705025L181.9,68.3266422599554L182,68.28795027732849L182.4,68.11194983124733L182.6,68.03345185518265L182.7,67.96730083227158L182.79999999999998,67.93421868979931L183,67.81803001463413L183.2,67.74601717293262L183.4,67.63025288283825L183.7,67.49538463354111L184,67.38028344511986L184.1,67.32892622053623L184.2,67.20070225000381L184.5,67.06058223545551L184.70000000000002,66.93318051099777L184.8,66.87010627985L185.1,66.63514946401119L185.20000000000002,66.57650475203991L185.5,66.43836741149426L185.8,66.28034365177155L185.9,66.22211669385433L186,66.11804288625717L186.1,65.9827436208725L186.4,65.83588649332523L186.8,65.59266743063927L187,65.4682098776102L187.10000000000002,65.44932474195957L187.20000000000002,65.4343784302473L187.5,65.30962248146534L187.60000000000002,65.28941114246845L187.8,65.20491872727871L188.2,65.01537774503231L188.29999999999998,64.98426501452923L188.39999999999998,64.94075228273869L188.7,64.66819097101688L189.1,64.4717802554369L189.2,64.42226645350456L189.39999999999998,64.32923991978168L189.5,64.28205360472202L189.6,64.21793830394745L189.7,64.07004673779011L189.9,64.01795347034931L190.2,63.90730832517147L190.29999999999998,63.863563507795334L190.4,63.84358425438404L190.5,63.804262325167656L190.9,63.55083812773228L191,63.51152282953262L191.5,63.2029617279768L191.7,63.10618203878403L191.8,63.0557796806097L191.9,63.00869946181774L192.3,62.69916360080242L192.6,62.42088635265827L192.8,62.24187542498112L193.1,62.025160536170006L193.2,61.954818710684776L193.3,61.865664690732956L193.4,61.611869156360626L193.5,61.565896317362785L193.70000000000002,61.344294369220734L193.9,61.02879059314728L194.20000000000002,60.77218350768089L194.3,60.64990092813969L194.5,60.58203910291195L194.6,60.53603973984718L194.70000000000002,60.472541123628616L195,60.20458173751831L195.20000000000002,60.1088961660862L195.3,60.028143644332886L195.4,59.95314021408558L195.5,59.88533806800842L196.20000000000002,59.30113223195076L196.3,59.18718484044075L196.60000000000002,58.97036385536194L197.10000000000002,58.718909069895744L197.5,58.43589727580547L197.7,58.29329726099968L198.1,57.987468138337135L198.2,57.94321936368942L198.39999999999998,57.8380713313818L198.79999999999998,57.51644712686539L198.9,57.36352261900902L199,57.28952047228813L199.2,57.06218932569027L199.29999999999998,56.99500386416912L199.4,56.89270053803921L199.79999999999998,56.64885152876377L200.2,56.34728614985943L200.4,56.09412056207657L200.5,56.03454750776291L200.7,55.97152632474899L201.3,55.67562383413315L201.4,55.61772179603577L201.7,55.46666723489761L202,55.24153758585453L202.4,54.92029798030853L202.6,54.8427018225193L203,54.64283634722233L203.4,54.2872281819582L203.5,54.23092421889305L203.6,54.101281210780144L204,53.69489935040474L204.10000000000002,53.64308458566666L204.4,53.43465183675289L204.5,53.406410336494446L204.60000000000002,53.32175214588642L204.9,53.02081671357155L205.20000000000002,52.812238082289696L205.3,52.7399732619524L205.49999999999997,52.60695506632328L205.7,52.38472980260849L205.79999999999998,52.356183275580406L205.89999999999998,52.32401621341705L206.6,51.88773509860039L206.79999999999998,51.81232054531574L206.89999999999998,51.749869629740715L207.5,51.39485162496567L207.6,51.32368092238903L207.7,51.242119416594505L207.79999999999998,51.079785495996475L207.9,51.00199703872204L208.1,50.918718099594116L208.4,50.67539294064045L209.1,49.97090709209442L209.2,49.8938215225935L209.3,49.79121980071068L210.2,49.126161977648735L210.5,48.894056499004364L210.6,48.821095421910286L210.9,48.68645925819874L211,48.66465647518635L211.1,48.6321512311697L211.20000000000002,48.52071699500084L211.3,48.45493067800999L211.6,48.2746399641037L211.70000000000002,48.193768084049225L211.8,48.14153556525707L211.9,48.09698839485645L212.3,47.769489109516144L212.4,47.74551798403263L212.5,47.62568888068199L212.8,47.46864651143551L213,47.351310670375824L213.20000000000002,47.23760199546814L213.4,47.06012946367264L213.5,47.0313375890255L213.60000000000002,46.976326674222946L213.8,46.871351048350334L213.9,46.77378226816654L214.39999999999998,46.33425195515156L214.7,46.13888894021511L214.89999999999998,46.04090903699398L215.2,45.81354473531246L215.5,45.658418729901314L215.6,45.618393912911415L215.79999999999998,45.49292181432247L216,45.45162384212017L216.6,45.13214145600796L216.7,45.10819022357464L216.9,45.059259951114655L217.1,44.97787085175514L217.6,44.73299403488636L218,44.294557839632034L218.1,44.27104425430298L218.2,44.2143092751503L218.3,44.15732231736183L219.5,43.526447385549545L219.70000000000002,43.45350620150566L219.9,43.42154470086098L220.1,43.35768800973892L220.5,43.22775986790657L220.6,43.19314596056938L220.70000000000002,43.175772696733475L220.8,43.13304242491722L220.9,43.08791172504425L221,43.00627064704895L221.1,42.98730593919754L221.3,42.93031898140907L221.4,42.90188518166542L221.5,42.864393413066864L221.70000000000002,42.762063562870026L222.20000000000002,42.48963487148285L222.5,42.20889088511467L222.70000000000002,42.15446349978447L222.8,42.07170841097832L222.99999999999997,41.94847759604454L223.29999999999998,41.70488056540489L223.6,41.537885040044785L223.79999999999998,41.436019361019135L224.1,41.23000693321228L224.2,41.209013134241104L224.39999999999998,41.17524799704552L224.5,41.143458902835846L224.79999999999998,41.04535964131355L225,40.97805482149124L225.1,40.940350860357285L225.9,40.43718931078911L226,40.39663401246071L226.2,40.32531079649925L226.7,40.189507573843L227.2,39.89620444178581L227.3,39.84718796610832L227.4,39.8073488175869L227.6,39.75004357099533L227.7,39.68573597073555L227.9,39.6250621676445L228.1,39.53802344202995L228.4,39.24082127213478L228.5,39.20274597406387L228.9,38.84727042913437L229.4,38.6132353246212L229.6,38.484593600034714L230.20000000000002,38.05303376913071L230.3,37.97441643476486L230.4,37.944059640169144L230.5,37.9184904396534L230.60000000000002,37.86235225200653L230.9,37.747012346982956L231.10000000000002,37.66870003938675L231.4,37.57981789112091L231.5,37.55206045508385L231.8,37.41746407747269L232.00000000000003,37.310704708099365L232.2,37.155459344387054L232.29999999999998,37.085701048374176L232.39999999999998,37.06092756986618L232.79999999999998,36.92175579071045L233.2,36.70138058066368L233.29999999999998,36.66020196676254L233.39999999999998,36.53185200691223L233.79999999999998,36.3322716653347L233.9,36.26711529493332L234.1,36.2146772146225L234.2,36.11053046584129L234.4,36.056633561849594L234.5,36.03127655386925L234.6,36.01778906583786L234.79999999999998,35.98496553301811L234.9,35.9666374027729L235,35.91866862773895L235.1,35.84719952940941L235.4,35.654329776763916L235.6,35.549931049346924L235.7,35.499654680490494L236.3,35.286944925785065L236.4,35.209773153066635L236.5,35.10430020093918L236.9,34.81081140041351L237.1,34.72112026810646L237.3,34.6401025056839L237.70000000000002,34.459367513656616L238.4,34.14274972677231L238.70000000000002,34.035353779792786L238.9,33.950145214796066L239.10000000000002,33.83000445365906L239.20000000000002,33.79523140192032L239.4,33.7324224114418L239.60000000000002,33.64594069123268L239.8,33.57602325081825L239.9,33.46784484386444L240,33.3897579908371L240.3,33.22249722480774L240.39999999999998,33.151240319013596L240.7,32.99803730845451L240.79999999999998,32.931687355041504L241.1,32.60601159930229L241.39999999999998,32.39713457226753L241.79999999999998,32.237605571746826L242.4,32.00528126955032L242.5,31.977563619613647L242.79999999999998,31.825620502233505L242.9,31.786802530288696L243.1,31.719510972499847L243.29999999999998,31.623056203126907L243.4,31.610682725906372L243.6,31.54630881547928L243.7,31.52335223555565L243.9,31.413065165281296L244,31.388013184070587L244.1,31.367045909166336L244.2,31.345760345458984L244.4,31.272991567850113L244.6,31.200912415981293L244.7,31.173433482646942L245.1,31.006689935922623L245.2,30.95324394106865L245.4,30.846272379159927L245.7,30.62211748957634L245.9,30.53586122393608L246.20000000000002,30.42857137322426L246.8,29.9552361369133L247.4,29.60462775826454L247.8,29.516276091337204L248.10000000000002,29.426704317331314L248.60000000000002,29.1676304936409L248.8,29.059637755155563L249.10000000000002,28.962917745113373L249.7,28.739598363637924L249.79999999999998,28.70096606016159L250,28.585718989372253L250.29999999999998,28.40278249979019L250.6,28.152209639549255L250.7,28.121110171079636L250.79999999999998,28.09165519475937L251.7,27.623293220996857L251.79999999999998,27.5865441262722L251.9,27.52906647324562L252,27.50284743309021L252.2,27.34561276435852L252.4,27.201998203992844L252.7,27.049590915441513L252.79999999999998,27.01585230231285L253.2,26.76856842637062L253.4,26.666835367679596L253.5,26.653705954551697L253.6,26.611254185438156L253.7,26.56361696124077L254.5,26.189746975898743L255.4,25.750760406255722L255.6,25.656175583600998L255.9,25.405735343694687L256.4,25.036387711763382L256.7,24.945038825273514L256.8,24.878211438655853L257.1,24.682742327451706L257.2,24.63600692152977L257.5,24.530281990766525L257.8,24.381070852279663L258,24.235559821128845L258.2,24.078961730003357L258.5,23.943927705287933L258.8,23.851623952388763L258.9,23.807660311460495L259,23.719547361135483L259.2,23.63248211145401L260,23.434864550828934L260.2,23.320307105779648L260.40000000000003,23.286833733320236L260.6,23.192355006933212L261.1,23.061657667160034L261.6,22.892725884914398L262,22.73823645710945L262.40000000000003,22.61682254076004L262.5,22.602512806653976L262.59999999999997,22.59349462389946" fill="none"></path></g></g></g></g></g><g><g opacity="0.000149207"><span fill="rgb(0, 0, 0)" stroke="none" stroke-width="1px">Alt + Scroll to Zoom</span></g></g></g><g transform="translate(50, 178)" clip-path="url(#clip_1)"><clipPath id="clip_1"><rect width="280" height="21"></rect></clipPath><g><g><line x1="0" y1="0" x2="0" y2="5" style="visibility: inherit;" fill="rgb(0, 0, 0)" stroke="rgb(204, 204, 204)" stroke-width="1px"></line><line x1="20" y1="0" x2="20" y2="5" style="visibility: inherit;" fill="rgb(0, 0, 0)" stroke="rgb(204, 204, 204)" stroke-width="1px"></line><line x1="40" y1="0" x2="40" y2="5" style="visibility: inherit;" fill="rgb(0, 0, 0)" stroke="rgb(204, 204, 204)" stroke-width="1px"></line><line x1="60" y1="0" x2="60" y2="5" style="visibility: inherit;" fill="rgb(0, 0, 0)" stroke="rgb(204, 204, 204)" stroke-width="1px"></line><line x1="80" y1="0" x2="80" y2="5" style="visibility: inherit;" fill="rgb(0, 0, 0)" stroke="rgb(204, 204, 204)" stroke-width="1px"></line><line x1="100" y1="0" x2="100" y2="5" style="visibility: inherit;" fill="rgb(0, 0, 0)" stroke="rgb(204, 204, 204)" stroke-width="1px"></line><line x1="120" y1="0" x2="120" y2="5" style="visibility: inherit;" fill="rgb(0, 0, 0)" stroke="rgb(204, 204, 204)" stroke-width="1px"></line><line x1="140" y1="0" x2="140" y2="5" style="visibility: inherit;" fill="rgb(0, 0, 0)" stroke="rgb(204, 204, 204)" stroke-width="1px"></line><line x1="160" y1="0" x2="160" y2="5" style="visibility: inherit;" fill="rgb(0, 0, 0)" stroke="rgb(204, 204, 204)" stroke-width="1px"></line><line x1="180" y1="0" x2="180" y2="5" style="visibility: inherit;" fill="rgb(0, 0, 0)" stroke="rgb(204, 204, 204)" stroke-width="1px"></line><line x1="200" y1="0" x2="200" y2="5" style="visibility: inherit;" fill="rgb(0, 0, 0)" stroke="rgb(204, 204, 204)" stroke-width="1px"></line><line x1="220" y1="0" x2="220" y2="5" style="visibility: inherit;" fill="rgb(0, 0, 0)" stroke="rgb(204, 204, 204)" stroke-width="1px"></line><line x1="240" y1="0" x2="240" y2="5" style="visibility: inherit;" fill="rgb(0, 0, 0)" stroke="rgb(204, 204, 204)" stroke-width="1px"></line><line x1="260" y1="0" x2="260" y2="5" style="visibility: inherit;" fill="rgb(0, 0, 0)" stroke="rgb(204, 204, 204)" stroke-width="1px"></line><line x1="280" y1="0" x2="280" y2="5" style="visibility: inherit;" fill="rgb(0, 0, 0)" stroke="rgb(204, 204, 204)" stroke-width="1px"></line></g><g transform="translate(0, 8)"><text x="0" y="0" dx="0em" dy="0.95em" style="text-anchor: middle; visibility: hidden; font-family: &quot;Helvetica Neue&quot;, sans-serif; font-size: 12px; font-weight: 200;" fill="rgb(50, 49, 63)" stroke="none" stroke-width="1px">-200</text><text x="20" y="0" dx="0em" dy="0.95em" style="text-anchor: middle; visibility: inherit; font-family: &quot;Helvetica Neue&quot;, sans-serif; font-size: 12px; font-weight: 200;" fill="rgb(50, 49, 63)" stroke="none" stroke-width="1px">0</text><text x="40" y="0" dx="0em" dy="0.95em" style="text-anchor: middle; visibility: hidden; font-family: &quot;Helvetica Neue&quot;, sans-serif; font-size: 12px; font-weight: 200;" fill="rgb(50, 49, 63)" stroke="none" stroke-width="1px">200</text><text x="60" y="0" dx="0em" dy="0.95em" style="text-anchor: middle; visibility: inherit; font-family: &quot;Helvetica Neue&quot;, sans-serif; font-size: 12px; font-weight: 200;" fill="rgb(50, 49, 63)" stroke="none" stroke-width="1px">400</text><text x="80" y="0" dx="0em" dy="0.95em" style="text-anchor: middle; visibility: hidden; font-family: &quot;Helvetica Neue&quot;, sans-serif; font-size: 12px; font-weight: 200;" fill="rgb(50, 49, 63)" stroke="none" stroke-width="1px">600</text><text x="100" y="0" dx="0em" dy="0.95em" style="text-anchor: middle; visibility: inherit; font-family: &quot;Helvetica Neue&quot;, sans-serif; font-size: 12px; font-weight: 200;" fill="rgb(50, 49, 63)" stroke="none" stroke-width="1px">800</text><text x="120" y="0" dx="0em" dy="0.95em" style="text-anchor: middle; visibility: hidden; font-family: &quot;Helvetica Neue&quot;, sans-serif; font-size: 12px; font-weight: 200;" fill="rgb(50, 49, 63)" stroke="none" stroke-width="1px">1k</text><text x="140" y="0" dx="0em" dy="0.95em" style="text-anchor: middle; visibility: inherit; font-family: &quot;Helvetica Neue&quot;, sans-serif; font-size: 12px; font-weight: 200;" fill="rgb(50, 49, 63)" stroke="none" stroke-width="1px">1.2k</text><text x="160" y="0" dx="0em" dy="0.95em" style="text-anchor: middle; visibility: hidden; font-family: &quot;Helvetica Neue&quot;, sans-serif; font-size: 12px; font-weight: 200;" fill="rgb(50, 49, 63)" stroke="none" stroke-width="1px">1.4k</text><text x="180" y="0" dx="0em" dy="0.95em" style="text-anchor: middle; visibility: inherit; font-family: &quot;Helvetica Neue&quot;, sans-serif; font-size: 12px; font-weight: 200;" fill="rgb(50, 49, 63)" stroke="none" stroke-width="1px">1.6k</text><text x="200" y="0" dx="0em" dy="0.95em" style="text-anchor: middle; visibility: hidden; font-family: &quot;Helvetica Neue&quot;, sans-serif; font-size: 12px; font-weight: 200;" fill="rgb(50, 49, 63)" stroke="none" stroke-width="1px">1.8k</text><text x="220" y="0" dx="0em" dy="0.95em" style="text-anchor: middle; visibility: inherit; font-family: &quot;Helvetica Neue&quot;, sans-serif; font-size: 12px; font-weight: 200;" fill="rgb(50, 49, 63)" stroke="none" stroke-width="1px">2k</text><text x="240" y="0" dx="0em" dy="0.95em" style="text-anchor: middle; visibility: hidden; font-family: &quot;Helvetica Neue&quot;, sans-serif; font-size: 12px; font-weight: 200;" fill="rgb(50, 49, 63)" stroke="none" stroke-width="1px">2.2k</text><text x="260" y="0" dx="0em" dy="0.95em" style="text-anchor: middle; visibility: inherit; font-family: &quot;Helvetica Neue&quot;, sans-serif; font-size: 12px; font-weight: 200;" fill="rgb(50, 49, 63)" stroke="none" stroke-width="1px">2.4k</text><text x="280" y="0" dx="0em" dy="0.95em" style="text-anchor: middle; visibility: hidden; font-family: &quot;Helvetica Neue&quot;, sans-serif; font-size: 12px; font-weight: 200;" fill="rgb(50, 49, 63)" stroke="none" stroke-width="1px">2.6k</text></g><line x1="0" y1="0" x2="280" y2="0" fill="rgb(0, 0, 0)" stroke="rgb(204, 204, 204)" stroke-width="1px"></line></g></g></g></g></svg>